<svg width="16" height="16" viewBox="0 0 16 16" fill="none" xmlns="http://www.w3.org/2000/svg">
<path fill-rule="evenodd" clip-rule="evenodd" d="M3.00018 8.61589L3.5728 7.38937L4.162 6.12436C4.0262 5.93883 3.8134 5.83083 3.5728 5.83083C3.28088 5.83083 3.03066 5.99016 2.90715 6.25481L2.00731 8.18281H1V9.12382H2.20192C2.55213 9.12382 2.85208 8.93294 3.00018 8.61535V8.61589ZM4.55926 5.27103L4.98432 4.3589C4.85172 4.31826 4.71057 4.29688 4.56461 4.29688H4.10479L4.55979 5.27103H4.55926Z" fill="#CED0D6"/>
<path fill-rule="evenodd" clip-rule="evenodd" d="M3.57324 7.38897L4.42977 9.25334C4.66075 9.75592 5.13393 10.0591 5.68731 10.0591H5.99474L4.23943 6.25494C4.21751 6.20789 4.19185 6.16405 4.16244 6.12395L3.57324 7.38897ZM4.55969 5.27063L7.47897 11.5246C7.50356 11.577 7.53243 11.6256 7.56505 11.6706L8.22589 10.2516L5.81883 5.09419C5.64667 4.72527 5.34619 4.46863 4.98476 4.35742L4.55969 5.26956V5.27063Z" fill="#CED0D6"/>
<path fill-rule="evenodd" clip-rule="evenodd" d="M11.2264 3.80039L8.30764 10.0741L8.2253 10.2511L7.56445 11.6701C7.71737 11.8792 7.95529 12 8.2253 12C8.55305 12 8.83428 11.8209 8.97276 11.5236L12.9394 3H12.4818C11.9311 3 11.4595 3.30048 11.2269 3.80039H11.2264ZM12.2123 6.25396L10.457 10.0581H10.7644C11.3178 10.0581 11.791 9.75494 12.0219 9.25236L12.8785 7.38799L13.4671 6.12404C13.3308 5.93798 13.1191 5.82998 12.8785 5.82998C12.5866 5.82998 12.3347 5.98877 12.2123 6.25396Z" fill="#CED0D6"/>
<path fill-rule="evenodd" clip-rule="evenodd" d="M12.8785 7.38948L13.4511 8.616C13.5992 8.93359 13.8991 9.12446 14.2493 9.12446H15.4513V8.18346H14.4434L13.5436 6.25546C13.5217 6.20894 13.496 6.1651 13.4666 6.125L12.8779 7.38895L12.8785 7.38948Z" fill="#CED0D6"/>
</svg>
