<svg width="40" height="40" viewBox="0 0 40 40" fill="none" xmlns="http://www.w3.org/2000/svg">
<path d="M28.9501 0H11.0498C4.94718 0 0 4.94718 0 11.0498V28.9502C0 35.0528 4.94718 40 11.0498 40H28.9501C35.0528 40 40 35.0528 40 28.9502V11.0498C40 4.94718 35.0528 0 28.9501 0Z" fill="#110F05"/>
<path fill-rule="evenodd" clip-rule="evenodd" d="M19.8237 26.5123L14.0982 14.3001C13.5415 13.1125 12.4282 12.3999 11.1161 12.3999H10.0227L18.0345 29.501C18.3725 30.2136 19.0285 30.6292 19.8038 30.6292C20.5792 30.6292 21.2551 30.2136 21.5732 29.501L30.9965 9.33203H29.903C28.5909 9.33203 27.4776 10.0446 26.921 11.2322L19.784 26.4925L19.8237 26.5123ZM8.77025 19.7431L7.41839 22.6527C7.06055 23.4048 6.34485 23.86 5.52976 23.86H2.66699V21.6234H5.05263L7.19971 17.0513C7.49791 16.4179 8.09432 16.0418 8.79013 16.0418C9.48595 16.0418 10.0824 16.4179 10.3806 17.0513L14.5554 26.0571H13.8199C12.5078 26.0571 11.3746 25.3445 10.8378 24.1569L8.81001 19.7431H8.77025ZM30.8971 19.7431L32.2489 22.6527C32.6068 23.4048 33.3225 23.86 34.1376 23.86H37.0003V21.6234H34.6147L32.4676 17.0513C32.1694 16.4179 31.573 16.0418 30.8772 16.0418C30.1814 16.0418 29.585 16.4179 29.2868 17.0513L25.1119 26.0571H25.8475C27.1596 26.0571 28.2927 25.3445 28.8295 24.1569L30.8573 19.7431H30.8971Z" fill="#F6CD6C"/>
<path fill-rule="evenodd" clip-rule="evenodd" d="M32.1296 22.3759L32.2489 22.653C32.6068 23.4051 33.3225 23.8603 34.1376 23.8603H37.0003V21.6237H34.6147L34.2568 20.832L32.1296 22.3759ZM5.05263 21.6237H2.66699V23.8603H5.52976C6.36473 23.8603 7.08043 23.4051 7.41839 22.653L7.53767 22.3759L5.41048 20.832L5.05263 21.6237Z" fill="#F6894F"/>
<path fill-rule="evenodd" clip-rule="evenodd" d="M27.4976 20.951L25.1318 26.0576H25.8674C27.1795 26.0576 28.3126 25.345 28.8494 24.1575L30.8772 19.7436L32.1098 22.3761L34.237 20.8323L32.567 17.2695L27.4777 20.951H27.4976ZM14.5157 26.0576L12.1499 20.951L7.06057 17.2695L5.39062 20.8323L7.51782 22.3761L8.7504 19.7436L10.7782 24.1575C11.3348 25.345 12.4481 26.0576 13.7602 26.0576H14.4958H14.5157ZM14.9928 23.0095L18.0544 29.5214C18.3924 30.2339 19.0484 30.6496 19.8237 30.6496C20.5991 30.6496 21.275 30.2339 21.5931 29.5214L24.6348 23.0293L19.8237 26.5128L14.9928 23.0095Z" fill="#F6894F"/>
<path fill-rule="evenodd" clip-rule="evenodd" d="M12.1499 20.9706L10.3408 17.0714C10.0426 16.4381 9.44619 16.062 8.75037 16.062C8.05456 16.062 7.45815 16.4381 7.15995 17.0714L7.06055 17.2892L12.1499 20.9706ZM29.3066 17.0714L27.4975 20.9706L32.5869 17.2892L32.4875 17.0714C32.1893 16.4381 31.5929 16.062 30.8971 16.062C30.2013 16.062 29.6048 16.4381 29.3066 17.0714ZM24.6348 23.0489L27.9945 15.8443L23.1835 19.3278L19.8237 26.5325L16.4441 19.308L11.6131 15.8047L14.9928 23.0291L19.8237 26.5325L24.6348 23.0489Z" fill="#F7AF5F"/>
</svg>
