<svg width="1102" height="789" xmlns="http://www.w3.org/2000/svg" xmlns:xlink="http://www.w3.org/1999/xlink" version="1.1" baseProfile="full" viewBox="0 0 1102 789">
<rect width="1102" height="789" x="0" y="0" fill="none"></rect>
<path d="M88.16 719.5L991.8 719.5" fill="transparent" stroke="#E0E6F1" stroke-dasharray="4,2" class="zr2-cls-14"></path>
<path d="M88.16 594.5L991.8 594.5" fill="transparent" stroke="#E0E6F1" stroke-dasharray="4,2" class="zr2-cls-14"></path>
<path d="M88.16 469.5L991.8 469.5" fill="transparent" stroke="#E0E6F1" stroke-dasharray="4,2" class="zr2-cls-14"></path>
<path d="M88.16 344.5L991.8 344.5" fill="transparent" stroke="#E0E6F1" stroke-dasharray="4,2" class="zr2-cls-14"></path>
<path d="M88.16 219.5L991.8 219.5" fill="transparent" stroke="#E0E6F1" stroke-dasharray="4,2" class="zr2-cls-14"></path>
<path d="M88.16 94.5L991.8 94.5" fill="transparent" stroke="#E0E6F1" stroke-dasharray="4,2" class="zr2-cls-14"></path>
<path d="M88.5 94.68L88.5 719" fill="transparent" stroke="#E0E6F1" stroke-dasharray="4,2" class="zr2-cls-14"></path>
<path d="M239.5 94.68L239.5 719" fill="transparent" stroke="#E0E6F1" stroke-dasharray="4,2" class="zr2-cls-14"></path>
<path d="M389.5 94.68L389.5 719" fill="transparent" stroke="#E0E6F1" stroke-dasharray="4,2" class="zr2-cls-14"></path>
<path d="M540.5 94.68L540.5 719" fill="transparent" stroke="#E0E6F1" stroke-dasharray="4,2" class="zr2-cls-14"></path>
<path d="M690.5 94.68L690.5 719" fill="transparent" stroke="#E0E6F1" stroke-dasharray="4,2" class="zr2-cls-14"></path>
<path d="M841.5 94.68L841.5 719" fill="transparent" stroke="#E0E6F1" stroke-dasharray="4,2" class="zr2-cls-14"></path>
<path d="M992.5 94.68L992.5 719" fill="transparent" stroke="#E0E6F1" stroke-dasharray="4,2" class="zr2-cls-14"></path>
<path d="M88.5 719L88.5 94.68" fill="transparent" stroke="#6E7079" stroke-linecap="round" class="zr2-cls-14"></path>
<path d="M88.16 719.5L991.8 719.5" fill="transparent" stroke="#6E7079" stroke-linecap="round" class="zr2-cls-14"></path>
<path d="M88.16 719.5L83.16 719.5" fill="transparent" stroke="#6E7079" class="zr2-cls-14"></path>
<path d="M88.16 594.5L83.16 594.5" fill="transparent" stroke="#6E7079" class="zr2-cls-14"></path>
<path d="M88.16 469.5L83.16 469.5" fill="transparent" stroke="#6E7079" class="zr2-cls-14"></path>
<path d="M88.16 344.5L83.16 344.5" fill="transparent" stroke="#6E7079" class="zr2-cls-14"></path>
<path d="M88.16 219.5L83.16 219.5" fill="transparent" stroke="#6E7079" class="zr2-cls-14"></path>
<path d="M88.16 94.5L83.16 94.5" fill="transparent" stroke="#6E7079" class="zr2-cls-14"></path>
<path d="M88.5 719L88.5 724" fill="transparent" stroke="#6E7079" class="zr2-cls-14"></path>
<path d="M239.5 719L239.5 724" fill="transparent" stroke="#6E7079" class="zr2-cls-14"></path>
<path d="M389.5 719L389.5 724" fill="transparent" stroke="#6E7079" class="zr2-cls-14"></path>
<path d="M540.5 719L540.5 724" fill="transparent" stroke="#6E7079" class="zr2-cls-14"></path>
<path d="M690.5 719L690.5 724" fill="transparent" stroke="#6E7079" class="zr2-cls-14"></path>
<path d="M841.5 719L841.5 724" fill="transparent" stroke="#6E7079" class="zr2-cls-14"></path>
<path d="M992.5 719L992.5 724" fill="transparent" stroke="#6E7079" class="zr2-cls-14"></path>
<text dominant-baseline="central" text-anchor="end" style="font-size:12px;font-family:Microsoft YaHei;" transform="translate(80.16 719)" fill="#6E7079">0.5</text>
<text dominant-baseline="central" text-anchor="end" style="font-size:12px;font-family:Microsoft YaHei;" transform="translate(80.16 594.136)" fill="#6E7079">0.6</text>
<text dominant-baseline="central" text-anchor="end" style="font-size:12px;font-family:Microsoft YaHei;" transform="translate(80.16 469.272)" fill="#6E7079">0.7</text>
<text dominant-baseline="central" text-anchor="end" style="font-size:12px;font-family:Microsoft YaHei;" transform="translate(80.16 344.408)" fill="#6E7079">0.8</text>
<text dominant-baseline="central" text-anchor="end" style="font-size:12px;font-family:Microsoft YaHei;" transform="translate(80.16 219.544)" fill="#6E7079">0.9</text>
<text dominant-baseline="central" text-anchor="end" style="font-size:12px;font-family:Microsoft YaHei;" transform="translate(80.16 94.68)" fill="#6E7079">1</text>
<text dominant-baseline="central" text-anchor="middle" style="font-size:12px;font-family:Microsoft YaHei;" y="6" transform="translate(88.16 727)" fill="#6E7079">0</text>
<text dominant-baseline="central" text-anchor="middle" style="font-size:12px;font-family:Microsoft YaHei;" y="6" transform="translate(238.7667 727)" fill="#6E7079">10,000</text>
<text dominant-baseline="central" text-anchor="middle" style="font-size:12px;font-family:Microsoft YaHei;" y="6" transform="translate(389.3733 727)" fill="#6E7079">20,000</text>
<text dominant-baseline="central" text-anchor="middle" style="font-size:12px;font-family:Microsoft YaHei;" y="6" transform="translate(539.98 727)" fill="#6E7079">30,000</text>
<text dominant-baseline="central" text-anchor="middle" style="font-size:12px;font-family:Microsoft YaHei;" y="6" transform="translate(690.5867 727)" fill="#6E7079">40,000</text>
<text dominant-baseline="central" text-anchor="middle" style="font-size:12px;font-family:Microsoft YaHei;" y="6" transform="translate(841.1933 727)" fill="#6E7079">50,000</text>
<text dominant-baseline="central" text-anchor="middle" style="font-size:12px;font-family:Microsoft YaHei;" y="6" transform="translate(991.8 727)" fill="#6E7079">60,000</text>
<path d="M1 0A1 1 0 1 1 1 -0.0001" transform="matrix(4.892,0,0,4.892,225.7994,315.0282)" fill="#5470c6" fill-opacity="0.8" class="zr2-cls-15"></path>
<path d="M1 0A1 1 0 1 1 1 -0.0001" transform="matrix(2.742,0,0,2.742,295.3044,118.2392)" fill="#5470c6" fill-opacity="0.8" class="zr2-cls-15"></path>
<path d="M1 0A1 1 0 1 1 1 -0.0001" transform="matrix(2.408,0,0,2.408,255.0472,483.6007)" fill="#5470c6" fill-opacity="0.8" class="zr2-cls-15"></path>
<path d="M1 0A1 1 0 1 1 1 -0.0001" transform="matrix(2.607,0,0,2.607,268.7976,94.68)" fill="#5470c6" fill-opacity="0.8" class="zr2-cls-15"></path>
<path d="M1 0A1 1 0 1 1 1 -0.0001" transform="matrix(5.039,0,0,5.039,209.9556,315.0282)" fill="#5470c6" fill-opacity="0.8" class="zr2-cls-15"></path>
<path d="M1 0A1 1 0 1 1 1 -0.0001" transform="matrix(4.949,0,0,4.949,212.0189,315.0282)" fill="#5470c6" fill-opacity="0.8" class="zr2-cls-15"></path>
<path d="M1 0A1 1 0 1 1 1 -0.0001" transform="matrix(5.047,0,0,5.047,215.9799,315.0282)" fill="#5470c6" fill-opacity="0.8" class="zr2-cls-15"></path>
<path d="M1 0A1 1 0 1 1 1 -0.0001" transform="matrix(5.019,0,0,5.019,201.2204,241.5788)" fill="#5470c6" fill-opacity="0.8" class="zr2-cls-15"></path>
<path d="M1 0A1 1 0 1 1 1 -0.0001" transform="matrix(2.776,0,0,2.776,337.399,117.803)" fill="#5470c6" fill-opacity="0.8" class="zr2-cls-15"></path>
<path d="M1 0A1 1 0 1 1 1 -0.0001" transform="matrix(2.198,0,0,2.198,239.354,565.8649)" fill="#5470c6" fill-opacity="0.8" class="zr2-cls-15"></path>
<path d="M1 0A1 1 0 1 1 1 -0.0001" transform="matrix(15.477,0,0,15.477,341.0135,241.5788)" fill="#91cc75" fill-opacity="0.8" class="zr2-cls-16"></path>
<path d="M1 0A1 1 0 1 1 1 -0.0001" transform="matrix(8.78,0,0,8.78,778.1343,151.4364)" fill="#91cc75" fill-opacity="0.8" class="zr2-cls-16"></path>
<path d="M1 0A1 1 0 1 1 1 -0.0001" transform="matrix(8.706,0,0,8.706,915.9093,117.803)" fill="#91cc75" fill-opacity="0.8" class="zr2-cls-16"></path>
<path d="M1 0A1 1 0 1 1 1 -0.0001" transform="matrix(15.695,0,0,15.695,431.5583,388.4776)" fill="#91cc75" fill-opacity="0.8" class="zr2-cls-16"></path>
<path d="M1 0A1 1 0 1 1 1 -0.0001" transform="matrix(15.961,0,0,15.961,411.6481,94.68)" fill="#91cc75" fill-opacity="0.8" class="zr2-cls-16"></path>
<path d="M1 0A1 1 0 1 1 1 -0.0001" transform="matrix(14.877,0,0,14.877,401.9641,535.3765)" fill="#91cc75" fill-opacity="0.8" class="zr2-cls-16"></path>
<path d="M1 0A1 1 0 1 1 1 -0.0001" transform="matrix(7.27,0,0,7.27,738.1332,607.5143)" fill="#91cc75" fill-opacity="0.8" class="zr2-cls-16"></path>
<path d="M1 0A1 1 0 1 1 1 -0.0001" transform="matrix(8.963,0,0,8.963,778.6163,94.68)" fill="#91cc75" fill-opacity="0.8" class="zr2-cls-16"></path>
<path d="M1 0A1 1 0 1 1 1 -0.0001" transform="matrix(15.926,0,0,15.926,479.7825,315.0282)" fill="#91cc75" fill-opacity="0.8" class="zr2-cls-16"></path>
<path d="M1 0A1 1 0 1 1 1 -0.0001" transform="matrix(7.684,0,0,7.684,578.204,179.8145)" fill="#91cc75" fill-opacity="0.8" class="zr2-cls-16"></path>
<path d="M1 0A1 1 0 1 1 1 -0.0001" transform="matrix(3.734,0,0,3.734,272.9393,388.4776)" fill="#fac858" fill-opacity="0.8" class="zr2-cls-17"></path>
<path d="M1 0A1 1 0 1 1 1 -0.0001" transform="matrix(1.483,0,0,1.483,383.2436,616.8385)" fill="#fac858" fill-opacity="0.8" class="zr2-cls-17"></path>
<path d="M1 0A1 1 0 1 1 1 -0.0001" transform="matrix(1.694,0,0,1.694,460.791,94.68)" fill="#fac858" fill-opacity="0.8" class="zr2-cls-17"></path>
<path d="M1 0A1 1 0 1 1 1 -0.0001" transform="matrix(1.804,0,0,1.804,548.3085,140.9259)" fill="#fac858" fill-opacity="0.8" class="zr2-cls-17"></path>
<path d="M1 0A1 1 0 1 1 1 -0.0001" transform="matrix(1.583,0,0,1.583,431.0763,94.68)" fill="#fac858" fill-opacity="0.8" class="zr2-cls-17"></path>
<path d="M1 0A1 1 0 1 1 1 -0.0001" transform="matrix(3.727,0,0,3.727,279.2648,388.4776)" fill="#fac858" fill-opacity="0.8" class="zr2-cls-17"></path>
<path d="M1 0A1 1 0 1 1 1 -0.0001" transform="matrix(1.823,0,0,1.823,579.6347,164.0489)" fill="#fac858" fill-opacity="0.8" class="zr2-cls-17"></path>
<path d="M1 0A1 1 0 1 1 1 -0.0001" transform="matrix(3.631,0,0,3.631,283.9336,388.4776)" fill="#fac858" fill-opacity="0.8" class="zr2-cls-17"></path>
<path d="M1 0A1 1 0 1 1 1 -0.0001" transform="matrix(3.342,0,0,3.342,282.3824,241.5788)" fill="#fac858" fill-opacity="0.8" class="zr2-cls-17"></path>
<path d="M1 0A1 1 0 1 1 1 -0.0001" transform="matrix(3.725,0,0,3.725,288.3916,388.4776)" fill="#fac858" fill-opacity="0.8" class="zr2-cls-17"></path>
<path d="M1 0A1 1 0 1 1 1 -0.0001" transform="matrix(17.207,0,0,17.207,309.9283,241.5788)" fill="#ee6666" fill-opacity="0.8" class="zr2-cls-18"></path>
<path d="M1 0A1 1 0 1 1 1 -0.0001" transform="matrix(7.322,0,0,7.322,430.6245,94.68)" fill="#ee6666" fill-opacity="0.8" class="zr2-cls-18"></path>
<path d="M1 0A1 1 0 1 1 1 -0.0001" transform="matrix(17.468,0,0,17.468,309.4464,168.1294)" fill="#ee6666" fill-opacity="0.8" class="zr2-cls-18"></path>
<path d="M1 0A1 1 0 1 1 1 -0.0001" transform="matrix(8.769,0,0,8.769,491.5298,117.803)" fill="#ee6666" fill-opacity="0.8" class="zr2-cls-18"></path>
<path d="M1 0A1 1 0 1 1 1 -0.0001" transform="matrix(8.811,0,0,8.811,509.1207,94.68)" fill="#ee6666" fill-opacity="0.8" class="zr2-cls-18"></path>
<path d="M1 0A1 1 0 1 1 1 -0.0001" transform="matrix(17.176,0,0,17.176,322.76,241.5788)" fill="#ee6666" fill-opacity="0.8" class="zr2-cls-18"></path>
<path d="M1 0A1 1 0 1 1 1 -0.0001" transform="matrix(7.749,0,0,7.749,421.7989,94.68)" fill="#ee6666" fill-opacity="0.8" class="zr2-cls-18"></path>
<path d="M1 0A1 1 0 1 1 1 -0.0001" transform="matrix(17.488,0,0,17.488,332.6398,241.5788)" fill="#ee6666" fill-opacity="0.8" class="zr2-cls-18"></path>
<path d="M1 0A1 1 0 1 1 1 -0.0001" transform="matrix(8.31,0,0,8.31,449.0889,94.68)" fill="#ee6666" fill-opacity="0.8" class="zr2-cls-18"></path>
<path d="M1 0A1 1 0 1 1 1 -0.0001" transform="matrix(17.49,0,0,17.49,332.203,168.1294)" fill="#ee6666" fill-opacity="0.8" class="zr2-cls-18"></path>
<path d="M1 0A1 1 0 1 1 1 -0.0001" transform="matrix(3.669,0,0,3.669,601.7287,187.1719)" fill="#73c0de" fill-opacity="0.8" class="zr2-cls-19"></path>
<path d="M1 0A1 1 0 1 1 1 -0.0001" transform="matrix(7.328,0,0,7.328,288.1807,241.5788)" fill="#73c0de" fill-opacity="0.8" class="zr2-cls-19"></path>
<path d="M1 0A1 1 0 1 1 1 -0.0001" transform="matrix(7.336,0,0,7.336,332.7452,241.5788)" fill="#73c0de" fill-opacity="0.8" class="zr2-cls-19"></path>
<path d="M1 0A1 1 0 1 1 1 -0.0001" transform="matrix(7.336,0,0,7.336,331.7211,241.5788)" fill="#73c0de" fill-opacity="0.8" class="zr2-cls-19"></path>
<path d="M1 0A1 1 0 1 1 1 -0.0001" transform="matrix(3.232,0,0,3.232,463.0501,94.68)" fill="#73c0de" fill-opacity="0.8" class="zr2-cls-19"></path>
<path d="M1 0A1 1 0 1 1 1 -0.0001" transform="matrix(7.219,0,0,7.219,322.5341,94.68)" fill="#73c0de" fill-opacity="0.8" class="zr2-cls-19"></path>
<path d="M1 0A1 1 0 1 1 1 -0.0001" transform="matrix(3.672,0,0,3.672,606.1415,140.9259)" fill="#73c0de" fill-opacity="0.8" class="zr2-cls-19"></path>
<path d="M1 0A1 1 0 1 1 1 -0.0001" transform="matrix(3.428,0,0,3.428,481.5747,94.68)" fill="#73c0de" fill-opacity="0.8" class="zr2-cls-19"></path>
<path d="M1 0A1 1 0 1 1 1 -0.0001" transform="matrix(7.205,0,0,7.205,296.1026,241.5788)" fill="#73c0de" fill-opacity="0.8" class="zr2-cls-19"></path>
<path d="M1 0A1 1 0 1 1 1 -0.0001" transform="matrix(3.047,0,0,3.047,443.8478,94.68)" fill="#73c0de" fill-opacity="0.8" class="zr2-cls-19"></path>
<path d="M-5 -5l1049.7246 0l0 24l-1049.7246 0Z" transform="translate(31.1377 28.67)" fill="rgb(0,0,0)" fill-opacity="0" stroke="#ccc" stroke-width="0" class="zr2-cls-14"></path>
<path d="M19.5 7A7 7 0 1 1 19.5 6.9993" transform="translate(25.6377 28.67)" fill="#5470c6" fill-opacity="0.8" class="zr2-cls-14"></path>
<text dominant-baseline="central" text-anchor="start" style="font-size:12px;font-family:Microsoft YaHei;" x="30" y="7" transform="translate(25.6377 28.67)" fill="#333">gemini-1.5-flash-latest</text>
<path d="M5.5 0l154.5078 0l0 14l-154.5078 0Z" transform="translate(25.6377 28.67)" fill="transparent" class="zr2-cls-20"></path>
<path d="M19.5 7A7 7 0 1 1 19.5 6.9993" transform="translate(190.1455 28.67)" fill="#91cc75" fill-opacity="0.8" class="zr2-cls-14"></path>
<text dominant-baseline="central" text-anchor="start" style="font-size:12px;font-family:Microsoft YaHei;" x="30" y="7" transform="translate(190.1455 28.67)" fill="#333">gemini-1.5-pro-latest</text>
<path d="M5.5 0l147.2832 0l0 14l-147.2832 0Z" transform="translate(190.1455 28.67)" fill="transparent" class="zr2-cls-20"></path>
<path d="M19.5 7A7 7 0 1 1 19.5 6.9993" transform="translate(347.4287 28.67)" fill="#fac858" fill-opacity="0.8" class="zr2-cls-14"></path>
<text dominant-baseline="central" text-anchor="start" style="font-size:12px;font-family:Microsoft YaHei;" x="30" y="7" transform="translate(347.4287 28.67)" fill="#333">gpt-4o-mini</text>
<path d="M5.5 0l93.6699 0l0 14l-93.6699 0Z" transform="translate(347.4287 28.67)" fill="transparent" class="zr2-cls-20"></path>
<path d="M19.5 7A7 7 0 1 1 19.5 6.9993" transform="translate(451.0986 28.67)" fill="#ee6666" fill-opacity="0.8" class="zr2-cls-14"></path>
<text dominant-baseline="central" text-anchor="start" style="font-size:12px;font-family:Microsoft YaHei;" x="30" y="7" transform="translate(451.0986 28.67)" fill="#333">meta-llama/Meta-Llama-3.1-405B-Instruct-Turbo</text>
<path d="M5.5 0l305.6504 0l0 14l-305.6504 0Z" transform="translate(451.0986 28.67)" fill="transparent" class="zr2-cls-20"></path>
<path d="M19.5 7A7 7 0 1 1 19.5 6.9993" transform="translate(766.749 28.67)" fill="#73c0de" fill-opacity="0.8" class="zr2-cls-14"></path>
<text dominant-baseline="central" text-anchor="start" style="font-size:12px;font-family:Microsoft YaHei;" x="30" y="7" transform="translate(766.749 28.67)" fill="#333">meta-llama/Meta-Llama-3.1-70B-Instruct-Turbo</text>
<path d="M5.5 0l298.6133 0l0 14l-298.6133 0Z" transform="translate(766.749 28.67)" fill="transparent" class="zr2-cls-20"></path>
<style ><![CDATA[
.zr2-cls-14:hover {
pointer-events:none;
}
.zr2-cls-15:hover {
cursor:pointer;
fill:rgba(92,123,217,1);
}
.zr2-cls-16:hover {
cursor:pointer;
fill:rgba(159,224,128,1);
}
.zr2-cls-17:hover {
cursor:pointer;
fill:rgba(255,220,96,1);
}
.zr2-cls-18:hover {
cursor:pointer;
fill:rgba(255,112,112,1);
}
.zr2-cls-19:hover {
cursor:pointer;
fill:rgba(126,211,244,1);
}
.zr2-cls-20:hover {
cursor:pointer;
fill:rgba(0,0,0,0);
}

]]>

</style>
</svg>