<svg width="1102" height="789" xmlns="http://www.w3.org/2000/svg" xmlns:xlink="http://www.w3.org/1999/xlink" version="1.1" baseProfile="full" viewBox="0 0 1102 789">
<rect width="1102" height="789" x="0" y="0" fill="#100C2A"></rect>
<path d="M88.16 719.5L991.8 719.5" fill="transparent" stroke="#484753" stroke-dasharray="4,2" class="zr1-cls-7"></path>
<path d="M88.16 594.5L991.8 594.5" fill="transparent" stroke="#484753" stroke-dasharray="4,2" class="zr1-cls-7"></path>
<path d="M88.16 469.5L991.8 469.5" fill="transparent" stroke="#484753" stroke-dasharray="4,2" class="zr1-cls-7"></path>
<path d="M88.16 344.5L991.8 344.5" fill="transparent" stroke="#484753" stroke-dasharray="4,2" class="zr1-cls-7"></path>
<path d="M88.16 219.5L991.8 219.5" fill="transparent" stroke="#484753" stroke-dasharray="4,2" class="zr1-cls-7"></path>
<path d="M88.16 94.5L991.8 94.5" fill="transparent" stroke="#484753" stroke-dasharray="4,2" class="zr1-cls-7"></path>
<path d="M88.5 94.68L88.5 719" fill="transparent" stroke="#484753" stroke-dasharray="4,2" class="zr1-cls-7"></path>
<path d="M269.5 94.68L269.5 719" fill="transparent" stroke="#484753" stroke-dasharray="4,2" class="zr1-cls-7"></path>
<path d="M449.5 94.68L449.5 719" fill="transparent" stroke="#484753" stroke-dasharray="4,2" class="zr1-cls-7"></path>
<path d="M630.5 94.68L630.5 719" fill="transparent" stroke="#484753" stroke-dasharray="4,2" class="zr1-cls-7"></path>
<path d="M811.5 94.68L811.5 719" fill="transparent" stroke="#484753" stroke-dasharray="4,2" class="zr1-cls-7"></path>
<path d="M992.5 94.68L992.5 719" fill="transparent" stroke="#484753" stroke-dasharray="4,2" class="zr1-cls-7"></path>
<path d="M88.5 719L88.5 94.68" fill="transparent" stroke="#B9B8CE" stroke-linecap="round" class="zr1-cls-7"></path>
<path d="M88.16 719.5L991.8 719.5" fill="transparent" stroke="#B9B8CE" stroke-linecap="round" class="zr1-cls-7"></path>
<path d="M88.16 719.5L83.16 719.5" fill="transparent" stroke="#B9B8CE" class="zr1-cls-7"></path>
<path d="M88.16 594.5L83.16 594.5" fill="transparent" stroke="#B9B8CE" class="zr1-cls-7"></path>
<path d="M88.16 469.5L83.16 469.5" fill="transparent" stroke="#B9B8CE" class="zr1-cls-7"></path>
<path d="M88.16 344.5L83.16 344.5" fill="transparent" stroke="#B9B8CE" class="zr1-cls-7"></path>
<path d="M88.16 219.5L83.16 219.5" fill="transparent" stroke="#B9B8CE" class="zr1-cls-7"></path>
<path d="M88.16 94.5L83.16 94.5" fill="transparent" stroke="#B9B8CE" class="zr1-cls-7"></path>
<path d="M88.5 719L88.5 724" fill="transparent" stroke="#B9B8CE" class="zr1-cls-7"></path>
<path d="M269.5 719L269.5 724" fill="transparent" stroke="#B9B8CE" class="zr1-cls-7"></path>
<path d="M449.5 719L449.5 724" fill="transparent" stroke="#B9B8CE" class="zr1-cls-7"></path>
<path d="M630.5 719L630.5 724" fill="transparent" stroke="#B9B8CE" class="zr1-cls-7"></path>
<path d="M811.5 719L811.5 724" fill="transparent" stroke="#B9B8CE" class="zr1-cls-7"></path>
<path d="M992.5 719L992.5 724" fill="transparent" stroke="#B9B8CE" class="zr1-cls-7"></path>
<text dominant-baseline="central" text-anchor="end" style="font-size:12px;font-family:Microsoft YaHei;" transform="translate(80.16 719)" fill="#B9B8CE">0.5</text>
<text dominant-baseline="central" text-anchor="end" style="font-size:12px;font-family:Microsoft YaHei;" transform="translate(80.16 594.136)" fill="#B9B8CE">0.6</text>
<text dominant-baseline="central" text-anchor="end" style="font-size:12px;font-family:Microsoft YaHei;" transform="translate(80.16 469.272)" fill="#B9B8CE">0.7</text>
<text dominant-baseline="central" text-anchor="end" style="font-size:12px;font-family:Microsoft YaHei;" transform="translate(80.16 344.408)" fill="#B9B8CE">0.8</text>
<text dominant-baseline="central" text-anchor="end" style="font-size:12px;font-family:Microsoft YaHei;" transform="translate(80.16 219.544)" fill="#B9B8CE">0.9</text>
<text dominant-baseline="central" text-anchor="end" style="font-size:12px;font-family:Microsoft YaHei;" transform="translate(80.16 94.68)" fill="#B9B8CE">1</text>
<text dominant-baseline="central" text-anchor="middle" style="font-size:12px;font-family:Microsoft YaHei;" y="6" transform="translate(88.16 727)" fill="#B9B8CE">10,000</text>
<text dominant-baseline="central" text-anchor="middle" style="font-size:12px;font-family:Microsoft YaHei;" y="6" transform="translate(268.888 727)" fill="#B9B8CE">20,000</text>
<text dominant-baseline="central" text-anchor="middle" style="font-size:12px;font-family:Microsoft YaHei;" y="6" transform="translate(449.616 727)" fill="#B9B8CE">30,000</text>
<text dominant-baseline="central" text-anchor="middle" style="font-size:12px;font-family:Microsoft YaHei;" y="6" transform="translate(630.344 727)" fill="#B9B8CE">40,000</text>
<text dominant-baseline="central" text-anchor="middle" style="font-size:12px;font-family:Microsoft YaHei;" y="6" transform="translate(811.072 727)" fill="#B9B8CE">50,000</text>
<text dominant-baseline="central" text-anchor="middle" style="font-size:12px;font-family:Microsoft YaHei;" y="6" transform="translate(991.8 727)" fill="#B9B8CE">60,000</text>
<path d="M1 0A1 1 0 1 1 1 -0.0001" transform="matrix(2.742,0,0,2.742,156.0053,118.2392)" fill="rgb(73,146,255)" fill-opacity="0.8" class="zr1-cls-8"></path>
<path d="M1 0A1 1 0 1 1 1 -0.0001" transform="matrix(2.408,0,0,2.408,107.6967,483.6007)" fill="rgb(73,146,255)" fill-opacity="0.8" class="zr1-cls-8"></path>
<path d="M1 0A1 1 0 1 1 1 -0.0001" transform="matrix(2.607,0,0,2.607,124.1972,94.68)" fill="rgb(73,146,255)" fill-opacity="0.8" class="zr1-cls-8"></path>
<path d="M1 0A1 1 0 1 1 1 -0.0001" transform="matrix(2.776,0,0,2.776,206.5188,117.803)" fill="rgb(73,146,255)" fill-opacity="0.8" class="zr1-cls-8"></path>
<path d="M1 0A1 1 0 1 1 1 -0.0001" transform="matrix(2.198,0,0,2.198,88.8648,565.8649)" fill="rgb(73,146,255)" fill-opacity="0.8" class="zr1-cls-8"></path>
<path d="M1 0A1 1 0 1 1 1 -0.0001" transform="matrix(8.78,0,0,8.78,735.4012,151.4364)" fill="#7cffb2" fill-opacity="0.8" class="zr1-cls-9"></path>
<path d="M1 0A1 1 0 1 1 1 -0.0001" transform="matrix(8.706,0,0,8.706,900.7312,117.803)" fill="#7cffb2" fill-opacity="0.8" class="zr1-cls-9"></path>
<path d="M1 0A1 1 0 1 1 1 -0.0001" transform="matrix(7.27,0,0,7.27,687.3998,607.5143)" fill="#7cffb2" fill-opacity="0.8" class="zr1-cls-9"></path>
<path d="M1 0A1 1 0 1 1 1 -0.0001" transform="matrix(8.963,0,0,8.963,735.9795,94.68)" fill="#7cffb2" fill-opacity="0.8" class="zr1-cls-9"></path>
<path d="M1 0A1 1 0 1 1 1 -0.0001" transform="matrix(7.684,0,0,7.684,495.4848,179.8145)" fill="#7cffb2" fill-opacity="0.8" class="zr1-cls-9"></path>
<path d="M1 0A1 1 0 1 1 1 -0.0001" transform="matrix(1.483,0,0,1.483,261.5324,616.8385)" fill="#fddd60" fill-opacity="0.8" class="zr1-cls-10"></path>
<path d="M1 0A1 1 0 1 1 1 -0.0001" transform="matrix(1.694,0,0,1.694,354.5892,94.68)" fill="#fddd60" fill-opacity="0.8" class="zr1-cls-10"></path>
<path d="M1 0A1 1 0 1 1 1 -0.0001" transform="matrix(1.804,0,0,1.804,459.6103,140.9259)" fill="#fddd60" fill-opacity="0.8" class="zr1-cls-10"></path>
<path d="M1 0A1 1 0 1 1 1 -0.0001" transform="matrix(1.583,0,0,1.583,318.9316,94.68)" fill="#fddd60" fill-opacity="0.8" class="zr1-cls-10"></path>
<path d="M1 0A1 1 0 1 1 1 -0.0001" transform="matrix(1.823,0,0,1.823,497.2017,164.0489)" fill="#fddd60" fill-opacity="0.8" class="zr1-cls-10"></path>
<path d="M1 0A1 1 0 1 1 1 -0.0001" transform="matrix(7.322,0,0,7.322,318.3894,94.68)" fill="#ff6e76" fill-opacity="0.8" class="zr1-cls-11"></path>
<path d="M1 0A1 1 0 1 1 1 -0.0001" transform="matrix(8.769,0,0,8.769,391.4758,117.803)" fill="#ff6e76" fill-opacity="0.8" class="zr1-cls-11"></path>
<path d="M1 0A1 1 0 1 1 1 -0.0001" transform="matrix(8.811,0,0,8.811,412.5848,94.68)" fill="#ff6e76" fill-opacity="0.8" class="zr1-cls-11"></path>
<path d="M1 0A1 1 0 1 1 1 -0.0001" transform="matrix(7.749,0,0,7.749,307.7987,94.68)" fill="#ff6e76" fill-opacity="0.8" class="zr1-cls-11"></path>
<path d="M1 0A1 1 0 1 1 1 -0.0001" transform="matrix(8.31,0,0,8.31,340.5467,94.68)" fill="#ff6e76" fill-opacity="0.8" class="zr1-cls-11"></path>
<path d="M1 0A1 1 0 1 1 1 -0.0001" transform="matrix(3.669,0,0,3.669,523.7145,187.1719)" fill="#58d9f9" fill-opacity="0.8" class="zr1-cls-12"></path>
<path d="M1 0A1 1 0 1 1 1 -0.0001" transform="matrix(3.232,0,0,3.232,357.3001,94.68)" fill="#58d9f9" fill-opacity="0.8" class="zr1-cls-12"></path>
<path d="M1 0A1 1 0 1 1 1 -0.0001" transform="matrix(3.672,0,0,3.672,529.0098,140.9259)" fill="#58d9f9" fill-opacity="0.8" class="zr1-cls-12"></path>
<path d="M1 0A1 1 0 1 1 1 -0.0001" transform="matrix(3.428,0,0,3.428,379.5297,94.68)" fill="#58d9f9" fill-opacity="0.8" class="zr1-cls-12"></path>
<path d="M1 0A1 1 0 1 1 1 -0.0001" transform="matrix(3.047,0,0,3.047,334.2573,94.68)" fill="#58d9f9" fill-opacity="0.8" class="zr1-cls-12"></path>
<path d="M-5 -5l1049.7246 0l0 24l-1049.7246 0Z" transform="translate(31.1377 28.67)" fill="rgb(0,0,0)" fill-opacity="0" stroke="#ccc" stroke-width="0" class="zr1-cls-7"></path>
<path d="M19.5 7A7 7 0 1 1 19.5 6.9993" transform="translate(25.6377 28.67)" fill="#4992ff" fill-opacity="0.8" class="zr1-cls-7"></path>
<text dominant-baseline="central" text-anchor="start" style="font-size:12px;font-family:Microsoft YaHei;" x="30" y="7" transform="translate(25.6377 28.67)" fill="#B9B8CE">gemini-1.5-flash-latest</text>
<path d="M5.5 0l154.5078 0l0 14l-154.5078 0Z" transform="translate(25.6377 28.67)" fill="transparent" class="zr1-cls-13"></path>
<path d="M19.5 7A7 7 0 1 1 19.5 6.9993" transform="translate(190.1455 28.67)" fill="#7cffb2" fill-opacity="0.8" class="zr1-cls-7"></path>
<text dominant-baseline="central" text-anchor="start" style="font-size:12px;font-family:Microsoft YaHei;" x="30" y="7" transform="translate(190.1455 28.67)" fill="#B9B8CE">gemini-1.5-pro-latest</text>
<path d="M5.5 0l147.2832 0l0 14l-147.2832 0Z" transform="translate(190.1455 28.67)" fill="transparent" class="zr1-cls-13"></path>
<path d="M19.5 7A7 7 0 1 1 19.5 6.9993" transform="translate(347.4287 28.67)" fill="#fddd60" fill-opacity="0.8" class="zr1-cls-7"></path>
<text dominant-baseline="central" text-anchor="start" style="font-size:12px;font-family:Microsoft YaHei;" x="30" y="7" transform="translate(347.4287 28.67)" fill="#B9B8CE">gpt-4o-mini</text>
<path d="M5.5 0l93.6699 0l0 14l-93.6699 0Z" transform="translate(347.4287 28.67)" fill="transparent" class="zr1-cls-13"></path>
<path d="M19.5 7A7 7 0 1 1 19.5 6.9993" transform="translate(451.0986 28.67)" fill="#ff6e76" fill-opacity="0.8" class="zr1-cls-7"></path>
<text dominant-baseline="central" text-anchor="start" style="font-size:12px;font-family:Microsoft YaHei;" x="30" y="7" transform="translate(451.0986 28.67)" fill="#B9B8CE">meta-llama/Meta-Llama-3.1-405B-Instruct-Turbo</text>
<path d="M5.5 0l305.6504 0l0 14l-305.6504 0Z" transform="translate(451.0986 28.67)" fill="transparent" class="zr1-cls-13"></path>
<path d="M19.5 7A7 7 0 1 1 19.5 6.9993" transform="translate(766.749 28.67)" fill="#58d9f9" fill-opacity="0.8" class="zr1-cls-7"></path>
<text dominant-baseline="central" text-anchor="start" style="font-size:12px;font-family:Microsoft YaHei;" x="30" y="7" transform="translate(766.749 28.67)" fill="#B9B8CE">meta-llama/Meta-Llama-3.1-70B-Instruct-Turbo</text>
<path d="M5.5 0l298.6133 0l0 14l-298.6133 0Z" transform="translate(766.749 28.67)" fill="transparent" class="zr1-cls-13"></path>
<style ><![CDATA[
.zr1-cls-7:hover {
pointer-events:none;
}
.zr1-cls-8:hover {
cursor:pointer;
fill:rgba(80,160,255,1);
}
.zr1-cls-9:hover {
cursor:pointer;
fill:rgba(136,255,195,1);
}
.zr1-cls-10:hover {
cursor:pointer;
fill:rgba(255,243,105,1);
}
.zr1-cls-11:hover {
cursor:pointer;
fill:rgba(255,121,129,1);
}
.zr1-cls-12:hover {
cursor:pointer;
fill:rgba(96,238,255,1);
}
.zr1-cls-13:hover {
cursor:pointer;
fill:rgba(0,0,0,0);
}

]]>

</style>
</svg>