<svg width="1102" height="789" xmlns="http://www.w3.org/2000/svg" xmlns:xlink="http://www.w3.org/1999/xlink" version="1.1" baseProfile="full" viewBox="0 0 1102 789">
<rect width="1102" height="789" x="0" y="0" fill="none"></rect>
<path d="M88.16 719.5L991.8 719.5" fill="transparent" stroke="#E0E6F1" stroke-dasharray="4,2" class="zr0-cls-0"></path>
<path d="M88.16 563.5L991.8 563.5" fill="transparent" stroke="#E0E6F1" stroke-dasharray="4,2" class="zr0-cls-0"></path>
<path d="M88.16 407.5L991.8 407.5" fill="transparent" stroke="#E0E6F1" stroke-dasharray="4,2" class="zr0-cls-0"></path>
<path d="M88.16 251.5L991.8 251.5" fill="transparent" stroke="#E0E6F1" stroke-dasharray="4,2" class="zr0-cls-0"></path>
<path d="M88.16 94.5L991.8 94.5" fill="transparent" stroke="#E0E6F1" stroke-dasharray="4,2" class="zr0-cls-0"></path>
<path d="M88.5 94.68L88.5 719" fill="transparent" stroke="#E0E6F1" stroke-dasharray="4,2" class="zr0-cls-0"></path>
<path d="M217.5 94.68L217.5 719" fill="transparent" stroke="#E0E6F1" stroke-dasharray="4,2" class="zr0-cls-0"></path>
<path d="M346.5 94.68L346.5 719" fill="transparent" stroke="#E0E6F1" stroke-dasharray="4,2" class="zr0-cls-0"></path>
<path d="M475.5 94.68L475.5 719" fill="transparent" stroke="#E0E6F1" stroke-dasharray="4,2" class="zr0-cls-0"></path>
<path d="M604.5 94.68L604.5 719" fill="transparent" stroke="#E0E6F1" stroke-dasharray="4,2" class="zr0-cls-0"></path>
<path d="M733.5 94.68L733.5 719" fill="transparent" stroke="#E0E6F1" stroke-dasharray="4,2" class="zr0-cls-0"></path>
<path d="M862.5 94.68L862.5 719" fill="transparent" stroke="#E0E6F1" stroke-dasharray="4,2" class="zr0-cls-0"></path>
<path d="M992.5 94.68L992.5 719" fill="transparent" stroke="#E0E6F1" stroke-dasharray="4,2" class="zr0-cls-0"></path>
<path d="M88.5 719L88.5 94.68" fill="transparent" stroke="#6E7079" stroke-linecap="round" class="zr0-cls-0"></path>
<path d="M88.16 719.5L991.8 719.5" fill="transparent" stroke="#6E7079" stroke-linecap="round" class="zr0-cls-0"></path>
<path d="M88.16 719.5L83.16 719.5" fill="transparent" stroke="#6E7079" class="zr0-cls-0"></path>
<path d="M88.16 563.5L83.16 563.5" fill="transparent" stroke="#6E7079" class="zr0-cls-0"></path>
<path d="M88.16 407.5L83.16 407.5" fill="transparent" stroke="#6E7079" class="zr0-cls-0"></path>
<path d="M88.16 251.5L83.16 251.5" fill="transparent" stroke="#6E7079" class="zr0-cls-0"></path>
<path d="M88.16 94.5L83.16 94.5" fill="transparent" stroke="#6E7079" class="zr0-cls-0"></path>
<path d="M88.5 719L88.5 724" fill="transparent" stroke="#6E7079" class="zr0-cls-0"></path>
<path d="M217.5 719L217.5 724" fill="transparent" stroke="#6E7079" class="zr0-cls-0"></path>
<path d="M346.5 719L346.5 724" fill="transparent" stroke="#6E7079" class="zr0-cls-0"></path>
<path d="M475.5 719L475.5 724" fill="transparent" stroke="#6E7079" class="zr0-cls-0"></path>
<path d="M604.5 719L604.5 724" fill="transparent" stroke="#6E7079" class="zr0-cls-0"></path>
<path d="M733.5 719L733.5 724" fill="transparent" stroke="#6E7079" class="zr0-cls-0"></path>
<path d="M862.5 719L862.5 724" fill="transparent" stroke="#6E7079" class="zr0-cls-0"></path>
<path d="M992.5 719L992.5 724" fill="transparent" stroke="#6E7079" class="zr0-cls-0"></path>
<text dominant-baseline="central" text-anchor="end" style="font-size:12px;font-family:Microsoft YaHei;" transform="translate(80.16 719)" fill="#6E7079">0.6</text>
<text dominant-baseline="central" text-anchor="end" style="font-size:12px;font-family:Microsoft YaHei;" transform="translate(80.16 562.92)" fill="#6E7079">0.7</text>
<text dominant-baseline="central" text-anchor="end" style="font-size:12px;font-family:Microsoft YaHei;" transform="translate(80.16 406.84)" fill="#6E7079">0.8</text>
<text dominant-baseline="central" text-anchor="end" style="font-size:12px;font-family:Microsoft YaHei;" transform="translate(80.16 250.76)" fill="#6E7079">0.9</text>
<text dominant-baseline="central" text-anchor="end" style="font-size:12px;font-family:Microsoft YaHei;" transform="translate(80.16 94.68)" fill="#6E7079">1</text>
<text dominant-baseline="central" text-anchor="middle" style="font-size:12px;font-family:Microsoft YaHei;" y="6" transform="translate(88.16 727)" fill="#6E7079">6,000</text>
<text dominant-baseline="central" text-anchor="middle" style="font-size:12px;font-family:Microsoft YaHei;" y="6" transform="translate(217.2514 727)" fill="#6E7079">9,000</text>
<text dominant-baseline="central" text-anchor="middle" style="font-size:12px;font-family:Microsoft YaHei;" y="6" transform="translate(346.3429 727)" fill="#6E7079">12,000</text>
<text dominant-baseline="central" text-anchor="middle" style="font-size:12px;font-family:Microsoft YaHei;" y="6" transform="translate(475.4343 727)" fill="#6E7079">15,000</text>
<text dominant-baseline="central" text-anchor="middle" style="font-size:12px;font-family:Microsoft YaHei;" y="6" transform="translate(604.5257 727)" fill="#6E7079">18,000</text>
<text dominant-baseline="central" text-anchor="middle" style="font-size:12px;font-family:Microsoft YaHei;" y="6" transform="translate(733.6171 727)" fill="#6E7079">21,000</text>
<text dominant-baseline="central" text-anchor="middle" style="font-size:12px;font-family:Microsoft YaHei;" y="6" transform="translate(862.7086 727)" fill="#6E7079">24,000</text>
<text dominant-baseline="central" text-anchor="middle" style="font-size:12px;font-family:Microsoft YaHei;" y="6" transform="translate(991.8 727)" fill="#6E7079">27,000</text>
<path d="M1 0A1 1 0 1 1 1 -0.0001" transform="matrix(4.892,0,0,4.892,223.2327,370.1153)" fill="#5470c6" fill-opacity="0.8" class="zr0-cls-1"></path>
<path d="M1 0A1 1 0 1 1 1 -0.0001" transform="matrix(5.039,0,0,5.039,177.9646,370.1153)" fill="#5470c6" fill-opacity="0.8" class="zr0-cls-1"></path>
<path d="M1 0A1 1 0 1 1 1 -0.0001" transform="matrix(4.949,0,0,4.949,183.8598,370.1153)" fill="#5470c6" fill-opacity="0.8" class="zr0-cls-1"></path>
<path d="M1 0A1 1 0 1 1 1 -0.0001" transform="matrix(5.047,0,0,5.047,195.1768,370.1153)" fill="#5470c6" fill-opacity="0.8" class="zr0-cls-1"></path>
<path d="M1 0A1 1 0 1 1 1 -0.0001" transform="matrix(5.019,0,0,5.019,153.0069,278.3035)" fill="#5470c6" fill-opacity="0.8" class="zr0-cls-1"></path>
<path d="M1 0A1 1 0 1 1 1 -0.0001" transform="matrix(15.477,0,0,15.477,552.4158,278.3035)" fill="#91cc75" fill-opacity="0.8" class="zr0-cls-2"></path>
<path d="M1 0A1 1 0 1 1 1 -0.0001" transform="matrix(15.695,0,0,15.695,811.115,461.9271)" fill="#91cc75" fill-opacity="0.8" class="zr0-cls-2"></path>
<path d="M1 0A1 1 0 1 1 1 -0.0001" transform="matrix(15.961,0,0,15.961,754.2287,94.68)" fill="#91cc75" fill-opacity="0.8" class="zr0-cls-2"></path>
<path d="M1 0A1 1 0 1 1 1 -0.0001" transform="matrix(14.877,0,0,14.877,726.5601,645.5506)" fill="#91cc75" fill-opacity="0.8" class="zr0-cls-2"></path>
<path d="M1 0A1 1 0 1 1 1 -0.0001" transform="matrix(15.926,0,0,15.926,948.8986,370.1153)" fill="#91cc75" fill-opacity="0.8" class="zr0-cls-2"></path>
<path d="M1 0A1 1 0 1 1 1 -0.0001" transform="matrix(3.734,0,0,3.734,357.9181,461.9271)" fill="#fac858" fill-opacity="0.8" class="zr0-cls-3"></path>
<path d="M1 0A1 1 0 1 1 1 -0.0001" transform="matrix(3.727,0,0,3.727,375.9909,461.9271)" fill="#fac858" fill-opacity="0.8" class="zr0-cls-3"></path>
<path d="M1 0A1 1 0 1 1 1 -0.0001" transform="matrix(3.631,0,0,3.631,389.3303,461.9271)" fill="#fac858" fill-opacity="0.8" class="zr0-cls-3"></path>
<path d="M1 0A1 1 0 1 1 1 -0.0001" transform="matrix(3.342,0,0,3.342,384.8982,278.3035)" fill="#fac858" fill-opacity="0.8" class="zr0-cls-3"></path>
<path d="M1 0A1 1 0 1 1 1 -0.0001" transform="matrix(3.725,0,0,3.725,402.0673,461.9271)" fill="#fac858" fill-opacity="0.8" class="zr0-cls-3"></path>
<path d="M1 0A1 1 0 1 1 1 -0.0001" transform="matrix(17.207,0,0,17.207,463.6009,278.3035)" fill="#ee6666" fill-opacity="0.8" class="zr0-cls-4"></path>
<path d="M1 0A1 1 0 1 1 1 -0.0001" transform="matrix(17.468,0,0,17.468,462.2239,186.4918)" fill="#ee6666" fill-opacity="0.8" class="zr0-cls-4"></path>
<path d="M1 0A1 1 0 1 1 1 -0.0001" transform="matrix(17.176,0,0,17.176,500.2629,278.3035)" fill="#ee6666" fill-opacity="0.8" class="zr0-cls-4"></path>
<path d="M1 0A1 1 0 1 1 1 -0.0001" transform="matrix(17.488,0,0,17.488,528.4909,278.3035)" fill="#ee6666" fill-opacity="0.8" class="zr0-cls-4"></path>
<path d="M1 0A1 1 0 1 1 1 -0.0001" transform="matrix(17.49,0,0,17.49,527.243,186.4918)" fill="#ee6666" fill-opacity="0.8" class="zr0-cls-4"></path>
<path d="M1 0A1 1 0 1 1 1 -0.0001" transform="matrix(7.328,0,0,7.328,401.4649,278.3035)" fill="#73c0de" fill-opacity="0.8" class="zr0-cls-5"></path>
<path d="M1 0A1 1 0 1 1 1 -0.0001" transform="matrix(7.336,0,0,7.336,528.7921,278.3035)" fill="#73c0de" fill-opacity="0.8" class="zr0-cls-5"></path>
<path d="M1 0A1 1 0 1 1 1 -0.0001" transform="matrix(7.336,0,0,7.336,525.866,278.3035)" fill="#73c0de" fill-opacity="0.8" class="zr0-cls-5"></path>
<path d="M1 0A1 1 0 1 1 1 -0.0001" transform="matrix(7.219,0,0,7.219,499.6174,94.68)" fill="#73c0de" fill-opacity="0.8" class="zr0-cls-5"></path>
<path d="M1 0A1 1 0 1 1 1 -0.0001" transform="matrix(7.205,0,0,7.205,424.0989,278.3035)" fill="#73c0de" fill-opacity="0.8" class="zr0-cls-5"></path>
<path d="M-5 -5l1049.7246 0l0 24l-1049.7246 0Z" transform="translate(31.1377 28.67)" fill="rgb(0,0,0)" fill-opacity="0" stroke="#ccc" stroke-width="0" class="zr0-cls-0"></path>
<path d="M19.5 7A7 7 0 1 1 19.5 6.9993" transform="translate(25.6377 28.67)" fill="#5470c6" fill-opacity="0.8" class="zr0-cls-0"></path>
<text dominant-baseline="central" text-anchor="start" style="font-size:12px;font-family:Microsoft YaHei;" x="30" y="7" transform="translate(25.6377 28.67)" fill="#333">gemini-1.5-flash-latest</text>
<path d="M5.5 0l154.5078 0l0 14l-154.5078 0Z" transform="translate(25.6377 28.67)" fill="transparent" class="zr0-cls-6"></path>
<path d="M19.5 7A7 7 0 1 1 19.5 6.9993" transform="translate(190.1455 28.67)" fill="#91cc75" fill-opacity="0.8" class="zr0-cls-0"></path>
<text dominant-baseline="central" text-anchor="start" style="font-size:12px;font-family:Microsoft YaHei;" x="30" y="7" transform="translate(190.1455 28.67)" fill="#333">gemini-1.5-pro-latest</text>
<path d="M5.5 0l147.2832 0l0 14l-147.2832 0Z" transform="translate(190.1455 28.67)" fill="transparent" class="zr0-cls-6"></path>
<path d="M19.5 7A7 7 0 1 1 19.5 6.9993" transform="translate(347.4287 28.67)" fill="#fac858" fill-opacity="0.8" class="zr0-cls-0"></path>
<text dominant-baseline="central" text-anchor="start" style="font-size:12px;font-family:Microsoft YaHei;" x="30" y="7" transform="translate(347.4287 28.67)" fill="#333">gpt-4o-mini</text>
<path d="M5.5 0l93.6699 0l0 14l-93.6699 0Z" transform="translate(347.4287 28.67)" fill="transparent" class="zr0-cls-6"></path>
<path d="M19.5 7A7 7 0 1 1 19.5 6.9993" transform="translate(451.0986 28.67)" fill="#ee6666" fill-opacity="0.8" class="zr0-cls-0"></path>
<text dominant-baseline="central" text-anchor="start" style="font-size:12px;font-family:Microsoft YaHei;" x="30" y="7" transform="translate(451.0986 28.67)" fill="#333">meta-llama/Meta-Llama-3.1-405B-Instruct-Turbo</text>
<path d="M5.5 0l305.6504 0l0 14l-305.6504 0Z" transform="translate(451.0986 28.67)" fill="transparent" class="zr0-cls-6"></path>
<path d="M19.5 7A7 7 0 1 1 19.5 6.9993" transform="translate(766.749 28.67)" fill="#73c0de" fill-opacity="0.8" class="zr0-cls-0"></path>
<text dominant-baseline="central" text-anchor="start" style="font-size:12px;font-family:Microsoft YaHei;" x="30" y="7" transform="translate(766.749 28.67)" fill="#333">meta-llama/Meta-Llama-3.1-70B-Instruct-Turbo</text>
<path d="M5.5 0l298.6133 0l0 14l-298.6133 0Z" transform="translate(766.749 28.67)" fill="transparent" class="zr0-cls-6"></path>
<style ><![CDATA[
.zr0-cls-0:hover {
pointer-events:none;
}
.zr0-cls-1:hover {
cursor:pointer;
fill:rgba(92,123,217,1);
}
.zr0-cls-2:hover {
cursor:pointer;
fill:rgba(159,224,128,1);
}
.zr0-cls-3:hover {
cursor:pointer;
fill:rgba(255,220,96,1);
}
.zr0-cls-4:hover {
cursor:pointer;
fill:rgba(255,112,112,1);
}
.zr0-cls-5:hover {
cursor:pointer;
fill:rgba(126,211,244,1);
}
.zr0-cls-6:hover {
cursor:pointer;
fill:rgba(0,0,0,0);
}

]]>

</style>
</svg>