<svg width="14" height="14" viewBox="0 0 14 14" fill="none" xmlns="http://www.w3.org/2000/svg">
<g clip-path="url(#clip0_3_2)">
<path d="M4.86181 0.954339H8.65902L4.71714 12.6337C4.67663 12.7537 4.5995 12.858 4.49661 12.9319C4.39371 13.0057 4.27025 13.0455 4.14358 13.0455H1.18841C1.09244 13.0455 0.997845 13.0227 0.912452 12.9789C0.827059 12.9351 0.753323 12.8716 0.697344 12.7936C0.641365 12.7157 0.604751 12.6255 0.590533 12.5306C0.576315 12.4357 0.5849 12.3388 0.615579 12.2478L4.2881 1.36617C4.3286 1.24611 4.40574 1.14177 4.50866 1.06787C4.61158 0.993958 4.7351 0.954346 4.86181 0.954339Z" fill="url(#paint0_linear_3_2)"/>
<path d="M10.3797 8.78806H4.35822C4.30224 8.78799 4.24754 8.80479 4.20124 8.83626C4.15494 8.86774 4.1192 8.91242 4.09866 8.9645C4.07812 9.01658 4.07374 9.07363 4.08609 9.12823C4.09844 9.18283 4.12695 9.23245 4.16791 9.27062L8.03716 12.882C8.14981 12.9871 8.29814 13.0455 8.4522 13.0455H11.8618L10.3797 8.78806Z" fill="#0078D4"/>
<path d="M4.86177 0.954335C4.73367 0.953843 4.60878 0.994322 4.50533 1.06986C4.40188 1.14539 4.32529 1.25203 4.28675 1.37419L0.62006 12.2379C0.587317 12.3292 0.577038 12.427 0.590091 12.5231C0.603144 12.6191 0.639146 12.7107 0.695051 12.7899C0.750956 12.8691 0.82512 12.9337 0.911268 12.9782C0.997416 13.0227 1.09301 13.0458 1.18998 13.0455H4.22141C4.33432 13.0253 4.43984 12.9756 4.52721 12.9013C4.61458 12.827 4.68066 12.7308 4.71871 12.6226L5.44991 10.4676L8.06179 12.9038C8.17124 12.9943 8.30854 13.0444 8.45058 13.0455H11.8475L10.3576 8.78806L6.01458 8.78909L8.67268 0.954335H4.86177Z" fill="url(#paint1_linear_3_2)"/>
<path d="M9.71175 1.36558C9.67131 1.24571 9.59428 1.14155 9.49152 1.06777C9.38875 0.993992 9.26543 0.954316 9.13892 0.95433H4.90698C5.03348 0.954338 5.1568 0.994023 5.25956 1.0678C5.36232 1.14157 5.43936 1.24572 5.47982 1.36558L9.15248 12.2477C9.18318 12.3386 9.19179 12.4356 9.17758 12.5305C9.16338 12.6254 9.12677 12.7156 9.07079 12.7936C9.01481 12.8716 8.94107 12.9351 8.85566 12.979C8.77026 13.0228 8.67564 13.0457 8.57965 13.0457H12.8117C12.9077 13.0456 13.0023 13.0228 13.0877 12.9789C13.1731 12.9351 13.2468 12.8715 13.3028 12.7936C13.3587 12.7156 13.3953 12.6254 13.4095 12.5305C13.4237 12.4355 13.4151 12.3386 13.3844 12.2477L9.71175 1.36558Z" fill="url(#paint2_linear_3_2)"/>
</g>
<defs>
<linearGradient id="paint0_linear_3_2" x1="6.24577" y1="1.85034" x2="2.30229" y2="13.5004" gradientUnits="userSpaceOnUse">
<stop stop-color="#114A8B"/>
<stop offset="1" stop-color="#0669BC"/>
</linearGradient>
<linearGradient id="paint1_linear_3_2" x1="7.47758" y1="7.27956" x2="6.56539" y2="7.588" gradientUnits="userSpaceOnUse">
<stop stop-opacity="0.3"/>
<stop offset="0.071" stop-opacity="0.2"/>
<stop offset="0.321" stop-opacity="0.1"/>
<stop offset="0.623" stop-opacity="0.05"/>
<stop offset="1" stop-opacity="0"/>
</linearGradient>
<linearGradient id="paint2_linear_3_2" x1="6.97592" y1="1.51054" x2="11.3047" y2="13.0432" gradientUnits="userSpaceOnUse">
<stop stop-color="#3CCBF4"/>
<stop offset="1" stop-color="#2892DF"/>
</linearGradient>
<clipPath id="clip0_3_2">
<rect width="14" height="14" fill="white"/>
</clipPath>
</defs>
</svg>
