<?xml version="1.0" encoding="utf-8"?>
<svg version="1.1" id="Layer_1" xmlns="http://www.w3.org/2000/svg" x="0px" y="0px"
     viewBox="0 0 14 14" style="enable-background:new 0 0 14 14;" xml:space="preserve">
<style type="text/css">
	.st0{fill:none;stroke:#F15A29;stroke-width:0.8704;stroke-miterlimit:10;}
</style>
    <g>
	<path class="st0" d="M8.5,13.2c-3.4,0-6.2-2.8-6.2-6.2s2.8-6.2,6.2-6.2 M5.3,10.8c-2.1-1.8-2.4-4.9-0.6-7c1.8-2.1,4.9-2.4,7-0.6
		 M6.7,10.4c-1.9-1-2.6-3.3-1.6-5.1c1-1.9,3.3-2.6,5.1-1.6 M8.5,9.6C7.1,9.6,5.9,8.4,5.9,7s1.2-2.6,2.6-2.6"/>
        <path d="M9.3,6.3C9.2,6.2,9.1,6.1,9,6C8.9,6,8.7,5.9,8.6,5.9C8.5,5.9,8.3,6,8.2,6C8.1,6.1,8,6.2,7.9,6.2C7.8,6.3,7.7,6.5,7.7,6.6
		c0,0.1-0.1,0.3-0.1,0.4c0,0.1,0,0.3,0.1,0.4c0,0.1,0.1,0.2,0.2,0.3C8,7.8,8.1,7.9,8.2,7.9C8.3,8,8.5,8,8.6,8C8.8,8,8.9,8,9,7.9
		c0.1-0.1,0.2-0.1,0.3-0.2l0.6,0.6C9.8,8.4,9.7,8.5,9.6,8.5C9.5,8.6,9.4,8.7,9.2,8.7C9.1,8.7,9,8.8,8.9,8.8s-0.2,0-0.3,0
		c-0.3,0-0.5,0-0.7-0.1C7.7,8.6,7.5,8.5,7.3,8.3C7.1,8.1,7,7.9,6.9,7.7C6.8,7.5,6.8,7.2,6.8,7c0-0.3,0-0.5,0.1-0.8
		C7,6,7.1,5.8,7.3,5.6c0.2-0.2,0.4-0.3,0.6-0.4c0.2-0.1,0.5-0.1,0.7-0.1c0.2,0,0.4,0,0.7,0.1c0.2,0.1,0.4,0.2,0.6,0.4L9.3,6.3z"
              fill="#6C707E"/>
</g>
</svg>
