<svg width="14" height="14" viewBox="0 0 14 14" fill="none" xmlns="http://www.w3.org/2000/svg">
<path d="M12.8746 3.75532C12.7475 3.69149 12.6926 3.81381 12.6177 3.87408C12.5925 3.89358 12.5707 3.92017 12.5498 3.94321C12.3634 4.14528 12.1467 4.27824 11.8628 4.26228C11.4483 4.23924 11.0948 4.37218 10.7822 4.6948C10.7151 4.29596 10.494 4.05843 10.1578 3.90598C9.98193 3.82622 9.80431 3.74822 9.68073 3.57451C9.59451 3.45219 9.57097 3.3157 9.52835 3.18098C9.50044 3.09944 9.47342 3.01613 9.38114 3.00195C9.2819 2.986 9.24266 3.07108 9.20352 3.14198C9.04677 3.43447 8.98667 3.75532 8.99283 4.08147C9.00584 4.81179 9.30891 5.39499 9.9114 5.80978C9.98023 5.85763 9.99762 5.9055 9.97586 5.97463C9.93494 6.11644 9.88616 6.25648 9.84354 6.39828C9.81564 6.49046 9.77471 6.50996 9.67895 6.46919C9.34806 6.32915 9.06246 6.11998 8.81084 5.86827C8.38241 5.44639 7.99492 4.98019 7.51165 4.6168C7.39846 4.52994 7.28526 4.45195 7.16771 4.37573C6.67487 3.88826 7.23215 3.48764 7.36189 3.43979C7.49599 3.39015 7.40803 3.21998 6.97266 3.22175C6.53642 3.22353 6.13762 3.37243 5.62911 3.57096C5.55422 3.60109 5.47672 3.62236 5.39574 3.64009C4.93425 3.55146 4.45534 3.53196 3.95466 3.58868C3.01251 3.69681 2.25931 4.1506 1.70639 4.92524C1.04114 5.85763 0.884407 6.91589 1.07597 8.02023C1.27798 9.18481 1.86051 10.1474 2.75651 10.9008C3.68472 11.6825 4.75487 12.0654 5.97479 11.9909C6.7158 11.9484 7.54126 11.8473 8.4721 11.0443C8.70723 11.1631 8.95359 11.211 9.36197 11.2464C9.67716 11.2765 9.98023 11.2304 10.2145 11.1808C10.5819 11.1011 10.5567 10.7537 10.4243 10.6916C9.34636 10.1792 9.58318 10.3867 9.36812 10.2183C9.91577 9.55882 10.7404 8.87287 11.0634 6.65C11.0887 6.47451 11.0669 6.36283 11.0634 6.21925C11.0617 6.1324 11.0809 6.09872 11.1783 6.08985C11.4483 6.05794 11.7104 5.98172 11.9516 5.847C12.6491 5.4588 12.9312 4.82065 12.9974 4.05488C13.0069 3.93789 12.9956 3.81736 12.8746 3.75532ZM6.79068 10.6437C5.74579 9.80704 5.23988 9.5305 5.03003 9.54294C4.83498 9.55528 4.86981 9.78218 4.91335 9.93111C4.95776 10.0782 5.01696 10.1792 5.09882 10.3087C5.15542 10.3938 5.1946 10.5196 5.04222 10.6153C4.70611 10.8281 4.12097 10.5445 4.09398 10.5303C3.41305 10.1225 2.84446 9.58187 2.44304 8.84446C2.05643 8.13545 1.83091 7.37322 1.79433 6.56136C1.78389 6.36461 1.84048 6.29547 2.03292 6.26002C2.28457 6.21216 2.54492 6.20153 2.79743 6.24052C3.86323 6.39828 4.77055 6.88398 5.5307 7.6533C5.96521 8.09114 6.29348 8.61584 6.63221 9.12636C6.99182 9.67054 7.37931 10.1864 7.87214 10.6118C8.04626 10.7607 8.18473 10.8724 8.31794 10.9557C7.91656 11.0018 7.24782 11.0124 6.79068 10.6437ZM7.29135 7.36258C7.29135 7.27396 7.35928 7.20483 7.44548 7.20483C7.46551 7.20483 7.48292 7.21015 7.4986 7.21547C7.51949 7.22255 7.53952 7.23496 7.55519 7.25269C7.58219 7.28105 7.59786 7.32005 7.59786 7.36258C7.59786 7.44945 7.52994 7.51858 7.44374 7.51858C7.35753 7.51858 7.29135 7.44945 7.29135 7.36258ZM8.84562 8.17445C8.74638 8.21699 8.64624 8.25244 8.55048 8.25599C8.40158 8.26486 8.23956 8.20281 8.15165 8.12659C8.01495 8.0096 7.91656 7.94401 7.87563 7.74016C7.85822 7.6533 7.86779 7.51858 7.88347 7.44058C7.91917 7.27396 7.87998 7.1676 7.76418 7.07011C7.67013 6.99034 7.55084 6.96907 7.42023 6.96907C7.37147 6.96907 7.32619 6.94779 7.2931 6.93007C7.23824 6.90171 7.19296 6.83258 7.2365 6.74749C7.25044 6.71913 7.3166 6.65177 7.33228 6.64113C7.50991 6.53655 7.71541 6.57023 7.90523 6.64823C8.08112 6.7209 8.21433 6.85562 8.40595 7.04706C8.60095 7.27751 8.6367 7.33954 8.74816 7.51326C8.83607 7.64798 8.91614 7.78624 8.97107 7.94401C9.00415 8.04327 8.96144 8.12482 8.84562 8.17445Z" fill="#4D6BFE"/>
</svg>
