<svg width="14" height="14" viewBox="0 0 14 14" fill="none" xmlns="http://www.w3.org/2000/svg">
<path d="M6.99281 8.87543C6.60427 8.87543 6.2556 8.64441 6.10692 8.28672L4.31445 4H5.36357L6.99893 7.92139L8.63278 4H9.6819L7.87869 8.28826C7.72925 8.64441 7.38135 8.87543 6.99281 8.87543Z" fill="#6720FF"/>
<path d="M9.33327 10.9196C8.94627 10.9196 8.59914 10.6901 8.44893 10.3355C8.29797 9.97783 8.37611 9.56949 8.64895 9.29241L11.9136 5.98047L12.3212 6.94374L9.33251 9.97016L13.5926 9.94637L14.0003 10.9096L9.33404 10.9212L9.33251 10.9196H9.33327Z" fill="#6720FF"/>
<path d="M0 10.9104L0.407693 9.94713L4.66777 9.97092L1.67982 6.94373L2.08751 5.98047L5.35212 9.29242C5.62493 9.56873 5.70387 9.97859 5.55212 10.3355C5.40193 10.6909 5.05324 10.9196 4.66777 10.9196L0.00153268 10.9089L0 10.9104Z" fill="#6720FF"/>
</svg>
