<svg width="14" height="14" viewBox="0 0 14 14" fill="none" xmlns="http://www.w3.org/2000/svg">
<g clip-path="url(#clip0_1044_73)">
<path d="M7 14C10.866 14 14 10.866 14 7C14 3.13401 10.866 0 7 0C3.13401 0 0 3.13401 0 7C0 10.866 3.13401 14 7 14Z" fill="#F05237"/>
<path d="M7.01081 3.66406C6.40546 3.69285 5.83443 3.95359 5.4162 4.39218C4.99797 4.83077 4.76465 5.41354 4.76465 6.01958C4.76465 6.62561 4.99797 7.20838 5.4162 7.64697C5.83443 8.08557 6.40546 8.3463 7.01081 8.37509H7.78268V7.49144H7.01081C6.71895 7.49144 6.43366 7.40482 6.19106 7.24256C5.94846 7.0803 5.75947 6.8497 5.64803 6.57995C5.53658 6.31021 5.5077 6.01346 5.56502 5.72729C5.62235 5.44111 5.76332 5.17839 5.97006 4.97238C6.17681 4.76638 6.44005 4.62637 6.72643 4.57008C7.01281 4.51378 7.30945 4.54374 7.57879 4.65616C7.84813 4.76858 8.07805 4.95841 8.23943 5.20159C8.40081 5.44477 8.48639 5.73038 8.48534 6.02224V8.18878C8.49124 8.47927 8.41024 8.76491 8.25274 9.00907C8.09523 9.25323 7.86838 9.44478 7.60129 9.55917C7.3342 9.67356 7.03903 9.70556 6.75363 9.65109C6.46822 9.59661 6.20559 9.45814 5.99941 9.25342L5.37659 9.85494C5.80935 10.2905 6.39679 10.5374 7.01081 10.5416H7.04275C7.65938 10.5333 8.24807 10.2831 8.68213 9.8451C9.1162 9.40705 9.36093 8.8161 9.36367 8.19942V5.96368C9.34841 5.34938 9.09397 4.7653 8.65451 4.33578C8.21506 3.90627 7.62531 3.66526 7.01081 3.66406Z" fill="white"/>
</g>
<defs>
<clipPath id="clip0_1044_73">
<rect width="14" height="14" fill="white"/>
</clipPath>
</defs>
</svg>
