<svg width="14" height="14" viewBox="0 0 14 14" fill="none" xmlns="http://www.w3.org/2000/svg">
<path d="M13.9521 10.5543C13.9155 10.4165 13.8564 10.2858 13.777 10.1674C13.794 10.1051 13.807 10.0417 13.8156 9.97768C13.872 9.57145 13.7312 9.19956 13.4658 8.91182C13.322 8.75466 13.1679 8.65086 13.0047 8.58717C13.1118 8.12881 13.166 7.65971 13.1663 7.18904C13.1663 6.97404 13.1541 6.76345 13.1337 6.55599C13.1231 6.45239 13.1103 6.34907 13.0952 6.24602C13.0485 5.94196 12.9791 5.64178 12.8878 5.34806C12.8279 5.15506 12.7586 4.96509 12.6802 4.77883C12.5627 4.503 12.4254 4.23598 12.2695 3.97985C12.1673 3.80943 12.056 3.64465 11.936 3.48621C11.8772 3.4062 11.8159 3.32808 11.7522 3.25196C11.5633 3.02248 11.3581 2.80698 11.1382 2.60715C11.0651 2.53997 10.99 2.47509 10.9128 2.4126C10.8369 2.34927 10.7593 2.28798 10.6801 2.2288C10.5207 2.11015 10.356 1.99885 10.1864 1.89524C9.24966 1.32628 8.1511 1 6.97696 1C3.55833 1 0.787644 3.77082 0.787644 7.18925C0.787508 7.66589 0.842705 8.14091 0.952146 8.60477C0.805318 8.66853 0.664609 8.76791 0.534095 8.91168C0.268787 9.19929 0.127873 9.56982 0.184225 9.97604C0.19279 10.0406 0.205637 10.1044 0.222767 10.1673C0.143514 10.2857 0.0844163 10.4165 0.0478658 10.5543C-0.0337049 10.8643 -0.00685459 11.1439 0.0968082 11.3889C-0.0158954 11.7091 0.0122466 12.05 0.159006 12.3465C0.265728 12.563 0.418469 12.7305 0.606761 12.8802C0.830605 13.0581 1.1108 13.2093 1.44878 13.3544C1.85201 13.5263 2.34422 13.6879 2.56806 13.7472C3.14626 13.8969 3.70067 13.9918 4.26256 13.9964C5.06311 14.0038 5.75252 13.8156 6.24609 13.3338C6.48856 13.3635 6.73266 13.3784 6.97696 13.3783C7.23506 13.3777 7.49289 13.3615 7.74903 13.3297C8.24144 13.8145 8.9335 14.0044 9.73698 13.9968C10.2988 13.9923 10.8532 13.8974 11.4299 13.7475C11.6552 13.6883 12.1473 13.5267 12.5507 13.3547C12.8887 13.2094 13.1689 13.0583 13.3942 12.8806C13.5811 12.7308 13.7337 12.5634 13.8405 12.3469C13.9887 12.0504 14.0154 11.7094 13.9042 11.3893C14.0069 11.1443 14.0336 10.8641 13.9521 10.5543ZM13.3784 11.3682C13.4919 11.5837 13.4992 11.8273 13.399 12.0541C13.247 12.3979 12.8695 12.6687 12.1362 12.9594C11.6803 13.1402 11.2628 13.2559 11.2591 13.2569C10.656 13.4133 10.1106 13.4928 9.63841 13.4928C8.85655 13.4928 8.27475 13.277 7.90578 12.8509C7.28183 12.9573 6.64476 12.9609 6.01966 12.8617C5.65021 13.2807 5.07174 13.4928 4.29648 13.4928C3.82425 13.4928 3.27888 13.4133 2.67574 13.2569C2.67206 13.2559 2.25469 13.1402 1.79858 12.9594C1.06539 12.6687 0.68772 12.3981 0.535795 12.0541C0.435599 11.8273 0.442872 11.5837 0.556459 11.3682C0.566928 11.3481 0.578212 11.3286 0.590243 11.3097C0.522173 11.2075 0.476513 11.092 0.456263 10.9708C0.43602 10.8497 0.441649 10.7256 0.472781 10.6068C0.517917 10.4353 0.611112 10.2927 0.737682 10.1902C0.676708 10.09 0.636705 9.97856 0.620085 9.86246C0.58365 9.61 0.667464 9.35794 0.85596 9.15238C1.00279 8.99244 1.21032 8.90441 1.44007 8.90441H1.44619C1.27296 8.34912 1.18512 7.77071 1.18571 7.18904C1.18571 4.01655 3.75764 1.44442 6.9306 1.44442C10.1035 1.44442 12.6754 4.01628 12.6754 7.18904C12.6759 7.77228 12.5875 8.35217 12.4131 8.90876C12.4408 8.90604 12.468 8.90468 12.4947 8.90461C12.7245 8.90461 12.9321 8.99264 13.0788 9.15259C13.2673 9.35794 13.3512 9.6102 13.3147 9.86266C13.2981 9.97876 13.258 10.0902 13.1971 10.1904C13.3237 10.2929 13.417 10.4355 13.462 10.607C13.4932 10.7258 13.4988 10.8499 13.4786 10.9711C13.4584 11.0922 13.4127 11.2077 13.3446 11.3099C13.3566 11.3286 13.368 11.3481 13.3784 11.3682Z" fill="white"/>
<path d="M13.3437 11.3107C13.4119 11.2084 13.4575 11.0929 13.4778 10.9718C13.498 10.8506 13.4923 10.7266 13.4612 10.6077C13.4161 10.4362 13.3228 10.2936 13.1963 10.1912C13.2573 10.091 13.2972 9.97951 13.3138 9.86341C13.3503 9.61094 13.2665 9.35889 13.078 9.15333C12.9313 8.99339 12.7237 8.90536 12.4939 8.90536C12.4672 8.90536 12.44 8.90679 12.4123 8.90951C12.5864 8.35292 12.6747 7.77309 12.6741 7.18993C12.6741 4.01737 10.1022 1.44531 6.92957 1.44531C3.75687 1.44531 1.18467 4.0171 1.18467 7.18993C1.1841 7.77159 1.27193 8.35 1.44516 8.90529H1.43903C1.20928 8.90529 1.00175 8.99325 0.854993 9.1532C0.666497 9.35855 0.582608 9.61088 0.619111 9.86327C0.635745 9.97937 0.675748 10.0909 0.736709 10.1911C0.610138 10.2935 0.516882 10.4361 0.471747 10.6076C0.440627 10.7265 0.435019 10.8505 0.45529 10.9717C0.47556 11.0929 0.52124 11.2084 0.589338 11.3107C0.577238 11.3296 0.56609 11.3491 0.555554 11.3691C0.442034 11.5847 0.4347 11.8282 0.534964 12.0551C0.686957 12.3988 1.06449 12.6696 1.79774 12.9604C2.25365 13.1412 2.67123 13.2568 2.6749 13.2578C3.27798 13.4142 3.82342 13.4937 4.29558 13.4937C5.07091 13.4937 5.64938 13.2816 6.01883 12.8626C6.64393 12.9618 7.281 12.9581 7.90495 12.8519C8.27392 13.278 8.85572 13.4937 9.63758 13.4937C10.1097 13.4937 10.6552 13.4142 11.2582 13.2578C11.2619 13.2568 11.6793 13.1412 12.1354 12.9604C12.8687 12.6696 13.2463 12.3988 13.3982 12.0551C13.4984 11.8282 13.4911 11.5847 13.3775 11.3691C13.3672 11.3489 13.3558 11.3294 13.3437 11.3107ZM5.75447 12.2067C5.72266 12.2623 5.6886 12.3166 5.65237 12.3694C5.55687 12.5092 5.43125 12.6161 5.28544 12.6955C5.00673 12.8475 4.65395 12.9006 4.29558 12.9006C3.72941 12.9006 3.14903 12.7681 2.82377 12.6837C2.80773 12.6796 0.829774 12.1209 1.0802 11.6453C1.12234 11.5653 1.19167 11.5334 1.27902 11.5334C1.63161 11.5334 2.27364 12.0584 2.54955 12.0584C2.6112 12.0584 2.65471 12.0322 2.67245 11.9681C2.79005 11.5464 0.885167 11.3691 1.04559 10.7584C1.07387 10.6504 1.15069 10.6064 1.25863 10.6064C1.72481 10.6064 2.77109 11.4262 2.9899 11.4262C3.00669 11.4262 3.01872 11.4213 3.02524 11.4109C3.0262 11.4094 3.02715 11.4079 3.02804 11.4062C3.13075 11.2367 3.07181 11.1133 2.36819 10.6824L2.30062 10.6413C1.52631 10.1726 0.982848 9.8906 1.29193 9.55412C1.32748 9.5153 1.37792 9.49811 1.43917 9.49811C1.51177 9.49811 1.59966 9.52237 1.69646 9.56316C2.1054 9.73561 2.67219 10.2059 2.90894 10.411C2.94619 10.4434 2.98319 10.4761 3.01994 10.509C3.01994 10.509 3.31972 10.8207 3.50094 10.8207C3.54268 10.8207 3.57809 10.8043 3.60209 10.7636C3.73063 10.5469 2.40823 9.54481 2.33366 9.13131C2.28309 8.85118 2.36914 8.70925 2.52821 8.70925C2.60386 8.70925 2.69617 8.74147 2.79807 8.80611C3.11416 9.00671 3.72444 10.0554 3.94788 10.4634C4.02279 10.6001 4.15065 10.6579 4.26587 10.6579C4.49447 10.6579 4.67318 10.4307 4.2868 10.1419C3.70609 9.7074 3.90989 8.99719 4.18702 8.95349C4.19885 8.95158 4.21081 8.95063 4.2227 8.95063C4.47476 8.95063 4.5859 9.38493 4.5859 9.38493C4.5859 9.38493 4.91177 10.2032 5.47156 10.7626C5.97947 11.2703 6.05044 11.6869 5.75447 12.2067ZM7.56459 12.3025L7.53557 12.306L7.48608 12.3116C7.46005 12.3143 7.43395 12.3169 7.40777 12.3193L7.38228 12.3216L7.35897 12.3236L7.32593 12.3262L7.28943 12.3289L7.25299 12.3313L7.24491 12.3318C7.23539 12.3323 7.22587 12.333 7.21622 12.3334L7.20405 12.3341C7.19277 12.3347 7.18148 12.3353 7.17006 12.3357L7.13057 12.3374L7.09475 12.3387L7.07082 12.3394H7.05865C7.05117 12.3394 7.04377 12.3398 7.03629 12.3398H7.02446C7.01698 12.3398 7.00957 12.3398 7.0021 12.3402L6.97164 12.3406H6.92916C6.89578 12.3406 6.86247 12.3402 6.8293 12.3396L6.80238 12.3389C6.7947 12.3389 6.78702 12.3386 6.77948 12.3383L6.75093 12.3375L6.71551 12.3362L6.68356 12.3347L6.67534 12.3344L6.64495 12.3328C6.63646 12.3323 6.62809 12.3319 6.61967 12.3313L6.60002 12.3302C6.57534 12.3286 6.55067 12.3269 6.52599 12.325L6.50016 12.3229C6.48929 12.3221 6.47841 12.3211 6.4676 12.3201C6.45489 12.319 6.44218 12.3178 6.42947 12.3166C6.40819 12.3146 6.38692 12.3124 6.36564 12.3101H6.36462C6.67527 11.6171 6.51818 10.9698 5.89042 10.3426C5.47869 9.93145 5.20482 9.32429 5.14799 9.19099C5.03297 8.79639 4.72858 8.35775 4.22305 8.35775C4.18029 8.35775 4.1376 8.36115 4.09539 8.36781C3.87393 8.40268 3.68033 8.53013 3.54221 8.72196C3.39293 8.53632 3.24787 8.38874 3.11668 8.30541C2.91887 8.17999 2.72146 8.11637 2.52916 8.11637C2.28914 8.11637 2.0746 8.21493 1.92506 8.39371L1.92125 8.39826C1.9184 8.3865 1.91568 8.37474 1.91289 8.36291L1.91255 8.36135C1.88409 8.23967 1.8602 8.11698 1.8409 7.99347C1.8409 7.99265 1.8409 7.99183 1.8405 7.99102C1.839 7.98171 1.83764 7.97232 1.83621 7.96301C1.83203 7.93541 1.82811 7.90775 1.82445 7.88008C1.82282 7.86751 1.82106 7.85493 1.81949 7.84236L1.81487 7.80463C1.81337 7.79205 1.81215 7.78063 1.81079 7.76867L1.81039 7.76568C1.80496 7.71674 1.8002 7.66779 1.79611 7.61872L1.79461 7.59989L1.79223 7.5678C1.79155 7.55903 1.79087 7.5502 1.7904 7.54136C1.7904 7.53925 1.79006 7.53721 1.78999 7.53524C1.78826 7.51063 1.78679 7.48596 1.78557 7.46128C1.78489 7.44844 1.78421 7.43566 1.78367 7.42274L1.78231 7.38903L1.78197 7.37883L1.78088 7.34776L1.7802 7.32132C1.7802 7.31079 1.77966 7.30025 1.77952 7.28971C1.77932 7.27918 1.77905 7.26762 1.77898 7.25647C1.77884 7.24533 1.77898 7.23431 1.77864 7.22323C1.77837 7.21209 1.77864 7.20101 1.77864 7.18993C1.77864 4.34495 4.08512 2.03847 6.93038 2.03847C9.77557 2.03847 12.082 4.34488 12.082 7.18993V7.25647C12.082 7.26755 12.0816 7.2787 12.0814 7.28971C12.0814 7.29889 12.081 7.30793 12.0808 7.31724C12.0808 7.3254 12.0804 7.33363 12.0801 7.34151C12.0801 7.35191 12.0795 7.36231 12.0792 7.37271V7.37353L12.0778 7.40962C12.0773 7.42016 12.0769 7.43076 12.0763 7.4413L12.076 7.44878L12.0742 7.48249C12.0702 7.55475 12.0646 7.62687 12.0578 7.69893V7.69981C12.0566 7.71164 12.0555 7.72347 12.0542 7.73529L12.0511 7.76323L12.0451 7.81788L12.0416 7.84555L12.0373 7.87811C12.0358 7.88994 12.0342 7.90183 12.0324 7.91359C12.0307 7.92685 12.0287 7.94004 12.0267 7.95322L12.022 7.98442L12.0165 8.01977C12.0145 8.03153 12.0125 8.04322 12.0103 8.05492C12.0081 8.06667 12.0063 8.07837 12.0043 8.09006C12.0002 8.11344 11.9959 8.13683 11.9914 8.16014C11.9846 8.19501 11.9776 8.22982 11.9704 8.26462L11.9629 8.29908C11.9604 8.31057 11.9578 8.32213 11.9552 8.33362C11.8102 8.1927 11.6182 8.11596 11.4064 8.11596C11.2143 8.11596 11.0167 8.17952 10.8189 8.30493C10.6877 8.38827 10.5427 8.53591 10.3934 8.72148C10.2551 8.52966 10.0615 8.4022 9.84015 8.36733C9.79793 8.36067 9.75524 8.35727 9.71249 8.35727C9.20682 8.35727 8.90263 8.79592 8.78754 9.19052C8.73044 9.32382 8.4565 9.93097 8.04443 10.3428C7.41709 10.968 7.25884 11.6124 7.56459 12.3025ZM12.8831 10.9152L12.881 10.9212C12.8759 10.9349 12.8699 10.9482 12.8632 10.9611C12.8581 10.9707 12.8526 10.9799 12.8466 10.9889C12.8352 11.0058 12.8228 11.022 12.8093 11.0372C12.8061 11.0407 12.8031 11.0443 12.7996 11.0477C12.7947 11.053 12.7897 11.0581 12.7846 11.0632C12.6932 11.1539 12.5537 11.2334 12.396 11.3063C12.3781 11.3144 12.3599 11.3225 12.3416 11.3307L12.3234 11.3388C12.3113 11.3441 12.2991 11.3494 12.2863 11.3547C12.2741 11.36 12.2615 11.3653 12.2489 11.3704L12.2109 11.3861C12.1222 11.4226 12.0313 11.4574 11.9427 11.4917L11.9048 11.5064L11.8673 11.5211C11.8424 11.5308 11.8178 11.5406 11.7936 11.5503L11.7575 11.5648L11.722 11.5793L11.7046 11.5867C11.693 11.5915 11.6816 11.5963 11.6703 11.6011C11.4094 11.7131 11.2218 11.827 11.2612 11.9682C11.2623 11.9722 11.2635 11.976 11.2648 11.9798C11.2684 11.9902 11.2732 12.0001 11.2793 12.0094C11.2828 12.0149 11.2869 12.0201 11.2914 12.0249C11.3378 12.0731 11.4221 12.0655 11.5285 12.0272C11.5435 12.0217 11.5584 12.016 11.5731 12.01L11.5824 12.0062C11.6067 11.9959 11.6325 11.9843 11.6588 11.9718C11.6654 11.9687 11.672 11.9657 11.6787 11.9622C11.8088 11.8986 11.9562 11.8129 12.1025 11.735C12.161 11.7034 12.2204 11.6734 12.2805 11.6449C12.419 11.5797 12.5492 11.5335 12.6539 11.5335C12.7031 11.5335 12.7464 11.5436 12.7826 11.5667L12.7887 11.5707C12.8114 11.5867 12.8304 11.6072 12.8446 11.631C12.8474 11.6355 12.8501 11.6404 12.8528 11.6453C12.9045 11.7435 12.8612 11.8452 12.7598 11.945C12.6626 12.0407 12.5112 12.1346 12.3393 12.2215C12.3265 12.2279 12.3137 12.2344 12.3007 12.2407C11.7889 12.4921 11.1186 12.6814 11.1093 12.6838C10.9306 12.7301 10.6752 12.7908 10.3874 12.8363L10.3448 12.843L10.3378 12.844C10.3056 12.8489 10.2733 12.8535 10.2409 12.8577C10.2081 12.8621 10.1749 12.8661 10.1415 12.8698L10.1354 12.8705C10.0144 12.8844 9.89296 12.8937 9.77122 12.8981H9.76945C9.7254 12.8997 9.68142 12.9005 9.63737 12.9005H9.5866C9.51944 12.8996 9.45241 12.8965 9.38546 12.8914C9.38389 12.8914 9.38219 12.8914 9.38063 12.891C9.35664 12.8891 9.33271 12.8869 9.30878 12.8842C9.28397 12.8816 9.25923 12.8786 9.23455 12.8753C9.2183 12.8731 9.20213 12.8706 9.18595 12.868C9.1695 12.8653 9.15305 12.8626 9.13667 12.8598L9.1143 12.8556L9.1126 12.8552C9.08902 12.8507 9.06556 12.8458 9.04218 12.8403C9.02859 12.8373 9.01506 12.8343 9.00167 12.8306L8.99358 12.8286C8.98692 12.8269 8.98046 12.8252 8.97386 12.8234L8.97026 12.8225L8.94933 12.8163C8.94171 12.8142 8.9341 12.8119 8.92649 12.8097L8.92383 12.8089L8.90405 12.8029C8.89658 12.8006 8.8891 12.7981 8.88169 12.7957L8.86347 12.7896L8.85008 12.7849C8.83717 12.7804 8.82432 12.7757 8.81161 12.7708L8.79951 12.766L8.78951 12.7621C8.77021 12.7543 8.75104 12.7463 8.73208 12.7378L8.7195 12.7316L8.71739 12.7307C8.71291 12.7286 8.70849 12.7265 8.704 12.7246C8.69523 12.7204 8.68653 12.7161 8.6779 12.7117L8.67525 12.7104L8.66274 12.7038C8.64051 12.6921 8.61876 12.6798 8.59742 12.6667L8.58572 12.6594C8.57988 12.6558 8.57403 12.6521 8.56832 12.6483L8.5531 12.6382L8.53671 12.627L8.52693 12.62C8.51659 12.6126 8.50646 12.605 8.49654 12.5972L8.4807 12.585C8.47438 12.5799 8.46813 12.5748 8.46194 12.5695C8.45671 12.5652 8.45161 12.5607 8.44651 12.5563L8.4461 12.5559C8.4406 12.5511 8.43523 12.5463 8.42986 12.5413C8.42455 12.5365 8.41925 12.5316 8.41409 12.5266L8.41347 12.526C8.40804 12.5208 8.40273 12.5156 8.3975 12.5102C8.39227 12.5049 8.38689 12.4996 8.3818 12.4942C8.3767 12.4888 8.37146 12.4833 8.36643 12.4777C8.3614 12.4721 8.35678 12.467 8.35202 12.4615L8.35046 12.4597C8.34584 12.4544 8.34128 12.449 8.3368 12.4435C8.32708 12.4319 8.31763 12.42 8.30852 12.4078C8.29934 12.3956 8.29037 12.3831 8.2816 12.3703L8.27324 12.3578C8.26209 12.3415 8.25122 12.3251 8.24068 12.3084C8.23279 12.2963 8.22511 12.2842 8.21764 12.2719C8.21281 12.2642 8.20819 12.2565 8.20357 12.2489L8.20166 12.2457C8.19724 12.2383 8.19289 12.2309 8.18868 12.2235C8.18623 12.2195 8.18392 12.2155 8.18174 12.2114C8.1795 12.2071 8.17692 12.2029 8.17454 12.1986L8.17067 12.1918L8.16829 12.1875C8.16373 12.1793 8.15924 12.1711 8.15489 12.1628C8.15286 12.1591 8.15088 12.1555 8.14878 12.1519L8.14273 12.1402L8.13661 12.1286C8.12131 12.098 8.10684 12.067 8.09324 12.0356L8.08841 12.0241C8.08529 12.0164 8.08236 12.0088 8.07924 12.0012C8.07774 11.9976 8.07625 11.994 8.07496 11.9903C8.06768 11.9715 8.06088 11.9524 8.05463 11.9333C8.05239 11.9264 8.05021 11.9197 8.04817 11.9129C8.04328 11.8974 8.03886 11.8819 8.03492 11.8662C8.03009 11.8479 8.02581 11.8295 8.02221 11.8109C8.02146 11.8072 8.02071 11.8034 8.0201 11.7998C8.01656 11.7817 8.01371 11.7634 8.01147 11.745C8.01092 11.7414 8.01051 11.7378 8.01011 11.7342L8.00895 11.7232C8.00745 11.7088 8.0063 11.6943 8.00562 11.6799C8.00562 11.6762 8.00528 11.6725 8.00514 11.669C8.0048 11.6618 8.00467 11.6546 8.0046 11.6474C8.00079 11.3569 8.14776 11.0777 8.46201 10.7635C9.02179 10.2043 9.34766 9.38595 9.34766 9.38595C9.34766 9.38595 9.35643 9.35162 9.37465 9.3022C9.37716 9.29533 9.37982 9.28827 9.38281 9.28086C9.39341 9.25319 9.40537 9.226 9.41863 9.19949L9.42128 9.19439C9.43256 9.17182 9.44494 9.1498 9.45826 9.12839C9.46139 9.12342 9.46438 9.11853 9.46784 9.11357C9.47784 9.09882 9.48837 9.08441 9.49945 9.07047C9.5055 9.06293 9.5121 9.05545 9.51869 9.04818C9.52134 9.04532 9.52392 9.04247 9.52671 9.03975C9.55913 9.00623 9.59618 8.97891 9.63812 8.96436L9.64343 8.96259C9.64696 8.96144 9.65049 8.96035 9.6541 8.95933C9.65824 8.95824 9.66239 8.95729 9.66667 8.95641L9.66864 8.956C9.67748 8.95423 9.68645 8.95308 9.69549 8.95247H9.69624C9.70093 8.95247 9.70569 8.95199 9.71052 8.95199C9.71657 8.95199 9.72221 8.95199 9.72812 8.9526C9.73424 8.95315 9.74029 8.95383 9.74641 8.95478C9.79685 8.9628 9.84484 8.99284 9.88617 9.0392C9.90187 9.05688 9.91601 9.07591 9.92838 9.09603C9.93653 9.10908 9.94422 9.12288 9.95149 9.13743C9.95441 9.14348 9.9572 9.14905 9.95992 9.15503C9.96699 9.1704 9.97338 9.18603 9.97895 9.202C9.99221 9.23939 10.0022 9.27786 10.0088 9.31702C10.0145 9.35135 10.0179 9.38601 10.019 9.42075C10.0195 9.43931 10.0195 9.45814 10.019 9.4771C10.0153 9.56533 9.99724 9.65241 9.96549 9.73487C9.96264 9.74241 9.95944 9.75002 9.95638 9.75764C9.95013 9.773 9.94326 9.78809 9.93586 9.80284C9.93035 9.81406 9.92457 9.82534 9.91832 9.83656C9.91424 9.84403 9.90996 9.85151 9.90567 9.85899C9.89473 9.87761 9.8829 9.8961 9.87019 9.91452L9.86251 9.92554C9.83246 9.96741 9.79902 10.0067 9.76245 10.043C9.72642 10.0791 9.68781 10.1125 9.64696 10.1429C9.60604 10.1732 9.56763 10.2068 9.53215 10.2433C9.42998 10.3505 9.40619 10.4451 9.42917 10.5169C9.43284 10.5281 9.43766 10.5391 9.44351 10.5494C9.45037 10.5612 9.45853 10.5721 9.46778 10.582L9.47138 10.5858L9.47505 10.5895C9.47872 10.593 9.48259 10.5965 9.48674 10.5999L9.49082 10.6031C9.50068 10.6107 9.51114 10.6175 9.52209 10.6235C9.52528 10.6252 9.52814 10.6269 9.53174 10.6285C9.54357 10.6343 9.55574 10.6393 9.56824 10.6433C9.57171 10.6444 9.57518 10.6455 9.57871 10.6466L9.58313 10.6477L9.58925 10.6493L9.59448 10.6506L9.60019 10.6519L9.60583 10.653L9.6112 10.6539C9.61515 10.6546 9.61923 10.6553 9.6233 10.6557L9.62718 10.6563L9.63425 10.657L9.6386 10.6575L9.64574 10.658H9.64995L9.65743 10.6584H9.68095L9.68768 10.658L9.69543 10.6575L9.70487 10.6566L9.71371 10.6556C9.71575 10.6556 9.71779 10.6551 9.71983 10.6546C9.74702 10.6507 9.77367 10.6435 9.79916 10.6332L9.80997 10.6286C9.81601 10.626 9.82213 10.6232 9.82771 10.6202C9.83967 10.6142 9.85129 10.6074 9.86244 10.6C9.87801 10.5898 9.89269 10.5784 9.90642 10.5658C9.90968 10.5629 9.91288 10.5597 9.91601 10.5568C9.91757 10.5553 9.91907 10.5538 9.92056 10.5522C9.92355 10.5491 9.92661 10.5462 9.9296 10.5428C9.95135 10.5189 9.97018 10.4925 9.98568 10.4642C10.1187 10.2223 10.2581 9.98393 10.4038 9.74948L10.4238 9.71746L10.444 9.68545C10.454 9.6692 10.4642 9.65323 10.4744 9.63732L10.4846 9.62141C10.5184 9.56839 10.5528 9.51571 10.5878 9.46344L10.6085 9.43244C10.6501 9.37079 10.6916 9.31083 10.7327 9.25387L10.7532 9.22566C10.7979 9.16401 10.8445 9.10364 10.8928 9.04478L10.912 9.0218C10.9152 9.01799 10.9181 9.01419 10.9216 9.01052C10.9279 9.00304 10.9342 8.99577 10.9404 8.9887C10.9435 8.98509 10.9464 8.98156 10.9498 8.97802L10.968 8.9575L10.9771 8.9475C10.9863 8.93765 10.9953 8.9282 11.0041 8.91916C11.0102 8.91304 11.0159 8.90699 11.0217 8.90128C11.0562 8.86607 11.0942 8.83446 11.1351 8.80707L11.1447 8.80095C11.1538 8.79483 11.1632 8.78912 11.1729 8.78395C11.3336 8.69273 11.4666 8.686 11.5432 8.76261C11.5896 8.80897 11.6153 8.88585 11.6138 8.99284C11.6138 8.99753 11.6138 9.00229 11.6135 9.00719V9.01242C11.6135 9.01731 11.6131 9.02221 11.6127 9.02717C11.6127 9.03329 11.612 9.03934 11.6114 9.04546C11.6108 9.05151 11.6104 9.05613 11.6098 9.06157C11.6098 9.06306 11.6096 9.06463 11.6093 9.06626C11.6089 9.07095 11.6083 9.07577 11.6076 9.0806C11.6076 9.08203 11.6076 9.08352 11.607 9.08502C11.6063 9.09148 11.6053 9.09786 11.6042 9.10425C11.6035 9.11037 11.6025 9.11608 11.6014 9.12206L11.5996 9.13219C11.5979 9.14185 11.5956 9.15136 11.5928 9.16074C11.5875 9.17835 11.5811 9.19555 11.5736 9.21227C11.5631 9.23524 11.5514 9.25761 11.5387 9.27936C11.5316 9.29146 11.5243 9.30336 11.5168 9.31512C11.509 9.32728 11.5009 9.33959 11.4924 9.35203C11.4709 9.38275 11.4487 9.41286 11.4255 9.4423L11.4149 9.45569C11.3771 9.5028 11.3381 9.54895 11.2978 9.59402L11.2851 9.60829C11.268 9.6274 11.2506 9.64663 11.2328 9.66594L11.2194 9.68048C11.2105 9.6902 11.2012 9.69993 11.1922 9.70971C11.1833 9.71943 11.174 9.72929 11.1646 9.73915L11.1366 9.76858L11.1083 9.79822L11.0797 9.82786C11.0606 9.8477 11.0413 9.86755 11.022 9.8874C10.7463 10.1701 10.4559 10.4519 10.3576 10.6275C10.3511 10.6389 10.3451 10.6508 10.3398 10.6628C10.3258 10.6947 10.32 10.7221 10.324 10.7442C10.3253 10.7514 10.3278 10.7584 10.3315 10.7648C10.337 10.7743 10.3438 10.7832 10.3516 10.7911C10.3552 10.7946 10.359 10.7979 10.363 10.8009C10.3833 10.8153 10.4077 10.8227 10.4326 10.822H10.4403L10.4483 10.8214L10.4562 10.8205L10.4628 10.8196C10.4637 10.8194 10.4646 10.8193 10.4655 10.819L10.4716 10.8179L10.4731 10.8175L10.4799 10.8161L10.4822 10.8155C10.4846 10.8149 10.4869 10.8143 10.4893 10.8136C10.4917 10.8129 10.495 10.812 10.4978 10.8111C10.5098 10.8075 10.5215 10.8032 10.533 10.7983C10.539 10.7958 10.5449 10.7932 10.5508 10.7903C10.5538 10.789 10.5569 10.7875 10.5597 10.786L10.5688 10.7816C10.5906 10.7703 10.6118 10.758 10.6325 10.7448L10.6415 10.7387C10.6446 10.7368 10.6476 10.7348 10.6506 10.7326L10.6596 10.7266L10.6644 10.7232L10.6775 10.7141C10.6896 10.7057 10.701 10.6971 10.7125 10.6883L10.7135 10.6875L10.7318 10.6733C10.7567 10.6536 10.7804 10.6338 10.8019 10.6151L10.8161 10.6026L10.8174 10.6014L10.8249 10.5948C10.8424 10.579 10.8581 10.5643 10.8711 10.5522L10.8764 10.547C10.8811 10.5426 10.8854 10.5384 10.8893 10.5349L10.8969 10.5273L10.8996 10.5247L10.9004 10.5239L10.9083 10.516L10.9133 10.5107L10.914 10.5103L10.9163 10.5081L10.9193 10.5054L10.9203 10.5045L10.9228 10.5022L10.9367 10.49L10.9444 10.4831C10.9486 10.4795 10.9526 10.4758 10.9566 10.4721L10.9658 10.4638C10.9675 10.4625 10.9692 10.461 10.9709 10.4595L10.9806 10.451L10.9948 10.4384L11.0025 10.4318C11.032 10.4061 11.068 10.3751 11.1093 10.3401L11.1262 10.3257L11.1542 10.3023L11.1828 10.2784C11.2202 10.2473 11.2604 10.2144 11.303 10.1802L11.3309 10.1577C11.3547 10.1388 11.3791 10.1195 11.4039 10.1C11.4138 10.0922 11.424 10.0844 11.4343 10.0766C11.4596 10.057 11.485 10.0375 11.5106 10.0183C11.569 9.97421 11.6291 9.93009 11.69 9.88713L11.7161 9.86891C11.7344 9.85634 11.7526 9.84369 11.7709 9.83139L11.7874 9.82024C11.8199 9.79815 11.853 9.7766 11.8863 9.7556L11.9028 9.7452L11.9192 9.735C11.9356 9.7248 11.9519 9.71481 11.9682 9.70509L11.9844 9.69537L12.0169 9.67647L12.0488 9.65819L12.0553 9.65465L12.0805 9.64079C12.091 9.63508 12.1015 9.62957 12.112 9.6242L12.1275 9.61618L12.1427 9.60857C12.148 9.60605 12.1532 9.6034 12.1584 9.60088C12.1925 9.58403 12.2273 9.56853 12.2627 9.55439C12.2722 9.55031 12.2818 9.54664 12.2912 9.54345L12.3191 9.53366C12.3274 9.53087 12.3356 9.52822 12.3434 9.52584L12.3461 9.52502C12.3503 9.52366 12.3546 9.52244 12.3587 9.52135L12.3599 9.52101C12.3686 9.5185 12.3773 9.51632 12.3858 9.51428H12.3864C12.4104 9.50851 12.4349 9.50436 12.4596 9.50184C12.4709 9.50069 12.4823 9.50008 12.4937 9.50015H12.4994C12.507 9.50015 12.5144 9.50062 12.5216 9.50137C12.525 9.50137 12.5283 9.50205 12.5316 9.50246H12.5329C12.5362 9.50286 12.5395 9.50334 12.5427 9.50409C12.5459 9.5047 12.5492 9.50524 12.5523 9.50599H12.5533C12.5565 9.50667 12.5594 9.50749 12.5627 9.50844C12.58 9.51326 12.5964 9.52074 12.6115 9.53053C12.6189 9.53536 12.6259 9.54079 12.6322 9.54684L12.6341 9.54861C12.6353 9.5497 12.6365 9.55085 12.6375 9.55201L12.6409 9.55561C12.6682 9.58423 12.6908 9.61706 12.7078 9.65282L12.7103 9.65894C12.7161 9.67253 12.7207 9.6866 12.7239 9.70094C12.7336 9.74486 12.7299 9.79067 12.7132 9.83248C12.7069 9.84934 12.6992 9.86558 12.6902 9.88108C12.669 9.9167 12.6439 9.9498 12.6155 9.97978L12.6094 9.98624C12.6004 9.99576 12.591 10.0053 12.5811 10.0148C12.5768 10.0191 12.5722 10.0233 12.5677 10.0276L12.5537 10.0404L12.5465 10.0469C12.5289 10.0625 12.5109 10.0777 12.4926 10.0923C12.4815 10.1013 12.4704 10.1101 12.4591 10.1187C12.4193 10.1492 12.3787 10.1785 12.3374 10.2069C12.3124 10.224 12.2873 10.2408 12.2619 10.2574C12.1994 10.2984 12.1363 10.3384 12.0725 10.3772C11.9388 10.4595 11.7905 10.5474 11.6325 10.6431L11.5915 10.6679C11.5467 10.6952 11.5045 10.7213 11.4646 10.7462L11.4446 10.7588L11.4066 10.7831C11.3815 10.7992 11.3564 10.8155 11.3313 10.8317L11.3111 10.845C11.3013 10.8514 11.2915 10.858 11.2817 10.8645L11.2721 10.8706L11.2428 10.8904L11.2272 10.9011L11.209 10.9137L11.192 10.9255C11.1637 10.9455 11.1373 10.9646 11.1131 10.9828L11.1039 10.9897C11.0897 11.0005 11.0755 11.0115 11.0616 11.0227C11.0406 11.0397 11.0214 11.0558 11.0042 11.0714L10.9958 11.0791C10.991 11.0835 10.9862 11.0879 10.9817 11.0923C10.9785 11.0953 10.9756 11.0984 10.9723 11.1013L10.968 11.1057C10.9583 11.1155 10.9488 11.1254 10.9396 11.1357L10.9351 11.1409C10.9251 11.1524 10.9164 11.1635 10.9088 11.1743L10.9054 11.1791C10.8994 11.1878 10.8939 11.1968 10.8889 11.2061C10.8877 11.2084 10.8865 11.2107 10.8853 11.213L10.882 11.2199L10.8798 11.225L10.8783 11.2284L10.8772 11.2314L10.8756 11.2356C10.8714 11.2471 10.8685 11.259 10.8668 11.2711L10.8662 11.2753L10.8658 11.2793V11.3007C10.8658 11.3025 10.8658 11.3042 10.8663 11.3061L10.8666 11.3094C10.8666 11.3112 10.8671 11.3129 10.8673 11.3148C10.8676 11.3165 10.8681 11.3197 10.8686 11.3222V11.3226C10.8691 11.325 10.8696 11.3273 10.8702 11.3296C10.8708 11.332 10.8714 11.3347 10.8722 11.3372C10.8734 11.342 10.8751 11.3468 10.8768 11.3515C10.8779 11.3544 10.8789 11.3572 10.88 11.36C10.88 11.3605 10.8804 11.3611 10.8807 11.3617L10.8832 11.3672L10.8866 11.3747C10.8902 11.3825 10.8942 11.3901 10.8986 11.3975L10.9031 11.4053L10.9077 11.413C10.9085 11.4143 10.9095 11.4156 10.9105 11.4167L10.912 11.4183L10.9137 11.4198L10.9155 11.4212C10.918 11.423 10.9208 11.4245 10.9237 11.4255C10.9253 11.426 10.9269 11.4264 10.9286 11.4268C10.9678 11.4357 11.0484 11.4033 11.1555 11.3467C11.1616 11.3434 11.1683 11.34 11.1747 11.3365L11.2073 11.3187L11.2232 11.3099C11.2346 11.3038 11.2462 11.2969 11.258 11.2902L11.2795 11.278C11.4211 11.1965 11.5902 11.0919 11.7651 10.9896C11.7815 10.98 11.7979 10.9705 11.8144 10.961L11.8474 10.9399C11.8857 10.9179 11.9243 10.8962 11.963 10.8748C12.0117 10.848 12.0608 10.8219 12.1103 10.7966L12.1427 10.7803C12.1642 10.7697 12.1854 10.7593 12.2064 10.7493C12.2471 10.73 12.2882 10.7116 12.3298 10.6943L12.3526 10.685L12.3553 10.6839C12.476 10.6362 12.5853 10.6067 12.6738 10.6067C12.6929 10.6064 12.7121 10.6081 12.7309 10.6113H12.7316C12.7376 10.6124 12.7431 10.6137 12.7488 10.615H12.7498C12.7643 10.6187 12.7783 10.6239 12.7916 10.6306C12.8103 10.6403 12.8271 10.6531 12.8413 10.6686C12.8479 10.6759 12.8536 10.6837 12.8587 10.692C12.8683 10.7066 12.8757 10.7224 12.8811 10.739C12.8833 10.7455 12.8852 10.7518 12.8872 10.7585C12.9015 10.81 12.9001 10.8646 12.8831 10.9152Z" fill="#FF9D00"/>
<path fill-rule="evenodd" clip-rule="evenodd" d="M12.0821 7.22383V7.19046C12.0821 4.34541 9.77655 2.03906 6.93129 2.03906C4.08611 2.03906 1.77962 4.34554 1.77962 7.19046V7.20161C1.77949 7.20902 1.77942 7.21643 1.77962 7.22383C1.77996 7.23491 1.78007 7.24599 1.77996 7.25707L1.78031 7.28155L1.78051 7.29031C1.78051 7.29439 1.78065 7.2984 1.78078 7.30248C1.78099 7.30894 1.78112 7.31547 1.78112 7.32192L1.78187 7.34837L1.78295 7.37943L1.78329 7.38963L1.78465 7.42178V7.42334C1.7852 7.43592 1.78588 7.44843 1.78649 7.46093L1.78656 7.46189C1.78724 7.47466 1.78792 7.48751 1.78874 7.50036C1.78942 7.51219 1.79009 7.52402 1.79097 7.53584L1.79112 7.53795C1.79171 7.54808 1.79239 7.55827 1.79315 7.5684L1.79335 7.57112L1.7956 7.60049L1.79581 7.60239C1.79621 7.6081 1.79662 7.61381 1.79716 7.61932C1.80122 7.66833 1.80596 7.71734 1.81137 7.76621L1.81171 7.76927L1.81585 7.80523L1.82048 7.84296L1.82387 7.86858L1.82544 7.88062C1.82906 7.90835 1.83298 7.93602 1.8372 7.96361L1.83748 7.96545L1.84148 7.99155C1.86089 8.11588 1.88492 8.23946 1.91353 8.36202L1.91388 8.36351L1.91605 8.37269L1.92223 8.39886L1.92604 8.39431C2.07559 8.21553 2.29012 8.11697 2.53014 8.11697C2.72251 8.11697 2.91985 8.18059 3.11766 8.30601C3.24885 8.38934 3.39391 8.53692 3.54319 8.72256C3.68131 8.53073 3.87491 8.40321 4.09637 8.36841C4.1386 8.36175 4.18128 8.35842 4.22403 8.35835C4.7295 8.35835 5.03395 8.79699 5.14897 9.19159C5.2058 9.32489 5.47967 9.93205 5.89269 10.3428C6.52051 10.97 6.67761 11.6172 6.36689 12.3102H6.36798C6.38912 12.3126 6.41039 12.3147 6.43181 12.3167C6.44452 12.3179 6.45716 12.3192 6.46994 12.3202L6.47443 12.3206L6.5025 12.323L6.52833 12.3251C6.55294 12.327 6.57761 12.3287 6.60236 12.3303L6.622 12.3315L6.63757 12.3324L6.64722 12.333L6.67761 12.3345L6.6859 12.3349L6.71778 12.3363L6.75326 12.3376L6.78174 12.3385L6.7865 12.3386C6.79255 12.3389 6.7986 12.3391 6.80465 12.3391L6.81118 12.3393C6.85128 12.3402 6.89132 12.3407 6.93143 12.3406H6.97398L7.00436 12.3403C7.01184 12.34 7.01925 12.34 7.0268 12.34H7.03862L7.04889 12.3397C7.0529 12.3395 7.05691 12.3394 7.06099 12.3394H7.07316L7.09701 12.3388L7.13291 12.3376L7.1724 12.3358C7.18382 12.3354 7.1951 12.3348 7.20639 12.3342L7.21856 12.3335L7.23664 12.3325L7.24724 12.3319L7.25526 12.3314L7.29177 12.329L7.3282 12.3264L7.3613 12.3237L7.38455 12.3217L7.41011 12.3194C7.4528 12.3156 7.49535 12.3111 7.5379 12.306L7.56693 12.3026C7.26111 11.6125 7.41942 10.9681 8.0446 10.3434C8.45673 9.93158 8.7306 9.32442 8.7877 9.19105C8.90279 8.79652 9.20705 8.35787 9.71265 8.35787C9.75541 8.35787 9.79816 8.36127 9.84038 8.36793C10.0616 8.40274 10.2552 8.53026 10.3936 8.72209C10.5429 8.53651 10.6879 8.3888 10.8192 8.30546C11.0169 8.18012 11.2144 8.11649 11.4066 8.11649C11.6184 8.11649 11.8104 8.1933 11.9554 8.33422C11.958 8.32273 11.9606 8.31124 11.9631 8.29968L11.9705 8.26529C11.9732 8.25271 11.9758 8.24014 11.9783 8.22756C11.9828 8.20534 11.9873 8.18311 11.9916 8.16067C11.9961 8.13743 12.0004 8.11404 12.0044 8.09066L12.0066 8.07802C12.0078 8.07054 12.0091 8.06306 12.0105 8.05552C12.0128 8.04382 12.0147 8.03213 12.0166 8.0203L12.0174 8.01582L12.0222 7.98503L12.0269 7.95382V7.95355C12.0304 7.93051 12.0337 7.90747 12.0367 7.88442L12.0375 7.87871L12.0418 7.84622L12.0452 7.81849L12.0514 7.76383L12.0537 7.74188L12.0543 7.7359C12.0556 7.72407 12.0569 7.71224 12.0579 7.70041V7.69946C12.0588 7.69008 12.0598 7.68063 12.0606 7.67118C12.0654 7.61762 12.0695 7.56378 12.0728 7.50974C12.0734 7.5009 12.0738 7.492 12.0744 7.48309V7.48269L12.0762 7.44931L12.0766 7.44183C12.0777 7.41926 12.0786 7.3967 12.0794 7.37413V7.37331L12.0797 7.36448C12.08 7.35707 12.0803 7.34959 12.0803 7.34211L12.0804 7.33912C12.0807 7.33212 12.081 7.32491 12.081 7.31778L12.0812 7.31166C12.0814 7.30452 12.0816 7.29745 12.0816 7.29031L12.0817 7.28426C12.0819 7.27522 12.0821 7.26612 12.0821 7.25707V7.22383ZM5.65355 12.37C6.06154 11.7717 6.03258 11.3227 5.47287 10.7633C4.91303 10.2038 4.58722 9.3856 4.58722 9.3856C4.58722 9.3856 4.46562 8.91038 4.18828 8.95402C3.91094 8.99766 3.70749 9.7078 4.2882 10.1425C4.86885 10.5772 4.17264 10.872 3.94914 10.464C3.72563 10.056 3.11541 9.00738 2.79905 8.80678C2.48269 8.60619 2.26021 8.71862 2.33478 9.13205C2.37183 9.33727 2.71633 9.68754 3.0382 10.0148C3.36475 10.3468 3.66798 10.6551 3.60314 10.7642C3.47446 10.9808 3.02127 10.5096 3.02127 10.5096C3.02127 10.5096 1.60221 9.21824 1.29332 9.55479C1.00851 9.86496 1.4477 10.1286 2.12447 10.5351C2.18198 10.5696 2.24125 10.6052 2.30195 10.6419C3.07626 11.1107 3.13648 11.2343 3.02657 11.4117C2.98599 11.4772 2.72679 11.3216 2.40799 11.1303C1.86452 10.8039 1.14793 10.3737 1.04672 10.7588C0.959163 11.0921 1.48638 11.2963 1.96452 11.4815C2.36285 11.6358 2.72721 11.7769 2.67358 11.9685C2.61804 12.1671 2.31698 12.0014 1.98791 11.8203C1.61846 11.617 1.21366 11.3943 1.08118 11.6456C0.830825 12.1208 2.80844 12.6802 2.82475 12.6843C3.46372 12.85 5.08643 13.2012 5.65355 12.37ZM8.28183 12.37C7.87384 11.7717 7.9028 11.3227 8.46258 10.7633C9.02236 10.2038 9.34816 9.3856 9.34816 9.3856C9.34816 9.3856 9.46977 8.91038 9.74711 8.95402C10.0245 8.99766 10.2279 9.7078 9.64726 10.1425C9.06654 10.5772 9.76275 10.872 9.98625 10.464C10.2098 10.056 10.8196 9.00738 11.136 8.80678C11.4523 8.60619 11.675 8.71862 11.6003 9.13205C11.5634 9.33727 11.2188 9.68754 10.8969 10.0148C10.5704 10.3468 10.2671 10.6551 10.3319 10.7642C10.4606 10.9808 10.9141 10.5094 10.9141 10.5094C10.9141 10.5094 12.3331 9.21804 12.6421 9.55458C12.9269 9.86469 12.4877 10.1284 11.8109 10.5349C11.7516 10.5704 11.6925 10.606 11.6334 10.6417C10.8591 11.1105 10.7989 11.2341 10.9087 11.4114C10.9494 11.477 11.2086 11.3213 11.5273 11.13C12.0709 10.8037 12.7875 10.3734 12.8887 10.7586C12.9763 11.0919 12.449 11.2961 11.9709 11.4813C11.5725 11.6356 11.2082 11.7767 11.2617 11.9683C11.3172 12.1668 11.6182 12.0012 11.9472 11.8201C12.3167 11.6168 12.7215 11.3939 12.8539 11.6454C13.1044 12.1209 11.1264 12.6797 11.1104 12.6838C10.4715 12.85 8.84875 13.2012 8.28183 12.37Z" fill="#FFD21E"/>
<path fill-rule="evenodd" clip-rule="evenodd" d="M8.60411 5.78453C8.68446 5.81295 8.74421 5.89941 8.80104 5.98173C8.87785 6.09294 8.94936 6.19646 9.05908 6.13814C9.1885 6.06928 9.29461 5.96365 9.36395 5.83449C9.43335 5.70534 9.46292 5.55856 9.44892 5.41264C9.43845 5.30352 9.40392 5.19809 9.34777 5.10395C9.29162 5.00979 9.21528 4.92926 9.12433 4.86817C9.03331 4.80707 8.92985 4.76692 8.8215 4.75062C8.71308 4.73431 8.60242 4.74226 8.49746 4.77387C8.39251 4.80547 8.29591 4.85995 8.21455 4.93338C8.13318 5.0068 8.06908 5.09735 8.02693 5.19851C7.98479 5.29968 7.96555 5.40893 7.97065 5.51841C7.97582 5.62792 8.00511 5.73484 8.05657 5.83164C8.10742 5.92728 8.22026 5.88215 8.33935 5.83449C8.43268 5.79718 8.52995 5.75829 8.60411 5.78453ZM5.11187 5.78453C5.03152 5.81295 4.97177 5.89948 4.91494 5.98173C4.83813 6.09301 4.76655 6.19646 4.65691 6.13814C4.49414 6.05195 4.36932 5.90818 4.30675 5.73498C4.24419 5.56174 4.24839 5.37142 4.31851 5.2011C4.38863 5.03079 4.51967 4.8927 4.68607 4.81374C4.85247 4.73478 5.04231 4.72062 5.21859 4.77401C5.35896 4.81627 5.48363 4.8992 5.57689 5.0123C5.67015 5.1254 5.72773 5.2636 5.74248 5.40944C5.75716 5.55528 5.72827 5.70221 5.65948 5.83164C5.60857 5.92728 5.49573 5.88215 5.37663 5.83456C5.28323 5.79718 5.1861 5.75829 5.11187 5.78453ZM8.06384 8.96246C8.61737 8.5264 8.82069 7.81442 8.82069 7.37584C8.82069 7.02917 8.58746 7.13827 8.21407 7.32316L8.193 7.33356C7.85027 7.5033 7.39401 7.72932 6.89317 7.72932C6.39226 7.72932 5.936 7.5033 5.59334 7.33349C5.20785 7.14255 4.96606 7.02278 4.96606 7.37591C4.96606 7.82836 5.18236 8.57126 5.77606 9.00284C5.85443 8.84384 5.96476 8.70273 6.10017 8.58826C6.2355 8.47378 6.39307 8.38848 6.56288 8.33763C6.62215 8.31996 6.68319 8.42199 6.74566 8.52647C6.80596 8.62721 6.86761 8.73026 6.93028 8.73026C6.9971 8.73026 7.0627 8.6287 7.1268 8.52959C7.19376 8.42593 7.25908 8.32499 7.32223 8.34517C7.64002 8.44721 7.90587 8.66847 8.06384 8.96246Z" fill="#32343D"/>
<path d="M8.06304 8.96668C7.77476 9.19386 7.39158 9.34619 6.89257 9.34619C6.42374 9.34619 6.05708 9.21174 5.77539 9.00706C5.85377 8.84807 5.96409 8.70688 6.0995 8.59248C6.23484 8.47801 6.39241 8.3927 6.56221 8.34185C6.67858 8.30712 6.80196 8.73448 6.92962 8.73448C7.06625 8.73448 7.19792 8.3099 7.32156 8.3494C7.63928 8.4515 7.90507 8.67276 8.06304 8.96668Z" fill="#FF323D"/>
<path fill-rule="evenodd" clip-rule="evenodd" d="M3.7876 6.40596C3.72174 6.45001 3.64602 6.47713 3.56716 6.48488C3.48831 6.4927 3.40875 6.48087 3.33556 6.45048C3.27705 6.42635 3.22389 6.39087 3.17913 6.34607C3.13437 6.30134 3.09889 6.24819 3.07474 6.18966C3.04442 6.11645 3.03262 6.03692 3.04042 5.95807C3.04821 5.87922 3.07534 5.80349 3.1194 5.73762C3.17234 5.65836 3.24758 5.59659 3.33564 5.56012C3.4237 5.52364 3.52059 5.5141 3.61406 5.53271C3.70754 5.55131 3.79339 5.59723 3.86076 5.66462C3.92814 5.73205 3.974 5.81797 3.99254 5.91144C4.01112 6.0049 4.00156 6.10177 3.9651 6.1898C3.92863 6.27782 3.86681 6.35301 3.7876 6.40596ZM10.6812 6.40596C10.6153 6.45001 10.5396 6.47713 10.4608 6.48488C10.3818 6.4927 10.3023 6.48087 10.2291 6.45048C10.1706 6.42628 10.1174 6.39087 10.0727 6.34607C10.028 6.30134 9.99248 6.24819 9.96828 6.18966C9.93803 6.11645 9.92627 6.03692 9.93402 5.95807C9.94184 5.87922 9.96896 5.80349 10.0129 5.73762C10.0525 5.67835 10.1048 5.62866 10.1659 5.592C10.227 5.55537 10.2954 5.53276 10.3663 5.52579C10.4373 5.51882 10.5089 5.52767 10.5759 5.55169C10.643 5.57573 10.7039 5.61434 10.7543 5.66475C10.8217 5.73212 10.8676 5.81797 10.8862 5.91144C10.9048 6.0049 10.8952 6.10177 10.8587 6.1898C10.8222 6.27782 10.7605 6.35301 10.6812 6.40596Z" fill="#FFAD03"/>
</svg>
