<svg width="14" height="14" viewBox="0 0 14 14" fill="none" xmlns="http://www.w3.org/2000/svg">
<path d="M11.9996 1H9.59961V3.39998H11.9996V1Z" fill="black"/>
<path d="M13.1998 1H10.7998V3.39998H13.1998V1Z" fill="#F7D046"/>
<path d="M2.39998 1H0V3.39998H2.39998V1Z" fill="black"/>
<path d="M2.39998 3.39844H0V5.79842H2.39998V3.39844Z" fill="black"/>
<path d="M2.39998 5.80078H0V8.20076H2.39998V5.80078Z" fill="black"/>
<path d="M2.39998 8.19922H0V10.5992H2.39998V8.19922Z" fill="black"/>
<path d="M2.39998 10.6016H0V13.0015H2.39998V10.6016Z" fill="black"/>
<path d="M3.60018 1H1.2002V3.39998H3.60018V1Z" fill="#F7D046"/>
<path d="M13.1998 3.39844H10.7998V5.79842H13.1998V3.39844Z" fill="#F2A73B"/>
<path d="M3.60018 3.39844H1.2002V5.79842H3.60018V3.39844Z" fill="#F2A73B"/>
<path d="M9.60018 3.39844H7.2002V5.79842H9.60018V3.39844Z" fill="black"/>
<path d="M10.8004 3.39844H8.40039V5.79842H10.8004V3.39844Z" fill="#F2A73B"/>
<path d="M5.99959 3.39844H3.59961V5.79842H5.99959V3.39844Z" fill="#F2A73B"/>
<path d="M8.39998 5.80078H6V8.20076H8.39998V5.80078Z" fill="#EE792F"/>
<path d="M10.8004 5.80078H8.40039V8.20076H10.8004V5.80078Z" fill="#EE792F"/>
<path d="M5.99959 5.80078H3.59961V8.20076H5.99959V5.80078Z" fill="#EE792F"/>
<path d="M7.19979 8.19922H4.7998V10.5992H7.19979V8.19922Z" fill="black"/>
<path d="M8.39998 8.19922H6V10.5992H8.39998V8.19922Z" fill="#EB5829"/>
<path d="M13.1998 5.80078H10.7998V8.20076H13.1998V5.80078Z" fill="#EE792F"/>
<path d="M3.60018 5.80078H1.2002V8.20076H3.60018V5.80078Z" fill="#EE792F"/>
<path d="M11.9996 8.19922H9.59961V10.5992H11.9996V8.19922Z" fill="black"/>
<path d="M13.1998 8.19922H10.7998V10.5992H13.1998V8.19922Z" fill="#EB5829"/>
<path d="M11.9996 10.6016H9.59961V13.0015H11.9996V10.6016Z" fill="black"/>
<path d="M3.60018 8.19922H1.2002V10.5992H3.60018V8.19922Z" fill="#EB5829"/>
<path d="M13.1998 10.6016H10.7998V13.0015H13.1998V10.6016Z" fill="#EA3326"/>
<path d="M3.60018 10.6016H1.2002V13.0015H3.60018V10.6016Z" fill="#EA3326"/>
</svg>
