<svg width="14" height="14" viewBox="0 0 14 14" fill="none" xmlns="http://www.w3.org/2000/svg">
<g clip-path="url(#clip0_1042_10)">
<path d="M4.17692 0.00371429C4.05356 0.0236419 3.90553 0.0881687 3.80115 0.167879C3.48515 0.407958 3.24033 0.917536 3.1369 1.55237C3.09799 1.79245 3.07142 2.12553 3.07142 2.37985C3.07142 2.67971 3.10653 3.06307 3.15683 3.32782C3.16821 3.38666 3.17391 3.43886 3.16916 3.44265C3.16537 3.44644 3.11887 3.4844 3.06667 3.52615C2.88828 3.66848 2.68426 3.88769 2.54381 4.08793C2.27432 4.47034 2.09971 4.90495 2.02665 5.37562C1.99818 5.56161 1.99059 5.93738 2.01336 6.12338C2.06365 6.55229 2.19271 6.91478 2.41381 7.24692L2.48593 7.35415L2.46505 7.38926C2.31702 7.63788 2.19081 7.99752 2.13198 8.34293C2.08548 8.61622 2.07979 8.68929 2.07979 9.05557C2.07979 9.42472 2.08453 9.49779 2.12818 9.75305C2.18037 10.0586 2.28665 10.3822 2.40527 10.5976C2.44418 10.6678 2.53907 10.8139 2.55046 10.8215C2.55425 10.8234 2.54287 10.8585 2.52484 10.8994C2.38819 11.1983 2.27147 11.5959 2.22307 11.9309C2.18891 12.1605 2.18417 12.2345 2.18417 12.4765C2.18417 12.7849 2.20125 12.9348 2.26578 13.1806L2.27527 13.2166H2.68141H3.0885L3.06193 13.1663C2.89777 12.8627 2.88258 12.299 3.02397 11.7363C3.0885 11.4763 3.16157 11.2856 3.29822 11.0227L3.37982 10.8633V10.7656C3.37982 10.6745 3.37793 10.664 3.34851 10.6042C3.32573 10.5587 3.29537 10.5198 3.24128 10.4666C3.14923 10.3774 3.08281 10.2835 3.02967 10.1677C2.79623 9.66099 2.75068 8.9085 2.91485 8.26701C2.98317 7.99941 3.09609 7.76124 3.21471 7.63124C3.29537 7.54203 3.33712 7.4424 3.33712 7.33896C3.33712 7.23173 3.29916 7.14348 3.21376 7.05144C2.96893 6.78954 2.81806 6.47068 2.76397 6.09966C2.6871 5.5711 2.8266 4.99509 3.14354 4.53867C3.45384 4.09076 3.8894 3.80324 4.37621 3.72638C4.48533 3.70834 4.68935 3.71119 4.80322 3.73207C4.92754 3.7539 5.00534 3.74725 5.08506 3.70929C5.18375 3.6628 5.2331 3.60491 5.29098 3.47206C5.34221 3.35345 5.38207 3.28892 5.4893 3.15512C5.61836 2.99475 5.74266 2.88562 5.94193 2.75372C6.16969 2.60474 6.42875 2.49656 6.68686 2.44437C6.78079 2.42539 6.82444 2.42254 7 2.42254C7.17556 2.42254 7.21921 2.42539 7.31314 2.44437C7.69176 2.52124 8.06755 2.71672 8.36741 2.99379C8.43193 3.05358 8.58661 3.24526 8.63596 3.32499C8.65494 3.35629 8.68816 3.42272 8.70902 3.47206C8.7669 3.60491 8.81625 3.6628 8.91494 3.70929C8.99181 3.7463 9.07246 3.7539 9.19203 3.73396C9.38087 3.7017 9.52605 3.70455 9.7111 3.74251C10.3412 3.86966 10.8897 4.38873 11.1326 5.0843C11.3442 5.69446 11.2844 6.3331 10.9694 6.82084C10.9162 6.90341 10.8631 6.96983 10.7862 7.05144C10.6202 7.22889 10.6202 7.44904 10.7853 7.63124C11.0567 7.92825 11.2265 8.65893 11.1753 9.30325C11.1411 9.72838 11.032 10.1089 10.8821 10.3243C10.8555 10.3623 10.8005 10.4268 10.7587 10.4666C10.7046 10.5198 10.6743 10.5587 10.6515 10.6042C10.6221 10.664 10.6202 10.6745 10.6202 10.7656V10.8633L10.7018 11.0227C10.8384 11.2856 10.9115 11.4763 10.976 11.7363C11.1155 12.2914 11.1032 12.8437 10.9438 13.1578C10.9305 13.1844 10.9191 13.2091 10.9191 13.2119C10.9191 13.2148 11.1003 13.2166 11.3224 13.2166H11.7247L11.7352 13.1758C11.7409 13.154 11.7504 13.1208 11.7551 13.1018C11.7655 13.0601 11.7864 12.9367 11.8035 12.8181C11.8196 12.6985 11.8196 12.2582 11.8035 12.1254C11.7428 11.6433 11.6412 11.2609 11.4752 10.8994C11.4571 10.8585 11.4457 10.8234 11.4495 10.8215C11.4543 10.8187 11.4809 10.7807 11.5093 10.738C11.7162 10.4249 11.8433 10.0311 11.9079 9.51107C11.925 9.36777 11.925 8.75192 11.9079 8.61432C11.8623 8.25943 11.8073 8.01839 11.7162 7.77452C11.6782 7.67299 11.5776 7.45853 11.535 7.38926L11.5141 7.35415L11.5862 7.24692C11.8073 6.91478 11.9363 6.55229 11.9866 6.12338C12.0094 5.93738 12.0018 5.56161 11.9734 5.37562C11.8993 4.90399 11.7257 4.47129 11.4562 4.08793C11.3157 3.88769 11.1117 3.66848 10.9333 3.52615C10.8811 3.4844 10.8346 3.44644 10.8308 3.44265C10.8261 3.43886 10.8318 3.38666 10.8432 3.32782C10.958 2.72904 10.9542 1.98225 10.8337 1.39864C10.7293 0.890017 10.5395 0.485771 10.2947 0.252335C10.0992 0.0663436 9.89994 -0.0133668 9.6608 0.00181616C9.11232 0.0340798 8.67012 0.665119 8.49551 1.6596C8.46704 1.81997 8.44238 2.00786 8.44238 2.0591C8.44238 2.07903 8.43858 2.09516 8.43384 2.09516C8.42909 2.09516 8.39209 2.07618 8.35223 2.05246C7.92901 1.80194 7.45833 1.66814 7 1.66814C6.54167 1.66814 6.07099 1.80194 5.64777 2.05246C5.60791 2.07618 5.57091 2.09516 5.56616 2.09516C5.56142 2.09516 5.55762 2.07903 5.55762 2.0591C5.55762 2.00596 5.532 1.81238 5.50449 1.6596C5.34601 0.766655 4.98257 0.175471 4.49957 0.0264881C4.43314 0.00656058 4.2443 -0.00672396 4.17692 0.00371429ZM4.33825 0.776146C4.47489 0.884324 4.62672 1.19368 4.71402 1.54004C4.73015 1.60266 4.74723 1.67478 4.75198 1.70135C4.75577 1.72698 4.76621 1.78486 4.77475 1.82946C4.81176 2.03064 4.82884 2.24794 4.83074 2.51269L4.83169 2.77365L4.76621 2.87043L4.70074 2.96817H4.54796C4.36957 2.96817 4.19211 2.99096 4.02224 3.0365C3.96152 3.05169 3.90268 3.06687 3.8913 3.06972C3.87327 3.07351 3.87042 3.06782 3.85998 2.99C3.80399 2.56773 3.80684 2.09991 3.86853 1.71084C3.93684 1.27718 4.09627 0.884324 4.25189 0.768555C4.2889 0.741034 4.29554 0.741983 4.33825 0.776146ZM9.74906 0.769502C9.843 0.838774 9.94644 1.02287 10.0233 1.2582C10.178 1.72887 10.2216 2.37509 10.14 2.99C10.1296 3.06782 10.1267 3.07351 10.1087 3.06972C10.0973 3.06687 10.0385 3.05169 9.97775 3.0365C9.80789 2.99096 9.63043 2.96817 9.45204 2.96817H9.29926L9.23379 2.87043L9.16831 2.77365L9.16926 2.51269C9.17116 2.14451 9.20532 1.85698 9.28692 1.53719C9.37328 1.19368 9.52605 0.884324 9.66175 0.776146C9.70446 0.741983 9.7111 0.741034 9.74906 0.769502Z" fill="white"/>
<path d="M6.85309 5.5454C6.64716 5.56534 6.59118 5.57292 6.49248 5.59286C6.33211 5.62607 6.11765 5.70009 5.96868 5.77316C5.45056 6.02652 5.09377 6.44879 4.98464 6.93749C4.96281 7.03429 4.95996 7.06655 4.95996 7.22977C4.95996 7.39108 4.96281 7.42619 4.98369 7.51823C5.12888 8.15687 5.71721 8.6285 6.47826 8.71484C6.64337 8.73288 7.35697 8.73288 7.52208 8.71484C8.1332 8.64557 8.65891 8.3144 8.89519 7.84941C8.95781 7.72511 8.98818 7.64444 9.01665 7.51823C9.03753 7.42619 9.04038 7.39108 9.04038 7.22977C9.04038 7.06655 9.03753 7.03429 9.0157 6.93749C8.85722 6.22769 8.1683 5.66878 7.32375 5.56249C7.21368 5.54921 6.92521 5.53782 6.85309 5.5454ZM7.20798 6.06162C7.48982 6.092 7.77355 6.19258 8.00129 6.34441C8.12371 6.42602 8.29642 6.59683 8.37043 6.70881C8.46152 6.84734 8.51371 6.98873 8.53744 7.16049C8.54787 7.23926 8.54219 7.29904 8.51371 7.42619C8.46911 7.61597 8.33056 7.8143 8.14363 7.95285C8.05632 8.01642 7.87508 8.10848 7.76406 8.14453C7.5534 8.2119 7.4158 8.22424 6.92425 8.22045C6.60352 8.2176 6.54657 8.21475 6.45453 8.19768C6.14044 8.13884 5.89182 8.01357 5.71152 7.82285C5.56538 7.66912 5.49895 7.52868 5.4629 7.30189C5.44677 7.19655 5.47713 7.02195 5.53882 6.87486C5.61378 6.69551 5.80736 6.47252 5.99905 6.34441C6.22109 6.19638 6.51337 6.09105 6.78191 6.06258C6.88535 6.05119 7.10454 6.05119 7.20798 6.06162Z" fill="white"/>
<path d="M6.63729 6.75335C6.56517 6.79225 6.51487 6.89094 6.53006 6.964C6.54713 7.04277 6.6164 7.12249 6.72458 7.18797C6.78247 7.22307 6.78626 7.22781 6.78911 7.26292C6.791 7.2838 6.78342 7.34359 6.77298 7.39673C6.76159 7.44891 6.75305 7.50396 6.75305 7.51914C6.754 7.55995 6.79196 7.62637 6.83181 7.65863C6.86693 7.6871 6.87357 7.68804 6.97226 7.69089C7.06241 7.69374 7.08139 7.69184 7.11744 7.67476C7.21044 7.62921 7.23416 7.54571 7.2 7.38533C7.17153 7.25154 7.17722 7.23066 7.2484 7.18986C7.32335 7.1462 7.40308 7.06934 7.42679 7.01715C7.47235 6.91752 7.43058 6.80459 7.33 6.75239C7.30534 6.74006 7.27496 6.73438 7.23037 6.73438C7.16109 6.73438 7.1165 6.75051 7.03489 6.80269L6.98839 6.83212L6.95897 6.81408C6.83846 6.7429 6.81664 6.73438 6.74356 6.73532C6.69137 6.73532 6.66291 6.74006 6.63729 6.75335Z" fill="white"/>
<path d="M4.33328 5.65396C4.16532 5.70711 4.04006 5.83046 3.97554 6.00602C3.94422 6.08954 3.92904 6.22144 3.94232 6.2926C3.97363 6.46246 4.11312 6.61714 4.27161 6.65985C4.47088 6.71203 4.61986 6.67786 4.75176 6.54692C4.82862 6.47195 4.87038 6.40647 4.91213 6.30019C4.94249 6.22523 4.94439 6.21195 4.94439 6.10567L4.94534 5.9918L4.90549 5.91019C4.8419 5.78113 4.72709 5.68528 4.59424 5.65017C4.51927 5.63119 4.39876 5.63215 4.33328 5.65396Z" fill="white"/>
<path d="M9.40199 5.65095C9.27199 5.68606 9.15622 5.78284 9.09453 5.91001L9.05469 5.99162L9.05563 6.10549C9.05563 6.21177 9.05754 6.22506 9.08789 6.30001C9.12966 6.40629 9.17141 6.47177 9.24826 6.54674C9.38017 6.67769 9.52915 6.71185 9.72843 6.65967C9.84325 6.6293 9.95806 6.5325 10.0131 6.41958C10.0606 6.32374 10.0719 6.25447 10.0568 6.14533C10.0217 5.89577 9.87551 5.71453 9.6582 5.65095C9.59463 5.63197 9.47127 5.63197 9.40199 5.65095Z" fill="white"/>
</g>
<defs>
<clipPath id="clip0_1042_10">
<rect width="10" height="13.2198" fill="white" transform="translate(2)"/>
</clipPath>
</defs>
</svg>
