<svg width="14" height="14" viewBox="0 0 14 14" fill="none" xmlns="http://www.w3.org/2000/svg">
<path d="M12.8003 5.68229C13.1154 4.73682 13.0073 3.70197 12.5039 2.84116C11.7466 1.52407 10.2226 0.846712 8.73614 1.16188C8.40815 0.794302 8.00578 0.500634 7.5557 0.300333C7.10563 0.100032 6.61812 -0.00232678 6.12549 4.01309e-05C4.60616 4.01309e-05 3.25615 0.978427 2.78575 2.4225C1.80737 2.62477 0.96537 3.23625 0.47146 4.10179C-0.290555 5.41886 -0.116512 7.07461 0.904203 8.20355C0.589066 9.14904 0.697238 10.1839 1.20055 11.04C1.95787 12.3618 3.48193 13.0391 4.97306 12.724C5.63161 13.4672 6.58178 13.8952 7.579 13.8905C9.09833 13.8905 10.4483 12.9121 10.9187 11.468C11.8972 11.2658 12.7391 10.6543 13.2283 9.78877C13.9951 8.47168 13.821 6.81591 12.8003 5.68699V5.68229ZM11.7184 3.29742C12.0194 3.82425 12.1323 4.44047 12.0288 5.03785C12.01 5.02374 11.9724 5.00493 11.9489 4.99082L9.18302 3.39149C9.11341 3.35217 9.03482 3.33151 8.95487 3.33151C8.87493 3.33151 8.79634 3.35217 8.72673 3.39149L5.48578 5.26366V3.89013L8.16227 2.34255C9.40879 1.62286 10.9987 2.0509 11.7184 3.29742ZM5.48578 6.15266L6.84991 5.36242L8.21401 6.15266V7.72848L6.84991 8.51871L5.48578 7.72848V6.15266ZM6.12079 0.907853C6.7323 0.907853 7.32028 1.11955 7.79067 1.50996C7.77186 1.51937 7.73423 1.54288 7.70599 1.55699L4.94014 3.15163C4.79902 3.23161 4.71434 3.38213 4.71434 3.54674V7.29103L3.52425 6.60427V3.50909C3.52425 2.06972 4.68612 0.90788 6.12549 0.903177L6.12079 0.907853ZM1.26169 4.55811C1.56745 4.03125 2.04255 3.62672 2.61641 3.41506V6.70303C2.61641 6.86764 2.7011 7.01349 2.84222 7.09815L6.07846 8.96559L4.88368 9.65706L2.21189 8.11419C0.970074 7.3945 0.542007 5.8046 1.26169 4.55808V4.55811ZM1.99082 10.5931C1.68506 10.071 1.57686 9.45012 1.68035 8.85272C1.69917 8.86682 1.73679 8.88564 1.76031 8.89975L4.52618 10.4991C4.59579 10.5384 4.67438 10.5591 4.75433 10.5591C4.83427 10.5591 4.91286 10.5384 4.98247 10.4991L8.21871 8.62694V10.0005L5.54222 11.5433C4.2957 12.2583 2.7058 11.835 1.98611 10.5931H1.99082ZM7.58371 12.9827C6.97689 12.9827 6.38422 12.771 5.91853 12.3806C5.94719 12.3657 5.97543 12.35 6.00321 12.3336L8.76909 10.739C8.91018 10.659 8.99957 10.5085 8.99486 10.3439V6.60424L10.1849 7.291V10.3815C10.1849 11.8208 9.01838 12.9874 7.58371 12.9874V12.9827V12.9827ZM12.4475 9.33249C12.1417 9.85932 11.6619 10.2638 11.0928 10.4708V7.18283C11.0928 7.0182 11.0081 6.86767 10.867 6.78772L7.62603 4.91557L8.81612 4.22881L11.4926 5.77165C12.7391 6.49134 13.1625 8.08127 12.4428 9.32779L12.4475 9.33249H12.4475Z" fill="#6C707E"/>
</svg>
