<svg width="14" height="14" viewBox="0 0 14 14" fill="none" xmlns="http://www.w3.org/2000/svg">
<circle cx="7.07165" cy="7.07555" r="6.22399" fill="white"/>
<path fill-rule="evenodd" clip-rule="evenodd" d="M7 13.9981C8.38447 13.9981 9.73784 13.5876 10.889 12.8185C12.0401 12.0495 12.9373 10.9564 13.4672 9.67745C13.997 8.39854 14.1356 6.99127 13.8655 5.63359C13.5954 4.27591 12.9287 3.0288 11.9497 2.04997C10.9708 1.07114 9.7235 0.404547 8.36563 0.134488C7.00776 -0.135571 5.6003 0.00303139 4.32121 0.532772C3.04213 1.06251 1.94888 1.9596 1.17971 3.11058C0.410542 4.26157 0 5.61476 0 6.99903C0 8.85529 0.737497 10.6355 2.05025 11.9481C3.36301 13.2607 5.14348 13.9981 7 13.9981ZM7.7672 11.582L7.784 11.5372L8.12 10.6385L11.0124 2.60644H9.1868L7.0924 8.39884C7.0616 8.35685 6.9496 8.08248 6.7816 7.68214C6.342 6.62389 5.5384 4.68376 4.9364 3.79068C4.718 3.46872 4.3764 3.08238 3.9508 3.06558H3.92C3.4804 3.06558 3.248 3.45473 3.0604 3.81588C2.5228 4.84053 2.254 5.97718 1.988 7.09702C1.9292 7.34899 1.8704 7.60095 1.806 7.85291C1.79233 7.90609 1.7905 7.96162 1.80064 8.01559C1.81078 8.06955 1.83265 8.12063 1.86469 8.16522C1.89674 8.20981 1.93818 8.24682 1.9861 8.27364C2.03401 8.30046 2.08723 8.31644 2.142 8.32045C2.16979 8.32526 2.1982 8.32526 2.226 8.32045C2.30836 8.29583 2.38087 8.24586 2.4332 8.17767L2.4836 8.07689C2.63604 7.55897 2.87149 7.06921 3.1808 6.62669C3.3852 6.34673 3.7128 6.02197 3.9648 6.17875C4.29462 6.44226 4.54631 6.79071 4.6928 7.18661C4.6928 7.21461 4.718 7.2398 4.7292 7.265C5.07204 8.00017 5.37214 8.75453 5.628 9.52429C5.824 10.0842 6.02 10.6441 6.2468 11.1732C6.26155 11.2043 6.27463 11.236 6.286 11.2684C6.38663 11.6142 6.59571 11.9184 6.8824 12.1363C6.94151 12.1694 7.0066 12.1904 7.0739 12.1982C7.1412 12.206 7.20936 12.2003 7.27446 12.1816C7.33956 12.1628 7.4003 12.1314 7.45315 12.089C7.50601 12.0466 7.54994 11.9942 7.5824 11.9348C7.5824 11.9348 7.686 11.7416 7.7168 11.6772C7.73674 11.6472 7.75363 11.6153 7.7672 11.582Z" fill="#377DFF"/>
</svg>
