<svg version="1.2" xmlns="http://www.w3.org/2000/svg" viewBox="0 0 1544 1542" width="14" height="14">
	<title>logo-dark-svg</title>
	<defs>
		<clipPath clipPathUnits="userSpaceOnUse" id="cp1">
			<path d="m-12.07 4.97h9284.06v1538.81h-9284.06z"/>
		</clipPath>
		<clipPath clipPathUnits="userSpaceOnUse" id="cp2">
			<path d="m0.51 0.98h9284.14v1540.52h-9284.14z"/>
		</clipPath>
	</defs>
	<style>
		.s0 { fill: #ee7624 } 
	</style>
	<g id="Clip-Path" clip-path="url(#cp1)">
		<g id="Layer">
			<g id="Clip-Path" clip-path="url(#cp2)">
				<g id="Layer">
					<path id="Layer" class="s0" d="m1543.6 1541.4h-85.8v-1048.4c0-218.3-180.1-406.5-402.9-406.5h-561.6c-222.8 0-402.9 179.6-402.9 398.1 0 218.4 180.1 398 402.9 398h55.7c94.4 0 171.5 77 171.5 171.2 0 94.2-77.1 171.2-171.5 171.2h-548.6v-85.6h544.4c47.1 0 85.8-38.6 85.8-81.2 0-47-38.7-81.2-85.8-81.2h-55.7c-265.9-4.8-488.7-223-488.7-492.4 0-269.5 222.8-483.7 492.9-483.7h565.8c265.7 0 484.5 226.8 484.5 492.1z"/>
					<path id="Layer" class="s0" d="m553.4 818.2c120 4.2 235.8 111.2 235.8 239.6 0 128.4-107.2 239.6-240 239.6h-548.8v85.6h544.4c180.1 0 330-145.4 330-325.2 0-47-8.6-89.8-30.1-132.6-17.2-38.6-47-77-77.1-107-34.3-30-72.9-51.4-115.8-68.4-51.5-17.2-102.8-12.8-158.7-17.2-30 0-98.6-17.2-137.2-42.8-38.7-25.6-68.5-60-85.8-98.4-12.8-34.2-21.4-68.4-21.4-107 0-132.7 107.2-239.7 240-239.7h565.8c132.9 0 240 115.6 240 243.9v1052.6h85.8v-1048.2c0-179.9-145.7-333.9-325.8-333.9h-561.2c-180.1 0-330 145.4-330 325.3 0 47 8.6 89.8 30.1 132.6 17.2 38.6 42.9 77 77.1 107 30.1 30 72.9 51.4 111.4 68.4 21.5 8.6 42.9 12.8 68.5 17.2 60.1 4.2 98.6 8.6 102.8 8.6z"/>
					<path id="Layer" class="s0" d="m544.8 1541.4h-544.4v-85.6h544.4c222.8 0 402.9-179.8 402.9-398 0-218.2-180.1-398-402.9-398h-55.7c-94.4 0-171.5-77-171.5-171.2 0-94.2 77.1-171.2 171.5-171.2h565.8c94.4 0 171.5 81.2 171.5 175.4v1048.4h-85.8v-1048.2c0-47-38.6-89.8-81.3-89.8h-566c-47.1 0-81.3 38.6-81.3 81.2 0 42.6 38.6 81.2 85.7 81.2h55.7c270.1 0 488.7 218.2 488.7 483.6-4.2 273.8-227.2 492-497.3 492z"/>
				</g>
			</g>
		</g>
	</g>
</svg>