<svg width="20" height="20" viewBox="0 0 20 20" fill="none" xmlns="http://www.w3.org/2000/svg">
<path fill-rule="evenodd" clip-rule="evenodd" d="M3.75022 10.7699L4.466 9.23672L5.2025 7.65544C5.03275 7.42353 4.76675 7.28853 4.466 7.28853C4.1011 7.28853 3.78832 7.48769 3.63394 7.81852L2.50913 10.2285H1.25V11.4048H2.7524C3.19016 11.4048 3.5651 11.1662 3.75022 10.7692V10.7699ZM5.69907 6.58879L6.2304 5.44862C6.06465 5.39783 5.88821 5.37109 5.70576 5.37109H5.13099L5.69974 6.58879H5.69907Z" fill="#6C707E"/>
<path fill-rule="evenodd" clip-rule="evenodd" d="M4.4668 9.2367L5.53746 11.5672C5.82618 12.1954 6.41765 12.5743 7.10938 12.5743H7.49367L5.29953 7.81917C5.27213 7.76035 5.24006 7.70555 5.2033 7.65543L4.4668 9.2367ZM5.69986 6.58877L9.34895 14.4062C9.37969 14.4717 9.41578 14.5325 9.45655 14.5887L10.2826 12.8149L7.27378 6.36822C7.05858 5.90707 6.68298 5.58628 6.23119 5.44727L5.69986 6.58744V6.58877Z" fill="#6C707E"/>
<path fill-rule="evenodd" clip-rule="evenodd" d="M14.033 4.75049L10.3845 12.5927L10.2816 12.8139L9.45557 14.5876C9.64671 14.849 9.94411 15 10.2816 15C10.6913 15 11.0428 14.7761 11.2159 14.4045L16.1743 3.75H15.6022C14.9138 3.75 14.3244 4.1256 14.0336 4.75049H14.033ZM15.2654 7.81746L13.0712 12.5726H13.4555C14.1472 12.5726 14.7387 12.1937 15.0274 11.5655L16.0981 9.23498L16.8339 7.65505C16.6635 7.42247 16.3988 7.28747 16.0981 7.28747C15.7332 7.28747 15.4184 7.48596 15.2654 7.81746Z" fill="#6C707E"/>
<path fill-rule="evenodd" clip-rule="evenodd" d="M16.0983 9.23685L16.8141 10.77C16.9992 11.167 17.3742 11.4056 17.8119 11.4056H19.3143V10.2293H18.0545L16.9297 7.81932C16.9023 7.76118 16.8702 7.70637 16.8335 7.65625L16.0977 9.23618L16.0983 9.23685Z" fill="#6C707E"/>
</svg>
