<svg width="16" height="16" viewBox="0 0 116 73" fill="none" xmlns="http://www.w3.org/2000/svg">
<path fill-rule="evenodd" clip-rule="evenodd" d="M16.0469 45.0439L20.6409 35.2039L25.368 25.055C24.2784 23.5665 22.5712 22.7001 20.6409 22.7001C18.2989 22.7001 16.2914 23.9783 15.3006 26.1016L8.08135 41.5694H0V49.1189H9.64273C12.4523 49.1189 14.8588 47.5876 16.0469 45.0396V45.0439ZM28.555 18.209L31.9652 10.8911C30.9014 10.5651 29.769 10.3936 28.5979 10.3936H24.909L28.5593 18.209H28.555Z" fill="#6C707E"/>
<path fill-rule="evenodd" clip-rule="evenodd" d="M20.6411 35.2041L27.5129 50.1615C29.3659 54.1936 33.1621 56.6257 37.6017 56.6257H40.0682L25.9858 26.1062C25.8099 25.7287 25.604 25.3769 25.3681 25.0552L20.6411 35.2041ZM28.5552 18.2092L51.9757 68.3832C52.1731 68.8036 52.4047 69.1939 52.6663 69.5542L57.9681 58.17L38.6569 16.7937C37.2757 13.834 34.865 11.775 31.9653 10.8828L28.5552 18.2007V18.2092Z" fill="#6C707E"/>
<path fill-rule="evenodd" clip-rule="evenodd" d="M82.0446 6.42133L58.6284 56.754L57.9678 58.1738L52.666 69.5581C53.8928 71.2353 55.8016 72.2047 57.9678 72.2047C60.5972 72.2047 62.8535 70.7677 63.9645 68.3828L95.7881 0H92.1163C87.6981 0 83.9148 2.41067 82.0489 6.42133H82.0446ZM89.9544 26.1057L75.8721 56.6253H78.3385C82.7781 56.6253 86.5743 54.1932 88.4274 50.1611L95.2991 35.2037L100.022 25.0634C98.928 23.5707 97.2294 22.7042 95.2991 22.7042C92.9571 22.7042 90.9367 23.9782 89.9544 26.1057Z" fill="#6C707E"/>
<path fill-rule="evenodd" clip-rule="evenodd" d="M95.2992 35.2042L99.8932 45.0442C101.081 47.5922 103.488 49.1235 106.297 49.1235H115.94V41.574H107.854L100.635 26.1062C100.459 25.733 100.254 25.3813 100.018 25.0596L95.2949 35.1999L95.2992 35.2042Z" fill="#6C707E"/>
</svg>
