<svg width="16" height="16" viewBox="0 0 153 153" fill="none" xmlns="http://www.w3.org/2000/svg">
<path fill-rule="evenodd" clip-rule="evenodd" d="M76.9132 105.016L51.9132 51.6924C49.4826 46.507 44.6215 43.3957 38.8924 43.3957H34.1181L69.1007 118.066C70.5764 121.177 73.441 122.992 76.8264 122.992C80.2118 122.992 83.1632 121.177 84.5521 118.066L125.698 30H120.924C115.194 30 110.333 33.1113 107.903 38.2967L76.7396 104.93L76.9132 105.016ZM28.6493 75.459L22.7465 88.1633C21.184 91.4474 18.059 93.4352 14.5 93.4352H2V83.6693H12.4167L21.7917 63.7053C23.0938 60.9398 25.6979 59.2977 28.7361 59.2977C31.7743 59.2977 34.3785 60.9398 35.6806 63.7053L53.9097 103.028H50.6979C44.9688 103.028 40.0208 99.917 37.6771 94.7315L28.8229 75.459H28.6493ZM125.264 75.459L131.167 88.1633C132.729 91.4474 135.854 93.4352 139.413 93.4352H151.913V83.6693H141.497L132.122 63.7053C130.819 60.9398 128.215 59.2977 125.177 59.2977C122.139 59.2977 119.535 60.9398 118.233 63.7053L100.003 103.028H103.215C108.944 103.028 113.892 99.917 116.236 94.7315L125.09 75.459H125.264Z" fill="#F6CD6C"/>
<path fill-rule="evenodd" clip-rule="evenodd" d="M130.646 86.953L131.167 88.1629C132.729 91.447 135.854 93.4348 139.413 93.4348H151.913V83.6689H141.497L139.934 80.2119L130.646 86.953ZM12.4167 83.6689H2V93.4348H14.5C18.1458 93.4348 21.2708 91.447 22.7465 88.1629L23.2674 86.953L13.9792 80.2119L12.4167 83.6689Z" fill="#F6894F"/>
<path fill-rule="evenodd" clip-rule="evenodd" d="M110.42 80.7311L100.09 103.028H103.302C109.031 103.028 113.979 99.9172 116.323 94.7318L125.177 75.4592L130.559 86.9536L139.847 80.2126L132.556 64.6562L110.334 80.7311H110.42ZM53.7363 103.028L43.4065 80.7311L21.1842 64.6562L13.8926 80.2126L23.1808 86.9536L28.5627 75.4592L37.4169 94.7318C39.8474 99.9172 44.7085 103.028 50.4377 103.028H53.6495H53.7363ZM55.8197 89.7192L69.1877 118.153C70.6634 121.264 73.528 123.079 76.9134 123.079C80.2988 123.079 83.2502 121.264 84.6391 118.153L97.9204 89.8056L76.9134 105.016L55.8197 89.7192Z" fill="#F6894F"/>
<path fill-rule="evenodd" clip-rule="evenodd" d="M43.4058 80.8174L35.5065 63.7919C34.2044 61.0263 31.6003 59.3843 28.5621 59.3843C25.5239 59.3843 22.9197 61.0263 21.6176 63.7919L21.1836 64.7425L43.4058 80.8174ZM118.319 63.7919L110.42 80.8174L132.642 64.7425L132.208 63.7919C130.906 61.0263 128.302 59.3843 125.263 59.3843C122.225 59.3843 119.621 61.0263 118.319 63.7919ZM97.9197 89.8919L112.59 58.4336L91.5829 73.6442L76.9128 105.103L62.1558 73.5578L41.0621 58.2607L55.819 89.8055L76.9128 105.103L97.9197 89.8919Z" fill="#F7AF5F"/>
</svg>
