<svg width="16" height="14" viewBox="0 0 16 14" fill="none" xmlns="http://www.w3.org/2000/svg">
<path d="M15.3935 6.09685L1.39372 0.108839C1.26685 0.0545754 1.1331 0 1.00061 0C0.731143 0 0.466242 0.10912 0.272495 0.313419C-0.0155708 0.645861 -0.0819664 1.09775 0.10553 1.47229L2.99994 7.01372L0.105624 12.5555C-0.0818727 12.9303 -0.0154677 13.3819 0.27262 13.6866C0.465992 13.8908 0.730736 14 1.00011 14C1.13292 14 1.26669 13.9737 1.39354 13.9191L15.3935 7.93059C15.7616 7.77369 16 7.41259 16 7.01341C15.9716 6.61454 15.7622 6.25278 15.3935 6.09685ZM2.09121 2.03582L11.981 6.26526H4.29992L2.09121 2.03582ZM4.29992 7.76218H11.9779L2.09058 11.991L4.29992 7.76218Z" fill="#AFB1B3"/>
</svg>
