<svg width="12" height="12" viewBox="0 0 16 16" fill="none" xmlns="http://www.w3.org/2000/svg">
<path d="M8.85882 1.08878C8.73527 1.02953 8.60209 1 8.47176 1C8.24538 1 8.02206 1.087 7.84618 1.25312L3.87647 5.00002H1.41176C0.632059 5.00002 0 5.67158 0 6.47189V9.44376C0 10.2722 0.632059 10.9156 1.41176 10.9156H3.87765L7.84529 14.6625C8.02059 14.9125 8.24412 15 8.47059 15C8.60112 15 8.73409 14.9709 8.85765 14.9113C9.19706 14.75 9.41176 14.3938 9.41176 14V2.00003C9.41176 1.60659 9.19706 1.22191 8.85882 1.08878ZM8 12.8875L4.41471 9.50001H1.41176V6.52814H4.41471L8 3.11378V12.8875ZM12.1353 5.6844C12.0038 5.57099 11.8454 5.51561 11.6882 5.51561C11.4839 5.51561 11.2815 5.60918 11.1426 5.79083C10.8954 6.11114 10.9395 6.58364 11.2419 6.84646C11.5735 7.13752 11.7647 7.55627 11.7647 8.00002C11.7647 8.44376 11.5735 8.86314 11.2409 9.1522C10.9385 9.41489 10.8944 9.88751 11.1416 10.2078C11.2804 10.3894 11.4834 10.4832 11.6875 10.4832C11.8447 10.4832 12.0037 10.4275 12.1343 10.3143C12.7971 9.73751 13.1765 8.89689 13.1765 8.00002C13.1765 7.10314 12.7971 6.26252 12.1353 5.6844ZM13.9147 3.37503C13.7837 3.26137 13.6252 3.20574 13.4676 3.20574C13.2637 3.20574 13.0612 3.29884 12.9212 3.47953C12.6739 3.79984 12.7181 4.27234 13.0195 4.53515C14.0176 5.40315 14.5882 6.66564 14.5882 8.00002C14.5882 9.33408 14.0165 10.5966 13.0203 11.4656C12.7188 11.7283 12.6747 12.2009 12.9219 12.5213C13.0616 12.7019 13.2637 12.7957 13.4678 12.7957C13.6259 12.7957 13.784 12.74 13.9155 12.6258C15.2412 11.4719 16 9.78439 16 8.00002C16 6.21564 15.2412 4.52815 13.9147 3.37503Z" fill="#CED0D6"/>
</svg>
