<svg width="20" height="20" viewBox="0 0 20 20" fill="none" xmlns="http://www.w3.org/2000/svg">
<g clip-path="url(#clip0_1031_2)">
<path d="M10 20C15.5228 20 20 15.5228 20 10C20 4.47715 15.5228 0 10 0C4.47715 0 0 4.47715 0 10C0 15.5228 4.47715 20 10 20Z" fill="#F6CD6C"/>
<path fill-rule="evenodd" clip-rule="evenodd" d="M9.99479 13.5067L6.99305 7.4599C6.70122 6.87187 6.11754 6.51906 5.42965 6.51906H4.8564L9.05675 14.9866C9.23393 15.3394 9.57788 15.5452 9.98437 15.5452C10.3909 15.5452 10.7452 15.3394 10.912 14.9866L15.8523 5H15.2791C14.5912 5 14.0075 5.35281 13.7157 5.94084L9.97394 13.4969L9.99479 13.5067ZM4.19977 10.155L3.49102 11.5957C3.30342 11.9681 2.9282 12.1935 2.50087 12.1935H1V11.086H2.25072L3.37638 8.82215C3.53272 8.50854 3.8454 8.32233 4.21019 8.32233C4.57499 8.32233 4.88767 8.50854 5.04401 8.82215L7.23277 13.2813H6.84713C6.15924 13.2813 5.56514 12.9285 5.28373 12.3405L4.22061 10.155H4.19977ZM15.8002 10.155L16.509 11.5957C16.6966 11.9681 17.0718 12.1935 17.4991 12.1935H19V11.086H17.7493L16.6236 8.82215C16.4673 8.50854 16.1546 8.32233 15.7898 8.32233C15.425 8.32233 15.1123 8.50854 14.956 8.82215L12.7672 13.2813H13.1529C13.8408 13.2813 14.4349 12.9285 14.7163 12.3405L15.7794 10.155H15.8002Z" fill="#110F05"/>
<path fill-rule="evenodd" clip-rule="evenodd" d="M16.4464 11.4597L16.509 11.5969C16.6966 11.9694 17.0718 12.1948 17.4991 12.1948H19V11.0873H17.7493L17.5617 10.6953L16.4464 11.4597ZM2.25072 11.0873H1V12.1948H2.50087C2.93862 12.1948 3.31384 11.9694 3.49102 11.5969L3.55356 11.4597L2.43833 10.6953L2.25072 11.0873Z" fill="#110F05"/>
<path fill-rule="evenodd" clip-rule="evenodd" d="M14.0197 10.7565L12.7794 13.285H13.1651C13.853 13.285 14.4471 12.9322 14.7285 12.3441L15.7916 10.1586L16.4378 11.4621L17.553 10.6977L16.6775 8.93359L14.0093 10.7565H14.0197ZM7.21371 13.285L5.97341 10.7565L3.3052 8.93359L2.42969 10.6977L3.54492 11.4621L4.19113 10.1586L5.25424 12.3441C5.54608 12.9322 6.12975 13.285 6.81765 13.285H7.20329H7.21371ZM7.46385 11.7757L9.06895 15C9.24613 15.3528 9.59008 15.5587 9.99657 15.5587C10.4031 15.5587 10.7574 15.3528 10.9242 15L12.5189 11.7855L9.99657 13.5104L7.46385 11.7757Z" fill="#110F05"/>
<path fill-rule="evenodd" clip-rule="evenodd" d="M5.9729 10.761L5.02444 8.83035C4.8681 8.51674 4.55541 8.33053 4.19062 8.33053C3.82583 8.33053 3.51314 8.51674 3.3568 8.83035L3.30469 8.93816L5.9729 10.761ZM14.9677 8.83035L14.0192 10.761L16.6875 8.93816L16.6353 8.83035C16.479 8.51674 16.1663 8.33053 15.8015 8.33053C15.4367 8.33053 15.124 8.51674 14.9677 8.83035ZM12.5184 11.7901L14.2798 8.22273L11.7575 9.94759L9.99606 13.5149L8.2242 9.93779L5.69149 8.20312L7.46335 11.7803L9.99606 13.5149L12.5184 11.7901Z" fill="#110F05"/>
</g>
<defs>
<clipPath id="clip0_1031_2">
<rect width="20" height="20" fill="white"/>
</clipPath>
</defs>
</svg>
