<svg width="439" height="94" viewBox="0 0 439 94" fill="none" xmlns="http://www.w3.org/2000/svg">
<path fill-rule="evenodd" clip-rule="evenodd" d="M243.852 15.6085C260.882 15.6085 274.694 29.4199 274.694 46.4498C274.694 63.4798 260.882 77.2912 243.852 77.2912C226.822 77.2912 213.011 63.4798 213.011 46.4498C213.011 29.4199 226.822 15.6085 243.852 15.6085ZM166.218 16.6553L186.716 60.6206L207.215 16.6553H219.401L192.981 73.3071C191.81 75.807 189.466 77.3068 186.701 77.3068C183.951 77.3068 181.592 75.807 180.42 73.3071L154 16.6553H166.187H166.218ZM437.416 77.2912C421.62 77.2912 411.839 68.9169 411.839 52.7619V4H422.885V52.7619C422.885 62.808 427.744 66.2452 437.416 66.2452H438.291V77.2912H437.416ZM329.549 70.1043C324.002 74.7445 317.034 77.2912 309.754 77.2912C292.724 77.2912 278.912 63.4798 278.912 46.4498C278.912 29.4199 292.724 15.6085 309.754 15.6085C317.034 15.6085 324.002 18.1552 329.549 22.7954V16.6553H340.595V88.8841H329.549V70.1043ZM395.622 70.1043C390.076 74.7445 383.107 77.2912 375.827 77.2912C358.797 77.2912 344.985 63.4798 344.985 46.4498C344.985 29.4199 358.797 15.6085 375.827 15.6085C392.857 15.6085 406.668 29.4199 406.668 46.4498V76.2444H395.622V70.1043ZM243.852 26.6545C232.916 26.6545 224.057 35.5132 224.057 46.4498C224.057 57.3865 232.916 66.2452 243.852 66.2452C254.789 66.2452 263.648 57.3865 263.648 46.4498C263.648 35.5132 254.789 26.6545 243.852 26.6545ZM309.754 26.6545C298.817 26.6545 289.958 35.5132 289.958 46.4498C289.958 57.3865 298.817 66.2452 309.754 66.2452C320.69 66.2452 329.549 57.3865 329.549 46.4498C329.549 35.5132 320.69 26.6545 309.754 26.6545ZM375.827 26.6545C364.89 26.6545 356.031 35.5132 356.031 46.4498C356.031 57.3865 364.89 66.2452 375.827 66.2452C386.763 66.2452 395.622 57.3865 395.622 46.4498C395.622 35.5132 386.763 26.6545 375.827 26.6545Z" fill="#F6CD6C"/>
<path fill-rule="evenodd" clip-rule="evenodd" d="M411.839 52.7782C411.839 68.9332 421.62 77.3076 437.415 77.3076H438.29V66.2616H437.415C427.744 66.2616 422.885 62.84 422.885 52.7782V39.123L411.839 47.1693V52.7782ZM192.981 73.3079L197.356 63.9336L188.247 57.3091L186.7 60.6214L183.56 53.9032L165.108 40.4823L180.42 73.3235C181.592 75.8233 183.935 77.3232 186.7 77.3232C189.45 77.3232 191.809 75.8233 192.981 73.3235V73.3079ZM406.668 50.919L370.936 76.917C372.53 77.167 374.155 77.3076 375.811 77.3076C383.092 77.3076 390.06 74.7609 395.606 70.1207V76.2608H406.652V50.9346L406.668 50.919Z" fill="#F74755"/>
<path fill-rule="evenodd" clip-rule="evenodd" d="M411.839 4.01562V47.1685L422.885 39.1223V4.01562H411.839ZM183.576 53.8868L166.218 16.6553H154.031L165.14 40.4659L183.591 53.8868H183.576ZM203.934 23.686L188.263 57.3084L197.372 63.9329L213.042 30.3105L203.934 23.686ZM213.011 46.4498C213.011 63.4798 226.822 77.2912 243.852 77.2912C252.274 77.2912 259.898 73.9165 265.476 68.4481L256.351 61.808C252.945 64.5734 248.602 66.2452 243.868 66.2452C232.931 66.2452 224.073 57.3865 224.073 46.4498C224.073 43.9188 224.541 41.5127 225.401 39.2942L216.276 32.654C214.198 36.81 213.027 41.4971 213.027 46.4498H213.011ZM329.565 70.1043V88.8841H340.611V53.9649L308.582 77.2756C308.972 77.2912 309.363 77.2912 309.769 77.2912C317.05 77.2912 324.018 74.7445 329.565 70.1043ZM345.266 50.5902C347.079 64.0735 357.578 74.7914 370.952 76.9162L406.684 50.9183V46.4498C406.684 34.2008 399.528 23.6079 389.185 18.6239L377.998 26.7639C387.919 27.8419 395.638 36.2475 395.638 46.4498C395.638 57.3865 386.779 66.2452 375.842 66.2452C364.906 66.2452 356.047 57.3865 356.047 46.4498C356.047 45.075 356.187 43.7469 356.453 42.4502L345.282 50.5902H345.266Z" fill="#F6894F"/>
<path fill-rule="evenodd" clip-rule="evenodd" d="M377.983 26.7804L389.169 18.6404C385.123 16.703 380.607 15.6094 375.827 15.6094C358.797 15.6094 344.985 29.4208 344.985 46.4507C344.985 47.8569 345.079 49.2318 345.266 50.591L356.437 42.4511C358.281 33.4361 366.265 26.6398 375.842 26.6398C376.576 26.6398 377.295 26.6866 377.998 26.7491L377.983 26.7804ZM213.027 30.3114L219.386 16.6562H207.199L203.918 23.6869L213.027 30.3114ZM274.694 46.4507C274.694 29.4208 260.882 15.6094 243.852 15.6094C231.775 15.6094 221.323 22.5463 216.261 32.6549L225.385 39.295C228.26 31.905 235.447 26.6554 243.852 26.6554C254.789 26.6554 263.648 35.5141 263.648 46.4507C263.648 52.6534 260.804 58.1842 256.336 61.8245L265.46 68.4647C271.163 62.8713 274.694 55.0751 274.694 46.4507ZM340.595 53.9658V16.6562H330.002L329.549 16.9843V22.7963C328.268 21.7339 326.924 20.7652 325.518 19.9215L315.222 27.4053C323.502 29.7802 329.549 37.4046 329.549 46.4351C329.549 57.3718 320.69 66.2305 309.754 66.2305C298.817 66.2305 289.958 57.3718 289.958 46.4351C289.958 44.7946 290.161 43.1854 290.536 41.6542L281.162 34.8266C279.709 38.4045 278.912 42.3261 278.912 46.4195C278.912 63.0588 292.083 76.6203 308.582 77.2452L340.611 53.9345L340.595 53.9658Z" fill="#F7AF5F"/>
<path fill-rule="evenodd" clip-rule="evenodd" d="M74.9132 75.016L49.9132 21.6924C47.4826 16.507 42.6215 13.3957 36.8924 13.3957H32.1181L67.1007 88.066C68.5764 91.1773 71.441 92.9922 74.8264 92.9922C78.2118 92.9922 81.1632 91.1773 82.5521 88.066L123.698 0H118.924C113.194 0 108.333 3.11126 105.903 8.2967L74.7396 74.9296L74.9132 75.016ZM26.6493 45.459L20.7465 58.1633C19.184 61.4474 16.059 63.4352 12.5 63.4352H0V53.6693H10.4167L19.7917 33.7053C21.0938 30.9398 23.6979 29.2977 26.7361 29.2977C29.7743 29.2977 32.3785 30.9398 33.6806 33.7053L51.9097 73.0282H48.6979C42.9688 73.0282 38.0208 69.917 35.6771 64.7315L26.8229 45.459H26.6493ZM123.264 45.459L129.167 58.1633C130.729 61.4474 133.854 63.4352 137.413 63.4352H149.913V53.6693H139.497L130.122 33.7053C128.819 30.9398 126.215 29.2977 123.177 29.2977C120.139 29.2977 117.535 30.9398 116.233 33.7053L98.0035 73.0282H101.215C106.944 73.0282 111.892 69.917 114.236 64.7315L123.09 45.459H123.264Z" fill="#F6CD6C"/>
<path fill-rule="evenodd" clip-rule="evenodd" d="M128.646 56.954L129.167 58.1639C130.729 61.448 133.854 63.4358 137.413 63.4358H149.913V53.6698H139.497L137.934 50.2129L128.646 56.954ZM10.4167 53.6698H0V63.4358H12.5C16.1458 63.4358 19.2708 61.448 20.7465 58.1639L21.2674 56.954L11.9792 50.2129L10.4167 53.6698Z" fill="#F74755"/>
<path fill-rule="evenodd" clip-rule="evenodd" d="M108.42 50.7311L98.0905 73.0285H101.302C107.031 73.0285 111.979 69.9172 114.323 64.7318L123.177 45.4592L128.559 56.9536L137.847 50.2126L130.556 34.6562L108.334 50.7311H108.42ZM51.7363 73.0285L41.4065 50.7311L19.1842 34.6562L11.8926 50.2126L21.1808 56.9536L26.5627 45.4592L35.4169 64.7318C37.8474 69.9172 42.7085 73.0285 48.4377 73.0285H51.6495H51.7363ZM53.8197 59.7192L67.1877 88.1527C68.6634 91.2639 71.528 93.0788 74.9134 93.0788C78.2988 93.0788 81.2502 91.2639 82.6391 88.1527L95.9204 59.8056L74.9134 75.0162L53.8197 59.7192Z" fill="#F6894F"/>
<path fill-rule="evenodd" clip-rule="evenodd" d="M41.4058 50.8164L33.5065 33.7909C32.2044 31.0253 29.6003 29.3833 26.5621 29.3833C23.5239 29.3833 20.9197 31.0253 19.6176 33.7909L19.1836 34.7416L41.4058 50.8164ZM116.319 33.7909L108.42 50.8164L130.642 34.7416L130.208 33.7909C128.906 31.0253 126.302 29.3833 123.263 29.3833C120.225 29.3833 117.621 31.0253 116.319 33.7909ZM95.9197 59.8909L110.59 28.4326L89.5829 43.6432L74.9128 75.1015L60.1558 43.5568L39.0621 28.2598L53.819 59.8045L74.9128 75.1015L95.9197 59.8909Z" fill="#F7AF5F"/>
</svg>
