<svg width="991" height="211" viewBox="0 0 991 211" fill="none" xmlns="http://www.w3.org/2000/svg">
<path fill-rule="evenodd" clip-rule="evenodd" d="M551.172 35.2774C589.664 35.2774 620.881 66.495 620.881 104.987C620.881 143.48 589.664 174.697 551.172 174.697C512.679 174.697 481.462 143.48 481.462 104.987C481.462 66.495 512.679 35.2774 551.172 35.2774ZM375.696 37.6434L422.028 137.017L468.36 37.6434H495.905L436.189 165.692C433.541 171.342 428.243 174.732 421.993 174.732C415.778 174.732 410.445 171.342 407.797 165.692L348.081 37.6434H375.626H375.696ZM988.677 174.697C952.975 174.697 930.868 155.769 930.868 119.254V9.03906H955.835V119.254C955.835 141.961 966.818 149.73 988.677 149.73H990.655V174.697H988.677ZM744.869 158.453C732.333 168.941 716.582 174.697 700.126 174.697C661.634 174.697 630.416 143.48 630.416 104.987C630.416 66.495 661.634 35.2774 700.126 35.2774C716.582 35.2774 732.333 41.0336 744.869 51.5218V37.6434H769.836V200.9H744.869V158.453ZM894.212 158.453C881.676 168.941 865.926 174.697 849.469 174.697C810.977 174.697 779.759 143.48 779.759 104.987C779.759 66.495 810.977 35.2774 849.469 35.2774C887.961 35.2774 919.179 66.495 919.179 104.987V172.331H894.212V158.453ZM551.172 60.2444C526.452 60.2444 506.429 80.2674 506.429 104.987C506.429 129.707 526.452 149.73 551.172 149.73C575.891 149.73 595.914 129.707 595.914 104.987C595.914 80.2674 575.891 60.2444 551.172 60.2444ZM700.126 60.2444C675.406 60.2444 655.383 80.2674 655.383 104.987C655.383 129.707 675.406 149.73 700.126 149.73C724.846 149.73 744.869 129.707 744.869 104.987C744.869 80.2674 724.846 60.2444 700.126 60.2444ZM849.469 60.2444C824.749 60.2444 804.726 80.2674 804.726 104.987C804.726 129.707 824.749 149.73 849.469 149.73C874.189 149.73 894.212 129.707 894.212 104.987C894.212 80.2674 874.189 60.2444 849.469 60.2444Z" fill="#F6CD6C"/>
<path fill-rule="evenodd" clip-rule="evenodd" d="M930.867 119.292C930.867 155.807 952.973 174.735 988.676 174.735H990.653V149.768H988.676C966.816 149.768 955.834 142.034 955.834 119.292V88.4277L930.867 106.614V119.292ZM436.188 165.695L446.076 144.506L425.488 129.533L421.991 137.02L414.893 121.835L373.188 91.5001L407.795 165.73C410.444 171.38 415.741 174.771 421.991 174.771C428.207 174.771 433.539 171.38 436.188 165.73V165.695ZM919.178 115.09L838.414 173.852C842.016 174.417 845.689 174.735 849.432 174.735C865.889 174.735 881.639 168.979 894.175 158.491V172.369H919.142V115.125L919.178 115.09Z" fill="#F6894F"/>
<path fill-rule="evenodd" clip-rule="evenodd" d="M930.866 9.07617V106.614L955.833 88.4268V9.07617H930.866ZM414.928 121.799L375.694 37.6452H348.149L373.258 91.4638L414.964 121.799H414.928ZM460.942 53.5365L425.522 129.532L446.111 144.505L481.53 68.5097L460.942 53.5365ZM481.46 104.989C481.46 143.481 512.677 174.699 551.17 174.699C570.204 174.699 587.437 167.071 600.044 154.711L579.421 139.703C571.722 145.953 561.905 149.732 551.205 149.732C526.485 149.732 506.462 129.709 506.462 104.989C506.462 99.2682 507.522 93.8298 509.464 88.8152L488.84 73.8068C484.144 83.2003 481.495 93.7945 481.495 104.989H481.46ZM744.902 158.454V200.902H769.87V121.975L697.476 174.664C698.359 174.699 699.241 174.699 700.16 174.699C716.616 174.699 732.366 168.943 744.902 158.454ZM780.393 114.347C784.489 144.823 808.22 169.049 838.449 173.851L919.213 115.089V104.989C919.213 77.3029 903.039 53.36 879.661 42.0948L854.376 60.4934C876.8 62.9301 894.245 81.929 894.245 104.989C894.245 129.709 874.222 149.732 849.503 149.732C824.783 149.732 804.76 129.709 804.76 104.989C804.76 101.881 805.078 98.8797 805.678 95.9487L780.428 114.347H780.393Z" fill="#F6894F"/>
<path fill-rule="evenodd" clip-rule="evenodd" d="M854.344 60.5269L879.629 42.1283C870.483 37.7493 860.277 35.2773 849.471 35.2773C810.979 35.2773 779.761 66.4949 779.761 104.987C779.761 108.165 779.973 111.273 780.397 114.345L805.646 95.9468C809.813 75.5706 827.859 60.209 849.506 60.209C851.166 60.209 852.79 60.315 854.379 60.4562L854.344 60.5269ZM481.499 68.5078L495.872 37.6434H468.327L460.911 53.5347L481.499 68.5078ZM620.883 104.987C620.883 66.4949 589.666 35.2773 551.173 35.2773C523.876 35.2773 500.25 50.9568 488.809 73.8049L509.432 88.8134C515.93 72.1099 532.174 60.2444 551.173 60.2444C575.893 60.2444 595.916 80.2674 595.916 104.987C595.916 119.007 589.489 131.508 579.389 139.736L600.013 154.745C612.902 142.102 620.883 124.481 620.883 104.987ZM769.838 121.973V37.6434H745.895L744.871 38.385V51.5218C741.975 49.1204 738.938 46.931 735.76 45.024L712.488 61.9394C731.204 67.3072 744.871 84.5404 744.871 104.952C744.871 129.672 724.848 149.695 700.128 149.695C675.408 149.695 655.385 129.672 655.385 104.952C655.385 101.244 655.844 97.6066 656.692 94.1458L635.503 78.7136C632.219 86.8005 630.418 95.6643 630.418 104.917C630.418 142.526 660.188 173.179 697.479 174.591L769.873 121.903L769.838 121.973Z" fill="#F7AF5F"/>
<path fill-rule="evenodd" clip-rule="evenodd" d="M169.324 169.557L112.817 49.0308C107.324 37.3103 96.3363 30.278 83.3868 30.278H72.5956L151.666 199.053C155.001 206.085 161.476 210.188 169.128 210.188C176.78 210.188 183.451 206.085 186.59 199.053L279.591 0H268.8C255.85 0 244.863 7.0323 239.369 18.7528L168.932 169.361L169.324 169.557ZM60.2347 102.75L46.8928 131.465C43.3611 138.888 36.2978 143.381 28.2534 143.381H0V121.307H23.5445L44.7346 76.1833C47.6776 69.9323 53.5637 66.2208 60.4309 66.2208C67.298 66.2208 73.1842 69.9323 76.1272 76.1833L117.33 165.064H110.071C97.1211 165.064 85.9374 158.031 80.6399 146.311L60.6271 102.75H60.2347ZM278.61 102.75L291.952 131.465C295.484 138.888 302.547 143.381 310.591 143.381H338.845V121.307H315.3L294.11 76.1833C291.167 69.9323 285.281 66.2208 278.414 66.2208C271.547 66.2208 265.66 69.9323 262.717 76.1833L221.515 165.064H228.774C241.724 165.064 252.907 158.031 258.205 146.311L278.218 102.75H278.61Z" fill="#F6CD6C"/>
<path fill-rule="evenodd" clip-rule="evenodd" d="M290.775 128.733L291.952 131.468C295.484 138.89 302.547 143.383 310.591 143.383H338.845V121.31H315.3L311.768 113.496L290.775 128.733ZM23.5445 121.31H0V143.383H28.2534C36.494 143.383 43.5573 138.89 46.8928 131.468L48.07 128.733L27.0762 113.496L23.5445 121.31Z" fill="#F6894F"/>
<path fill-rule="evenodd" clip-rule="evenodd" d="M245.059 114.666L221.711 165.064H228.971C241.92 165.064 253.104 158.031 258.401 146.311L278.414 102.75L290.579 128.73L311.573 113.494L295.091 78.332L244.863 114.666H245.059ZM116.938 165.064L93.5898 114.666L43.3615 78.332L26.8804 113.494L47.8742 128.73L60.0389 102.75L80.0517 146.311C85.5454 158.031 96.5329 165.064 109.482 165.064H116.742H116.938ZM121.647 134.981L151.862 199.248C155.198 206.281 161.673 210.383 169.325 210.383C176.977 210.383 183.648 206.281 186.787 199.248L216.806 135.176L169.325 169.557L121.647 134.981Z" fill="#F6894F"/>
<path fill-rule="evenodd" clip-rule="evenodd" d="M93.5877 114.855L75.7331 76.373C72.79 70.122 66.9039 66.4105 60.0367 66.4105C53.1696 66.4105 47.2835 70.122 44.3404 76.373L43.3594 78.5217L93.5877 114.855ZM262.912 76.373L245.057 114.855L295.286 78.5217L294.305 76.373C291.361 70.122 285.475 66.4105 278.608 66.4105C271.741 66.4105 265.855 70.122 262.912 76.373ZM216.804 135.366L249.962 64.2618L202.481 98.6419L169.322 169.746L135.968 98.4466L88.2901 63.8711L121.645 135.171L169.322 169.746L216.804 135.366Z" fill="#F7AF5F"/>
</svg>
