<svg xmlns="http://www.w3.org/2000/svg" viewBox="0 0 378.95 95.9">
    <defs>
        <style>
            .cls-1,.cls-2,.cls-3,.cls-4,.cls-5,.cls-6{fill-rule:evenodd;}.cls-1{fill:url(#GradientFill_5);}.cls-2{fill:url(#GradientFill_6);}.cls-3{fill:url(#GradientFill_3);}.cls-4{fill:#ed1c24;}.cls-5{fill:url(#GradientFill_7);}.cls-6{fill:url(#GradientFill_1);}
        </style>
        <linearGradient id="GradientFill_5" x1="29.84" y1="57.3" x2="29.39" y2="95.65" gradientUnits="userSpaceOnUse">
            <stop offset="0" stop-color="#f16122"/>
            <stop offset="1" stop-color="#fcd602"/>
        </linearGradient>
        <linearGradient id="GradientFill_6" x1="24.51" y1="72.18" x2="14.58" y2="28.06" gradientUnits="userSpaceOnUse">
            <stop offset="0" stop-color="#fcd602"/>
            <stop offset="1" stop-color="#f16122"/>
        </linearGradient>
        <linearGradient id="GradientFill_3" x1="33.28" y1="60.83" x2="29.97" y2="36.64" gradientUnits="userSpaceOnUse">
            <stop offset="0" stop-color="#ed1c24"/>
            <stop offset="1" stop-color="#ed1651"/>
        </linearGradient>
        <linearGradient id="GradientFill_7" x1="43.47" y1="6.85" x2="33.61" y2="71.83" gradientUnits="userSpaceOnUse">
            <stop offset="0" stop-color="#ed1651"/>
            <stop offset="0.53" stop-color="#f16122"/>
            <stop offset="1" stop-color="#fcd602"/>
        </linearGradient>
        <linearGradient id="GradientFill_1" x1="227.36" y1="78.87" x2="227.36" y2="14.68"
                        gradientUnits="userSpaceOnUse">
            <stop offset="0" stop-color="#f68b1f"/>
            <stop offset="1" stop-color="#fcd602"/>
        </linearGradient>
    </defs>
    <g id="Layer_2" data-name="Layer 2">
        <g id="Layer_1-2" data-name="Layer 1">
            <path class="cls-1"
                  d="M29.94,76.28A20.61,20.61,0,0,1,9.39,55.73V48.29A2.19,2.19,0,0,0,7.21,46.1h-5c-2.93,0-2.93,4.82,0,4.82H4.83v4.81a25.19,25.19,0,0,0,22.83,25V91.33H20.71c-2.91,0-2.91,4.57,0,4.57H39.17c2.91,0,2.91-4.57,0-4.57h-7V80.74a25.19,25.19,0,0,0,22.83-25V50.92h2.63c2.93,0,2.93-4.82,0-4.82h-5a2.19,2.19,0,0,0-2.18,2.19v7.44A20.61,20.61,0,0,1,29.94,76.28Z"/>
            <path class="cls-2"
                  d="M23.09,64.85a11.42,11.42,0,0,1-4.57-9.12V13.6a2.19,2.19,0,0,0-2.18-2.19h-.19A2.2,2.2,0,0,0,14,13.6V55.73a16,16,0,0,0,9.13,14.43,15.75,15.75,0,0,0,4.57,1.39,15.49,15.49,0,0,0,2.28.16l.37-2.27-.37-2.29a11.32,11.32,0,0,1-6.85-2.3Z"/>
            <path class="cls-3"
                  d="M23.09,55.73a6.85,6.85,0,0,0,6.85,6.85l.32-2.31L29.94,58a2.29,2.29,0,0,1-2.28-2.29V11.41A6.87,6.87,0,0,1,32.22,5a6.72,6.72,0,0,1,2.29-.39h0V0A11.46,11.46,0,0,0,23.09,11.41Z"/>
            <path class="cls-4"
                  d="M32.22,55.73A2.29,2.29,0,0,1,29.94,58v4.56a6.87,6.87,0,0,0,6.85-6.85V38a2.19,2.19,0,0,0-2.19-2.18h-.19A2.19,2.19,0,0,0,32.22,38Z"/>
            <path class="cls-5"
                  d="M41.35,55.73A11.45,11.45,0,0,1,29.94,67.15v4.56a16,16,0,0,0,16-16V11.41A11.41,11.41,0,0,0,34.5,0l-.39,2.28.4,2.29a6.84,6.84,0,0,1,6.84,6.84Z"/>
            <path class="cls-6"
                  d="M107.72,60.25l23.05-44.66h9l-32,62.58L75.77,15.59H84.9l22.82,44.66Zm60-45.57a31,31,0,0,0-22.7,9.41,31.11,31.11,0,0,0-9.45,22.69A30.92,30.92,0,0,0,145,69.46a32.06,32.06,0,0,0,45.38,0,31,31,0,0,0,9.41-22.68,30.92,30.92,0,0,0-9.37-22.69,31,31,0,0,0-22.68-9.41Zm0,56.05a23.9,23.9,0,0,1-24-24,23.9,23.9,0,0,1,24-24,23.05,23.05,0,0,1,16.95,7,23.06,23.06,0,0,1,7,17,23.08,23.08,0,0,1-7,16.95,23.05,23.05,0,0,1-16.95,7ZM220,74.19a33.36,33.36,0,0,1-5.9-4.73,30.91,30.91,0,0,1-9.4-22.68,31.07,31.07,0,0,1,9.45-22.69,32,32,0,0,1,45.37,0,30.88,30.88,0,0,1,9.37,22.69,31,31,0,0,1-9.41,22.68,31,31,0,0,1-22.68,9.41,31.3,31.3,0,0,1-14.54-3.39l.69,1a9.86,9.86,0,0,0,2,2.15,10,10,0,0,0,6.12,2h11.75a18.1,18.1,0,0,1,11.29,3.84l0,0a16.54,16.54,0,0,1,3.8,4.16l1.82,3-3.89,2.4-3,1.81L251,93a8.71,8.71,0,0,0-2-2.08,9.73,9.73,0,0,0-6.11-2H231.12A17.83,17.83,0,0,1,219.88,85a16.25,16.25,0,0,1-3.9-4.16l-1.83-3.1,3.93-2.3,1.9-1.26Zm16.8-3.46a23.05,23.05,0,0,0,16.95-7,23,23,0,0,0,7-16.95,23.06,23.06,0,0,0-7-17,24,24,0,0,0-33.91,0,23,23,0,0,0-7,17,23,23,0,0,0,7,16.95,23.06,23.06,0,0,0,17,7ZM342.71,70H379v8.18H334.53V15.59h8.18V70ZM296.62,33.51l23.05,44.66h9l-32-62.58L264.68,78.17h9.13Z"/>
        </g>
    </g>
</svg>