<svg width="315" height="73" viewBox="0 0 315 73" fill="none" xmlns="http://www.w3.org/2000/svg">
<path fill-rule="evenodd" clip-rule="evenodd" d="M148.302 45.3444L134.779 16.3457H126.738L144.165 53.7163C144.204 53.7979 144.247 53.8795 144.29 53.9611L148.306 45.3487L148.302 45.3444Z" fill="#F74755"/>
<path fill-rule="evenodd" clip-rule="evenodd" d="M161.824 16.3459L148.301 45.3446L144.285 53.957C145.088 55.4561 146.579 56.3496 148.301 56.3496C150.118 56.3496 151.673 55.3573 152.442 53.7121L169.869 16.3416H161.828L161.824 16.3459ZM224.258 16.3287C215.547 18.6311 209.125 26.5691 209.125 36.0062C209.125 39.099 209.817 42.0328 211.05 44.6573L217.33 31.191C217.519 30.7185 217.733 30.2546 217.974 29.8122L224.258 16.333V16.3287ZM165.651 36.0062C165.651 47.2432 174.761 56.3581 186.003 56.3581C197.24 56.3581 206.355 47.2475 206.355 36.0062C206.355 24.765 197.244 15.6543 186.003 15.6543C174.761 15.6543 165.651 24.765 165.651 36.0062ZM186.003 49.0687C178.791 49.0687 172.94 43.2183 172.94 36.0062C172.94 28.7941 178.786 22.9437 186.003 22.9437C193.215 22.9437 199.065 28.7941 199.065 36.0062C199.065 43.2183 193.219 49.0687 186.003 49.0687Z" fill="#F6894F"/>
<path fill-rule="evenodd" clip-rule="evenodd" d="M224.258 16.3248L217.974 29.8039C220.182 25.7147 224.503 22.9398 229.477 22.9398C236.689 22.9398 242.54 28.7902 242.54 36.0023C242.54 43.2144 236.694 49.0648 229.477 49.0648C222.261 49.0648 216.415 43.2144 216.415 36.0023C216.415 34.3013 216.741 32.6776 217.33 31.1871L211.05 44.6534C214.301 51.5691 221.329 56.3542 229.477 56.3542C234.284 56.3542 238.884 54.6747 242.54 51.6077V64.0002H249.829V16.3463H242.54V20.3969C238.884 17.3299 234.284 15.6504 229.477 15.6504C227.673 15.6504 225.925 15.8866 224.258 16.3248ZM273.063 15.6504C261.822 15.6504 252.712 24.7611 252.712 36.0023C252.712 45.5941 259.348 53.6352 268.283 55.7872L271.461 48.966C265.001 48.1757 260.001 42.6732 260.001 36.0023C260.001 28.7902 265.851 22.9398 273.063 22.9398C276.504 22.9398 279.631 24.2714 281.964 26.4449L285.142 19.628C281.762 17.1323 277.582 15.6547 273.059 15.6547L273.063 15.6504Z" fill="#F7AF5F"/>
<path fill-rule="evenodd" clip-rule="evenodd" d="M281.963 26.4404C284.523 28.8244 286.121 32.2264 286.121 35.9979C286.121 43.2099 280.275 49.0604 273.059 49.0604C272.517 49.0604 271.981 49.026 271.456 48.9616L268.278 55.7828C269.811 56.1522 271.414 56.3498 273.059 56.3498C277.865 56.3498 282.466 54.6703 286.121 51.6033V55.6539H293.411V35.9979C293.411 29.284 290.159 23.3262 285.142 19.6192L281.963 26.4361V26.4404ZM296.821 8V40.1688C296.821 50.8301 303.273 56.3498 313.698 56.3498H314.278V49.0604H313.698C307.319 49.0604 304.111 46.801 304.111 40.1688V8H296.821Z" fill="#F6CD6C"/>
<path fill-rule="evenodd" clip-rule="evenodd" d="M16.0469 45.0439L20.6409 35.2039L25.368 25.055C24.2784 23.5665 22.5712 22.7001 20.6409 22.7001C18.2989 22.7001 16.2914 23.9783 15.3006 26.1016L8.08135 41.5694H0V49.1189H9.64273C12.4523 49.1189 14.8588 47.5876 16.0469 45.0396V45.0439ZM28.555 18.209L31.9652 10.8911C30.9014 10.5651 29.769 10.3936 28.5979 10.3936H24.909L28.5593 18.209H28.555Z" fill="#F74755"/>
<path fill-rule="evenodd" clip-rule="evenodd" d="M20.6411 35.2041L27.5129 50.1615C29.3659 54.1936 33.1621 56.6257 37.6017 56.6257H40.0682L25.9858 26.1062C25.8099 25.7287 25.604 25.3769 25.3681 25.0552L20.6411 35.2041ZM28.5552 18.2092L51.9757 68.3832C52.1731 68.8036 52.4047 69.1939 52.6663 69.5542L57.9681 58.17L38.6569 16.7937C37.2757 13.834 34.865 11.775 31.9653 10.8828L28.5552 18.2007V18.2092Z" fill="#F6894F"/>
<path fill-rule="evenodd" clip-rule="evenodd" d="M82.0446 6.42133L58.6284 56.754L57.9678 58.1738L52.666 69.5581C53.8928 71.2353 55.8016 72.2047 57.9678 72.2047C60.5972 72.2047 62.8535 70.7677 63.9645 68.3828L95.7881 0H92.1163C87.6981 0 83.9148 2.41067 82.0489 6.42133H82.0446ZM89.9544 26.1057L75.8721 56.6253H78.3385C82.7781 56.6253 86.5743 54.1932 88.4274 50.1611L95.2991 35.2037L100.022 25.0634C98.928 23.5707 97.2294 22.7042 95.2991 22.7042C92.9571 22.7042 90.9367 23.9782 89.9544 26.1057Z" fill="#F7AF5F"/>
<path fill-rule="evenodd" clip-rule="evenodd" d="M95.2992 35.2042L99.8932 45.0442C101.081 47.5922 103.488 49.1235 106.297 49.1235H115.94V41.574H107.854L100.635 26.1062C100.459 25.733 100.254 25.3813 100.018 25.0596L95.2949 35.1999L95.2992 35.2042Z" fill="#F6CD6C"/>
</svg>
