<svg width="1102" height="789" xmlns="http://www.w3.org/2000/svg" xmlns:xlink="http://www.w3.org/1999/xlink" version="1.1" baseProfile="full" viewBox="0 0 1102 789">
<rect width="1102" height="789" x="0" y="0" fill="none"></rect>
<path d="M88.16 719.5L991.8 719.5" fill="transparent" stroke="#E0E6F1" stroke-dasharray="4,2" class="zr0-cls-16"></path>
<path d="M88.16 602.5L991.8 602.5" fill="transparent" stroke="#E0E6F1" stroke-dasharray="4,2" class="zr0-cls-16"></path>
<path d="M88.16 485.5L991.8 485.5" fill="transparent" stroke="#E0E6F1" stroke-dasharray="4,2" class="zr0-cls-16"></path>
<path d="M88.16 368.5L991.8 368.5" fill="transparent" stroke="#E0E6F1" stroke-dasharray="4,2" class="zr0-cls-16"></path>
<path d="M88.16 251.5L991.8 251.5" fill="transparent" stroke="#E0E6F1" stroke-dasharray="4,2" class="zr0-cls-16"></path>
<path d="M88.16 133.5L991.8 133.5" fill="transparent" stroke="#E0E6F1" stroke-dasharray="4,2" class="zr0-cls-16"></path>
<path d="M88.16 94.5L991.8 94.5" fill="transparent" stroke="#E0E6F1" stroke-dasharray="4,2" class="zr0-cls-16"></path>
<path d="M88.5 94.68L88.5 719" fill="transparent" stroke="#E0E6F1" stroke-dasharray="4,2" class="zr0-cls-16"></path>
<path d="M239.5 94.68L239.5 719" fill="transparent" stroke="#E0E6F1" stroke-dasharray="4,2" class="zr0-cls-16"></path>
<path d="M389.5 94.68L389.5 719" fill="transparent" stroke="#E0E6F1" stroke-dasharray="4,2" class="zr0-cls-16"></path>
<path d="M540.5 94.68L540.5 719" fill="transparent" stroke="#E0E6F1" stroke-dasharray="4,2" class="zr0-cls-16"></path>
<path d="M690.5 94.68L690.5 719" fill="transparent" stroke="#E0E6F1" stroke-dasharray="4,2" class="zr0-cls-16"></path>
<path d="M841.5 94.68L841.5 719" fill="transparent" stroke="#E0E6F1" stroke-dasharray="4,2" class="zr0-cls-16"></path>
<path d="M992.5 94.68L992.5 719" fill="transparent" stroke="#E0E6F1" stroke-dasharray="4,2" class="zr0-cls-16"></path>
<path d="M88.5 719L88.5 94.68" fill="transparent" stroke="#6E7079" stroke-linecap="round" class="zr0-cls-16"></path>
<path d="M88.16 719.5L991.8 719.5" fill="transparent" stroke="#6E7079" stroke-linecap="round" class="zr0-cls-16"></path>
<path d="M88.16 719.5L83.16 719.5" fill="transparent" stroke="#6E7079" class="zr0-cls-16"></path>
<path d="M88.16 602.5L83.16 602.5" fill="transparent" stroke="#6E7079" class="zr0-cls-16"></path>
<path d="M88.16 485.5L83.16 485.5" fill="transparent" stroke="#6E7079" class="zr0-cls-16"></path>
<path d="M88.16 368.5L83.16 368.5" fill="transparent" stroke="#6E7079" class="zr0-cls-16"></path>
<path d="M88.16 251.5L83.16 251.5" fill="transparent" stroke="#6E7079" class="zr0-cls-16"></path>
<path d="M88.16 133.5L83.16 133.5" fill="transparent" stroke="#6E7079" class="zr0-cls-16"></path>
<path d="M88.16 94.5L83.16 94.5" fill="transparent" stroke="#6E7079" class="zr0-cls-16"></path>
<path d="M88.5 719L88.5 724" fill="transparent" stroke="#6E7079" class="zr0-cls-16"></path>
<path d="M239.5 719L239.5 724" fill="transparent" stroke="#6E7079" class="zr0-cls-16"></path>
<path d="M389.5 719L389.5 724" fill="transparent" stroke="#6E7079" class="zr0-cls-16"></path>
<path d="M540.5 719L540.5 724" fill="transparent" stroke="#6E7079" class="zr0-cls-16"></path>
<path d="M690.5 719L690.5 724" fill="transparent" stroke="#6E7079" class="zr0-cls-16"></path>
<path d="M841.5 719L841.5 724" fill="transparent" stroke="#6E7079" class="zr0-cls-16"></path>
<path d="M992.5 719L992.5 724" fill="transparent" stroke="#6E7079" class="zr0-cls-16"></path>
<text dominant-baseline="central" text-anchor="end" style="font-size:12px;font-family:Microsoft YaHei;" transform="translate(80.16 719)" fill="#6E7079">0.84</text>
<text dominant-baseline="central" text-anchor="end" style="font-size:12px;font-family:Microsoft YaHei;" transform="translate(80.16 601.94)" fill="#6E7079">0.87</text>
<text dominant-baseline="central" text-anchor="end" style="font-size:12px;font-family:Microsoft YaHei;" transform="translate(80.16 484.88)" fill="#6E7079">0.9</text>
<text dominant-baseline="central" text-anchor="end" style="font-size:12px;font-family:Microsoft YaHei;" transform="translate(80.16 367.82)" fill="#6E7079">0.93</text>
<text dominant-baseline="central" text-anchor="end" style="font-size:12px;font-family:Microsoft YaHei;" transform="translate(80.16 250.76)" fill="#6E7079">0.96</text>
<text dominant-baseline="central" text-anchor="end" style="font-size:12px;font-family:Microsoft YaHei;" transform="translate(80.16 133.7)" fill="#6E7079">0.99</text>
<text dominant-baseline="central" text-anchor="end" style="font-size:12px;font-family:Microsoft YaHei;" transform="translate(80.16 94.68)" fill="#6E7079">1</text>
<text dominant-baseline="central" text-anchor="middle" style="font-size:12px;font-family:Microsoft YaHei;" y="6" transform="translate(88.16 727)" fill="#6E7079">20,000</text>
<text dominant-baseline="central" text-anchor="middle" style="font-size:12px;font-family:Microsoft YaHei;" y="6" transform="translate(238.7667 727)" fill="#6E7079">30,000</text>
<text dominant-baseline="central" text-anchor="middle" style="font-size:12px;font-family:Microsoft YaHei;" y="6" transform="translate(389.3733 727)" fill="#6E7079">40,000</text>
<text dominant-baseline="central" text-anchor="middle" style="font-size:12px;font-family:Microsoft YaHei;" y="6" transform="translate(539.98 727)" fill="#6E7079">50,000</text>
<text dominant-baseline="central" text-anchor="middle" style="font-size:12px;font-family:Microsoft YaHei;" y="6" transform="translate(690.5867 727)" fill="#6E7079">60,000</text>
<text dominant-baseline="central" text-anchor="middle" style="font-size:12px;font-family:Microsoft YaHei;" y="6" transform="translate(841.1933 727)" fill="#6E7079">70,000</text>
<text dominant-baseline="central" text-anchor="middle" style="font-size:12px;font-family:Microsoft YaHei;" y="6" transform="translate(991.8 727)" fill="#6E7079">80,000</text>
<path d="M1 0A1 1 0 1 1 1 -0.0001" transform="matrix(9.144,0,0,9.144,127.8298,455.9763)" fill="#5470c6" fill-opacity="0.8" class="zr0-cls-17"></path>
<path d="M1 0A1 1 0 1 1 1 -0.0001" transform="matrix(9.057,0,0,9.057,135.1643,158.6472)" fill="#5470c6" fill-opacity="0.8" class="zr0-cls-17"></path>
<path d="M1 0A1 1 0 1 1 1 -0.0001" transform="matrix(9.277,0,0,9.277,167.8761,266.8271)" fill="#5470c6" fill-opacity="0.8" class="zr0-cls-17"></path>
<path d="M1 0A1 1 0 1 1 1 -0.0001" transform="matrix(9.053,0,0,9.053,189.0665,211.1576)" fill="#5470c6" fill-opacity="0.8" class="zr0-cls-17"></path>
<path d="M1 0A1 1 0 1 1 1 -0.0001" transform="matrix(9.303,0,0,9.303,136.8511,94.68)" fill="#5470c6" fill-opacity="0.8" class="zr0-cls-17"></path>
<path d="M1 0A1 1 0 1 1 1 -0.0001" transform="matrix(28.67,0,0,28.67,515.6871,327.6352)" fill="#91cc75" fill-opacity="0.8" class="zr0-cls-18"></path>
<path d="M1 0A1 1 0 1 1 1 -0.0001" transform="matrix(29.398,0,0,29.398,616.5635,209.4447)" fill="#91cc75" fill-opacity="0.8" class="zr0-cls-18"></path>
<path d="M1 0A1 1 0 1 1 1 -0.0001" transform="matrix(28.937,0,0,28.937,370.8186,315.5479)" fill="#91cc75" fill-opacity="0.8" class="zr0-cls-18"></path>
<path d="M1 0A1 1 0 1 1 1 -0.0001" transform="matrix(28.66,0,0,28.66,415.8048,606.4177)" fill="#91cc75" fill-opacity="0.8" class="zr0-cls-18"></path>
<path d="M1 0A1 1 0 1 1 1 -0.0001" transform="matrix(29.47,0,0,29.47,588.3097,286.5816)" fill="#91cc75" fill-opacity="0.8" class="zr0-cls-18"></path>
<path d="M1 0A1 1 0 1 1 1 -0.0001" transform="matrix(26.23,0,0,26.23,302.6992,496.3565)" fill="#fac858" fill-opacity="0.8" class="zr0-cls-19"></path>
<path d="M1 0A1 1 0 1 1 1 -0.0001" transform="matrix(26.636,0,0,26.636,285.7108,381.5918)" fill="rgb(250,200,88)" fill-opacity="0.8" class="zr0-cls-19"></path>
<path d="M1 0A1 1 0 1 1 1 -0.0001" transform="matrix(25.975,0,0,25.975,760.4079,414.5161)" fill="#fac858" fill-opacity="0.8" class="zr0-cls-19"></path>
<path d="M1 0A1 1 0 1 1 1 -0.0001" transform="matrix(26.557,0,0,26.557,413.5457,224.7467)" fill="#fac858" fill-opacity="0.8" class="zr0-cls-19"></path>
<path d="M1 0A1 1 0 1 1 1 -0.0001" transform="matrix(26.183,0,0,26.183,328.3626,600.4948)" fill="#fac858" fill-opacity="0.8" class="zr0-cls-19"></path>
<path d="M1 0A1 1 0 1 1 1 -0.0001" transform="matrix(7.193,0,0,7.193,343.0768,381.5918)" fill="rgb(238,102,102)" fill-opacity="0.8" class="zr0-cls-20"></path>
<path d="M1 0A1 1 0 1 1 1 -0.0001" transform="matrix(6.367,0,0,6.367,262.4872,286.5816)" fill="rgb(238,102,102)" fill-opacity="0.8" class="zr0-cls-20"></path>
<path d="M1 0A1 1 0 1 1 1 -0.0001" transform="matrix(7.057,0,0,7.057,299.2804,266.8271)" fill="rgb(238,102,102)" fill-opacity="0.8" class="zr0-cls-20"></path>
<path d="M1 0A1 1 0 1 1 1 -0.0001" transform="matrix(7.165,0,0,7.165,275.9515,289.78)" fill="rgb(238,102,102)" fill-opacity="0.8" class="zr0-cls-20"></path>
<path d="M1 0A1 1 0 1 1 1 -0.0001" transform="matrix(7.087,0,0,7.087,173.2377,672.7541)" fill="rgb(238,102,102)" fill-opacity="0.8" class="zr0-cls-20"></path>
<path d="M1 0A1 1 0 1 1 1 -0.0001" transform="matrix(19.141,0,0,19.141,478.4421,209.4447)" fill="#73c0de" fill-opacity="0.8" class="zr0-cls-21"></path>
<path d="M1 0A1 1 0 1 1 1 -0.0001" transform="matrix(19.143,0,0,19.143,449.8871,224.7467)" fill="#73c0de" fill-opacity="0.8" class="zr0-cls-21"></path>
<path d="M1 0A1 1 0 1 1 1 -0.0001" transform="matrix(18.883,0,0,18.883,461.9206,209.4447)" fill="#73c0de" fill-opacity="0.8" class="zr0-cls-21"></path>
<path d="M1 0A1 1 0 1 1 1 -0.0001" transform="matrix(18.749,0,0,18.749,361.3454,315.5479)" fill="#73c0de" fill-opacity="0.8" class="zr0-cls-21"></path>
<path d="M1 0A1 1 0 1 1 1 -0.0001" transform="matrix(18.651,0,0,18.651,885.1855,222.6144)" fill="#73c0de" fill-opacity="0.8" class="zr0-cls-21"></path>
<path d="M1 0A1 1 0 1 1 1 -0.0001" transform="matrix(8.047,0,0,8.047,367.0835,266.8271)" fill="rgb(59,162,114)" fill-opacity="0.8" class="zr0-cls-22"></path>
<path d="M1 0A1 1 0 1 1 1 -0.0001" transform="matrix(7.932,0,0,7.932,417.3862,381.5918)" fill="rgb(59,162,114)" fill-opacity="0.8" class="zr0-cls-22"></path>
<path d="M1 0A1 1 0 1 1 1 -0.0001" transform="matrix(8.034,0,0,8.034,346.3601,289.78)" fill="rgb(59,162,114)" fill-opacity="0.8" class="zr0-cls-22"></path>
<path d="M1 0A1 1 0 1 1 1 -0.0001" transform="matrix(7.892,0,0,7.892,288.7078,315.5479)" fill="rgb(59,162,114)" fill-opacity="0.8" class="zr0-cls-22"></path>
<path d="M1 0A1 1 0 1 1 1 -0.0001" transform="matrix(7.826,0,0,7.826,322.3684,158.6472)" fill="rgb(59,162,114)" fill-opacity="0.8" class="zr0-cls-22"></path>
<path d="M-5 -5l886.4355 0l0 48l-886.4355 0Z" transform="translate(112.7822 28.67)" fill="rgb(0,0,0)" fill-opacity="0" stroke="#ccc" stroke-width="0" class="zr0-cls-16"></path>
<path d="M19.5 7A7 7 0 1 1 19.5 6.9993" transform="translate(107.2822 28.67)" fill="#5470c6" fill-opacity="0.8" class="zr0-cls-16"></path>
<text dominant-baseline="central" text-anchor="start" style="font-size:12px;font-family:Microsoft YaHei;" x="30" y="7" transform="translate(107.2822 28.67)" fill="#333">gemini-1.5-flash-latest</text>
<path d="M5.5 0l154.5078 0l0 14l-154.5078 0Z" transform="translate(107.2822 28.67)" fill="transparent" class="zr0-cls-23"></path>
<path d="M19.5 7A7 7 0 1 1 19.5 6.9993" transform="translate(271.79 28.67)" fill="#91cc75" fill-opacity="0.8" class="zr0-cls-16"></path>
<text dominant-baseline="central" text-anchor="start" style="font-size:12px;font-family:Microsoft YaHei;" x="30" y="7" transform="translate(271.79 28.67)" fill="#333">gemini-1.5-pro-latest</text>
<path d="M5.5 0l147.2832 0l0 14l-147.2832 0Z" transform="translate(271.79 28.67)" fill="transparent" class="zr0-cls-23"></path>
<path d="M19.5 7A7 7 0 1 1 19.5 6.9993" transform="translate(429.0732 28.67)" fill="#fac858" fill-opacity="0.8" class="zr0-cls-16"></path>
<text dominant-baseline="central" text-anchor="start" style="font-size:12px;font-family:Microsoft YaHei;" x="30" y="7" transform="translate(429.0732 28.67)" fill="#333">gpt-4o-2024-08-06</text>
<path d="M5.5 0l135.3242 0l0 14l-135.3242 0Z" transform="translate(429.0732 28.67)" fill="transparent" class="zr0-cls-23"></path>
<path d="M19.5 7A7 7 0 1 1 19.5 6.9993" transform="translate(574.3975 28.67)" fill="#ee6666" fill-opacity="0.8" class="zr0-cls-16"></path>
<text dominant-baseline="central" text-anchor="start" style="font-size:12px;font-family:Microsoft YaHei;" x="30" y="7" transform="translate(574.3975 28.67)" fill="#333">gpt-4o-mini</text>
<path d="M5.5 0l93.6699 0l0 14l-93.6699 0Z" transform="translate(574.3975 28.67)" fill="transparent" class="zr0-cls-23"></path>
<path d="M19.5 7A7 7 0 1 1 19.5 6.9993" transform="translate(678.0674 28.67)" fill="#73c0de" fill-opacity="0.8" class="zr0-cls-16"></path>
<text dominant-baseline="central" text-anchor="start" style="font-size:12px;font-family:Microsoft YaHei;" x="30" y="7" transform="translate(678.0674 28.67)" fill="#333">meta-llama/Meta-Llama-3.1-405B-Instruct-Turbo</text>
<path d="M5.5 0l305.6504 0l0 14l-305.6504 0Z" transform="translate(678.0674 28.67)" fill="transparent" class="zr0-cls-23"></path>
<path d="M19.5 7A7 7 0 1 1 19.5 6.9993" transform="translate(107.2822 52.67)" fill="#3ba272" fill-opacity="0.8" class="zr0-cls-16"></path>
<text dominant-baseline="central" text-anchor="start" style="font-size:12px;font-family:Microsoft YaHei;" x="30" y="7" transform="translate(107.2822 52.67)" fill="#333">meta-llama/Meta-Llama-3.1-70B-Instruct-Turbo</text>
<path d="M5.5 0l298.6133 0l0 14l-298.6133 0Z" transform="translate(107.2822 52.67)" fill="transparent" class="zr0-cls-23"></path>
<style ><![CDATA[
.zr0-cls-16:hover {
pointer-events:none;
}
.zr0-cls-17:hover {
cursor:pointer;
fill:rgba(92,123,217,1);
}
.zr0-cls-18:hover {
cursor:pointer;
fill:rgba(159,224,128,1);
}
.zr0-cls-19:hover {
cursor:pointer;
fill:rgba(255,220,96,1);
}
.zr0-cls-20:hover {
cursor:pointer;
fill:rgba(255,112,112,1);
}
.zr0-cls-21:hover {
cursor:pointer;
fill:rgba(126,211,244,1);
}
.zr0-cls-22:hover {
cursor:pointer;
fill:rgba(64,178,125,1);
}
.zr0-cls-23:hover {
cursor:pointer;
fill:rgba(0,0,0,0);
}

]]>

</style>
</svg>