<svg width="1102" height="789" xmlns="http://www.w3.org/2000/svg" xmlns:xlink="http://www.w3.org/1999/xlink" version="1.1" baseProfile="full" viewBox="0 0 1102 789">
<rect width="1102" height="789" x="0" y="0" fill="none"></rect>
<path d="M88.16 719.5L991.8 719.5" fill="transparent" stroke="#E0E6F1" stroke-dasharray="4,2" class="zr8-cls-8"></path>
<path d="M88.16 615.5L991.8 615.5" fill="transparent" stroke="#E0E6F1" stroke-dasharray="4,2" class="zr8-cls-8"></path>
<path d="M88.16 511.5L991.8 511.5" fill="transparent" stroke="#E0E6F1" stroke-dasharray="4,2" class="zr8-cls-8"></path>
<path d="M88.16 407.5L991.8 407.5" fill="transparent" stroke="#E0E6F1" stroke-dasharray="4,2" class="zr8-cls-8"></path>
<path d="M88.16 303.5L991.8 303.5" fill="transparent" stroke="#E0E6F1" stroke-dasharray="4,2" class="zr8-cls-8"></path>
<path d="M88.16 198.5L991.8 198.5" fill="transparent" stroke="#E0E6F1" stroke-dasharray="4,2" class="zr8-cls-8"></path>
<path d="M88.16 94.5L991.8 94.5" fill="transparent" stroke="#E0E6F1" stroke-dasharray="4,2" class="zr8-cls-8"></path>
<path d="M88.5 94.68L88.5 719" fill="transparent" stroke="#E0E6F1" stroke-dasharray="4,2" class="zr8-cls-8"></path>
<path d="M269.5 94.68L269.5 719" fill="transparent" stroke="#E0E6F1" stroke-dasharray="4,2" class="zr8-cls-8"></path>
<path d="M449.5 94.68L449.5 719" fill="transparent" stroke="#E0E6F1" stroke-dasharray="4,2" class="zr8-cls-8"></path>
<path d="M630.5 94.68L630.5 719" fill="transparent" stroke="#E0E6F1" stroke-dasharray="4,2" class="zr8-cls-8"></path>
<path d="M811.5 94.68L811.5 719" fill="transparent" stroke="#E0E6F1" stroke-dasharray="4,2" class="zr8-cls-8"></path>
<path d="M992.5 94.68L992.5 719" fill="transparent" stroke="#E0E6F1" stroke-dasharray="4,2" class="zr8-cls-8"></path>
<path d="M88.5 719L88.5 94.68" fill="transparent" stroke="#6E7079" stroke-linecap="round" class="zr8-cls-8"></path>
<path d="M88.16 719.5L991.8 719.5" fill="transparent" stroke="#6E7079" stroke-linecap="round" class="zr8-cls-8"></path>
<path d="M88.16 719.5L83.16 719.5" fill="transparent" stroke="#6E7079" class="zr8-cls-8"></path>
<path d="M88.16 615.5L83.16 615.5" fill="transparent" stroke="#6E7079" class="zr8-cls-8"></path>
<path d="M88.16 511.5L83.16 511.5" fill="transparent" stroke="#6E7079" class="zr8-cls-8"></path>
<path d="M88.16 407.5L83.16 407.5" fill="transparent" stroke="#6E7079" class="zr8-cls-8"></path>
<path d="M88.16 303.5L83.16 303.5" fill="transparent" stroke="#6E7079" class="zr8-cls-8"></path>
<path d="M88.16 198.5L83.16 198.5" fill="transparent" stroke="#6E7079" class="zr8-cls-8"></path>
<path d="M88.16 94.5L83.16 94.5" fill="transparent" stroke="#6E7079" class="zr8-cls-8"></path>
<path d="M88.5 719L88.5 724" fill="transparent" stroke="#6E7079" class="zr8-cls-8"></path>
<path d="M269.5 719L269.5 724" fill="transparent" stroke="#6E7079" class="zr8-cls-8"></path>
<path d="M449.5 719L449.5 724" fill="transparent" stroke="#6E7079" class="zr8-cls-8"></path>
<path d="M630.5 719L630.5 724" fill="transparent" stroke="#6E7079" class="zr8-cls-8"></path>
<path d="M811.5 719L811.5 724" fill="transparent" stroke="#6E7079" class="zr8-cls-8"></path>
<path d="M992.5 719L992.5 724" fill="transparent" stroke="#6E7079" class="zr8-cls-8"></path>
<text dominant-baseline="central" text-anchor="end" style="font-size:12px;font-family:Microsoft YaHei;" transform="translate(80.16 719)" fill="#6E7079">0.88</text>
<text dominant-baseline="central" text-anchor="end" style="font-size:12px;font-family:Microsoft YaHei;" transform="translate(80.16 614.9467)" fill="#6E7079">0.9</text>
<text dominant-baseline="central" text-anchor="end" style="font-size:12px;font-family:Microsoft YaHei;" transform="translate(80.16 510.8933)" fill="#6E7079">0.92</text>
<text dominant-baseline="central" text-anchor="end" style="font-size:12px;font-family:Microsoft YaHei;" transform="translate(80.16 406.84)" fill="#6E7079">0.94</text>
<text dominant-baseline="central" text-anchor="end" style="font-size:12px;font-family:Microsoft YaHei;" transform="translate(80.16 302.7867)" fill="#6E7079">0.96</text>
<text dominant-baseline="central" text-anchor="end" style="font-size:12px;font-family:Microsoft YaHei;" transform="translate(80.16 198.7333)" fill="#6E7079">0.98</text>
<text dominant-baseline="central" text-anchor="end" style="font-size:12px;font-family:Microsoft YaHei;" transform="translate(80.16 94.68)" fill="#6E7079">1</text>
<text dominant-baseline="central" text-anchor="middle" style="font-size:12px;font-family:Microsoft YaHei;" y="6" transform="translate(88.16 727)" fill="#6E7079">0</text>
<text dominant-baseline="central" text-anchor="middle" style="font-size:12px;font-family:Microsoft YaHei;" y="6" transform="translate(268.888 727)" fill="#6E7079">20,000</text>
<text dominant-baseline="central" text-anchor="middle" style="font-size:12px;font-family:Microsoft YaHei;" y="6" transform="translate(449.616 727)" fill="#6E7079">40,000</text>
<text dominant-baseline="central" text-anchor="middle" style="font-size:12px;font-family:Microsoft YaHei;" y="6" transform="translate(630.344 727)" fill="#6E7079">60,000</text>
<text dominant-baseline="central" text-anchor="middle" style="font-size:12px;font-family:Microsoft YaHei;" y="6" transform="translate(811.072 727)" fill="#6E7079">80,000</text>
<text dominant-baseline="central" text-anchor="middle" style="font-size:12px;font-family:Microsoft YaHei;" y="6" transform="translate(991.8 727)" fill="#6E7079">100,000</text>
<path d="M1 0A1 1 0 1 1 1 -0.0001" transform="matrix(6.903,0,0,6.903,293.6206,94.68)" fill="#5470c6" fill-opacity="0.8" class="zr8-cls-9"></path>
<path d="M1 0A1 1 0 1 1 1 -0.0001" transform="matrix(6.787,0,0,6.787,293.1507,94.68)" fill="#5470c6" fill-opacity="0.8" class="zr8-cls-9"></path>
<path d="M1 0A1 1 0 1 1 1 -0.0001" transform="matrix(6.704,0,0,6.704,288.7048,510.8933)" fill="#5470c6" fill-opacity="0.8" class="zr8-cls-9"></path>
<path d="M1 0A1 1 0 1 1 1 -0.0001" transform="matrix(6.914,0,0,6.914,317.3864,94.68)" fill="#5470c6" fill-opacity="0.8" class="zr8-cls-9"></path>
<path d="M1 0A1 1 0 1 1 1 -0.0001" transform="matrix(6.931,0,0,6.931,313.4826,175.9717)" fill="#5470c6" fill-opacity="0.8" class="zr8-cls-9"></path>
<path d="M1 0A1 1 0 1 1 1 -0.0001" transform="matrix(21.233,0,0,21.233,411.7173,719)" fill="#91cc75" fill-opacity="0.8" class="zr8-cls-10"></path>
<path d="M1 0A1 1 0 1 1 1 -0.0001" transform="matrix(23.853,0,0,23.853,531.3502,280.4895)" fill="#91cc75" fill-opacity="0.8" class="zr8-cls-10"></path>
<path d="M1 0A1 1 0 1 1 1 -0.0001" transform="matrix(21.481,0,0,21.481,434.5342,277.2297)" fill="#91cc75" fill-opacity="0.8" class="zr8-cls-10"></path>
<path d="M1 0A1 1 0 1 1 1 -0.0001" transform="matrix(21.903,0,0,21.903,507.2592,94.68)" fill="#91cc75" fill-opacity="0.8" class="zr8-cls-10"></path>
<path d="M1 0A1 1 0 1 1 1 -0.0001" transform="matrix(22.008,0,0,22.008,553.0918,257.2633)" fill="#91cc75" fill-opacity="0.8" class="zr8-cls-10"></path>
<path d="M1 0A1 1 0 1 1 1 -0.0001" transform="matrix(20.224,0,0,20.224,360.9508,187.5848)" fill="#fac858" fill-opacity="0.8" class="zr8-cls-11"></path>
<path d="M1 0A1 1 0 1 1 1 -0.0001" transform="matrix(19.72,0,0,19.72,317.4315,510.8933)" fill="#fac858" fill-opacity="0.8" class="zr8-cls-11"></path>
<path d="M1 0A1 1 0 1 1 1 -0.0001" transform="matrix(19.944,0,0,19.944,343.8811,94.68)" fill="#fac858" fill-opacity="0.8" class="zr8-cls-11"></path>
<path d="M1 0A1 1 0 1 1 1 -0.0001" transform="matrix(20.313,0,0,20.313,358.7189,257.2633)" fill="#fac858" fill-opacity="0.8" class="zr8-cls-11"></path>
<path d="M1 0A1 1 0 1 1 1 -0.0001" transform="matrix(20.324,0,0,20.324,421.5399,501.1383)" fill="#fac858" fill-opacity="0.8" class="zr8-cls-11"></path>
<path d="M1 0A1 1 0 1 1 1 -0.0001" transform="matrix(4.95,0,0,4.95,312.9766,94.68)" fill="#ee6666" fill-opacity="0.8" class="zr8-cls-12"></path>
<path d="M1 0A1 1 0 1 1 1 -0.0001" transform="matrix(4.884,0,0,4.884,281.1685,94.68)" fill="#ee6666" fill-opacity="0.8" class="zr8-cls-12"></path>
<path d="M1 0A1 1 0 1 1 1 -0.0001" transform="matrix(4.826,0,0,4.826,296.2502,614.9467)" fill="#ee6666" fill-opacity="0.8" class="zr8-cls-12"></path>
<path d="M1 0A1 1 0 1 1 1 -0.0001" transform="matrix(4.977,0,0,4.977,326.3414,94.68)" fill="#ee6666" fill-opacity="0.8" class="zr8-cls-12"></path>
<path d="M1 0A1 1 0 1 1 1 -0.0001" transform="matrix(4.982,0,0,4.982,323.992,338.555)" fill="#ee6666" fill-opacity="0.8" class="zr8-cls-12"></path>
<path d="M1 0A1 1 0 1 1 1 -0.0001" transform="matrix(14.249,0,0,14.249,451.4594,94.68)" fill="#73c0de" fill-opacity="0.8" class="zr8-cls-13"></path>
<path d="M1 0A1 1 0 1 1 1 -0.0001" transform="matrix(14.437,0,0,14.437,549.1791,94.68)" fill="#73c0de" fill-opacity="0.8" class="zr8-cls-13"></path>
<path d="M1 0A1 1 0 1 1 1 -0.0001" transform="matrix(14.759,0,0,14.759,844.6422,94.68)" fill="#73c0de" fill-opacity="0.8" class="zr8-cls-13"></path>
<path d="M1 0A1 1 0 1 1 1 -0.0001" transform="matrix(14.772,0,0,14.772,756.3747,94.68)" fill="#73c0de" fill-opacity="0.8" class="zr8-cls-13"></path>
<path d="M1 0A1 1 0 1 1 1 -0.0001" transform="matrix(14.785,0,0,14.785,807.5839,94.68)" fill="#73c0de" fill-opacity="0.8" class="zr8-cls-13"></path>
<path d="M1 0A1 1 0 1 1 1 -0.0001" transform="matrix(6.196,0,0,6.196,356.4959,187.5848)" fill="#3ba272" fill-opacity="0.8" class="zr8-cls-14"></path>
<path d="M1 0A1 1 0 1 1 1 -0.0001" transform="matrix(6.063,0,0,6.063,338.0888,185.9549)" fill="#3ba272" fill-opacity="0.8" class="zr8-cls-14"></path>
<path d="M1 0A1 1 0 1 1 1 -0.0001" transform="matrix(5.988,0,0,5.988,336.914,200.8569)" fill="#3ba272" fill-opacity="0.8" class="zr8-cls-14"></path>
<path d="M1 0A1 1 0 1 1 1 -0.0001" transform="matrix(6.215,0,0,6.215,366.96,175.9717)" fill="#3ba272" fill-opacity="0.8" class="zr8-cls-14"></path>
<path d="M1 0A1 1 0 1 1 1 -0.0001" transform="matrix(6.208,0,0,6.208,415.9373,419.8467)" fill="#3ba272" fill-opacity="0.8" class="zr8-cls-14"></path>
<path d="M-5 -5l886.4355 0l0 48l-886.4355 0Z" transform="translate(112.7822 28.67)" fill="rgb(0,0,0)" fill-opacity="0" stroke="#ccc" stroke-width="0" class="zr8-cls-8"></path>
<path d="M19.5 7A7 7 0 1 1 19.5 6.9993" transform="translate(107.2822 28.67)" fill="#5470c6" fill-opacity="0.8" class="zr8-cls-8"></path>
<text dominant-baseline="central" text-anchor="start" style="font-size:12px;font-family:Microsoft YaHei;" x="30" y="7" transform="translate(107.2822 28.67)" fill="#333">gemini-1.5-flash-latest</text>
<path d="M5.5 0l154.5078 0l0 14l-154.5078 0Z" transform="translate(107.2822 28.67)" fill="transparent" class="zr8-cls-15"></path>
<path d="M19.5 7A7 7 0 1 1 19.5 6.9993" transform="translate(271.79 28.67)" fill="#91cc75" fill-opacity="0.8" class="zr8-cls-8"></path>
<text dominant-baseline="central" text-anchor="start" style="font-size:12px;font-family:Microsoft YaHei;" x="30" y="7" transform="translate(271.79 28.67)" fill="#333">gemini-1.5-pro-latest</text>
<path d="M5.5 0l147.2832 0l0 14l-147.2832 0Z" transform="translate(271.79 28.67)" fill="transparent" class="zr8-cls-15"></path>
<path d="M19.5 7A7 7 0 1 1 19.5 6.9993" transform="translate(429.0732 28.67)" fill="#fac858" fill-opacity="0.8" class="zr8-cls-8"></path>
<text dominant-baseline="central" text-anchor="start" style="font-size:12px;font-family:Microsoft YaHei;" x="30" y="7" transform="translate(429.0732 28.67)" fill="#333">gpt-4o-2024-08-06</text>
<path d="M5.5 0l135.3242 0l0 14l-135.3242 0Z" transform="translate(429.0732 28.67)" fill="transparent" class="zr8-cls-15"></path>
<path d="M19.5 7A7 7 0 1 1 19.5 6.9993" transform="translate(574.3975 28.67)" fill="#ee6666" fill-opacity="0.8" class="zr8-cls-8"></path>
<text dominant-baseline="central" text-anchor="start" style="font-size:12px;font-family:Microsoft YaHei;" x="30" y="7" transform="translate(574.3975 28.67)" fill="#333">gpt-4o-mini</text>
<path d="M5.5 0l93.6699 0l0 14l-93.6699 0Z" transform="translate(574.3975 28.67)" fill="transparent" class="zr8-cls-15"></path>
<path d="M19.5 7A7 7 0 1 1 19.5 6.9993" transform="translate(678.0674 28.67)" fill="#73c0de" fill-opacity="0.8" class="zr8-cls-8"></path>
<text dominant-baseline="central" text-anchor="start" style="font-size:12px;font-family:Microsoft YaHei;" x="30" y="7" transform="translate(678.0674 28.67)" fill="#333">meta-llama/Meta-Llama-3.1-405B-Instruct-Turbo</text>
<path d="M5.5 0l305.6504 0l0 14l-305.6504 0Z" transform="translate(678.0674 28.67)" fill="transparent" class="zr8-cls-15"></path>
<path d="M19.5 7A7 7 0 1 1 19.5 6.9993" transform="translate(107.2822 52.67)" fill="#3ba272" fill-opacity="0.8" class="zr8-cls-8"></path>
<text dominant-baseline="central" text-anchor="start" style="font-size:12px;font-family:Microsoft YaHei;" x="30" y="7" transform="translate(107.2822 52.67)" fill="#333">meta-llama/Meta-Llama-3.1-70B-Instruct-Turbo</text>
<path d="M5.5 0l298.6133 0l0 14l-298.6133 0Z" transform="translate(107.2822 52.67)" fill="transparent" class="zr8-cls-15"></path>
<style ><![CDATA[
.zr8-cls-8:hover {
pointer-events:none;
}
.zr8-cls-9:hover {
cursor:pointer;
fill:rgba(92,123,217,1);
}
.zr8-cls-10:hover {
cursor:pointer;
fill:rgba(159,224,128,1);
}
.zr8-cls-11:hover {
cursor:pointer;
fill:rgba(255,220,96,1);
}
.zr8-cls-12:hover {
cursor:pointer;
fill:rgba(255,112,112,1);
}
.zr8-cls-13:hover {
cursor:pointer;
fill:rgba(126,211,244,1);
}
.zr8-cls-14:hover {
cursor:pointer;
fill:rgba(64,178,125,1);
}
.zr8-cls-15:hover {
cursor:pointer;
fill:rgba(0,0,0,0);
}

]]>

</style>
</svg>